<mxfile host="app.diagrams.net" modified="2021-05-31T11:19:28.176Z" agent="5.0 (Macintosh; Intel Mac OS X 10_15_7) AppleWebKit/605.1.15 (KHTML, like Gecko) Version/14.1 Safari/605.1.15" etag="Wwnc00BAL7XfzjomsMvx" version="14.7.3" type="github">
  <diagram id="xvKRhTIGWg4SUEIjvZcm" name="Page-1">
    <mxGraphModel dx="2871" dy="1231" grid="1" gridSize="10" guides="1" tooltips="1" connect="1" arrows="1" fold="1" page="1" pageScale="1" pageWidth="827" pageHeight="1169" math="0" shadow="0">
      <root>
        <mxCell id="0" />
        <mxCell id="1" parent="0" />
        <mxCell id="dNskdut9mb7uznUAlSVk-55" value="" style="group" vertex="1" connectable="0" parent="1">
          <mxGeometry x="20" y="250" width="170" height="180" as="geometry" />
        </mxCell>
        <mxCell id="dNskdut9mb7uznUAlSVk-76" value="" style="rounded=0;whiteSpace=wrap;html=1;verticalAlign=bottom;strokeColor=none;" vertex="1" parent="dNskdut9mb7uznUAlSVk-55">
          <mxGeometry width="170" height="180" as="geometry" />
        </mxCell>
        <mxCell id="dNskdut9mb7uznUAlSVk-48" value="" style="rounded=0;whiteSpace=wrap;html=1;" vertex="1" parent="dNskdut9mb7uznUAlSVk-55">
          <mxGeometry x="60" y="45" width="80" height="120" as="geometry" />
        </mxCell>
        <mxCell id="dNskdut9mb7uznUAlSVk-49" value="" style="rounded=0;whiteSpace=wrap;html=1;" vertex="1" parent="dNskdut9mb7uznUAlSVk-55">
          <mxGeometry x="50" y="35" width="80" height="120" as="geometry" />
        </mxCell>
        <mxCell id="dNskdut9mb7uznUAlSVk-50" value="&lt;font style=&quot;font-size: 12px&quot;&gt;Neural&lt;br&gt;Activity&lt;br&gt;&lt;/font&gt;&lt;br&gt;&lt;font style=&quot;font-size: 10px&quot;&gt;spikes encoded as binary events&lt;/font&gt;" style="rounded=0;whiteSpace=wrap;html=1;spacingTop=2;spacingLeft=2;spacingBottom=2;spacingRight=2;spacing=8;" vertex="1" parent="dNskdut9mb7uznUAlSVk-55">
          <mxGeometry x="40" y="25" width="80" height="120" as="geometry" />
        </mxCell>
        <mxCell id="dNskdut9mb7uznUAlSVk-51" value="time" style="endArrow=classic;html=1;labelPosition=center;verticalLabelPosition=top;align=center;verticalAlign=bottom;" edge="1" parent="dNskdut9mb7uznUAlSVk-55">
          <mxGeometry width="50" height="50" relative="1" as="geometry">
            <mxPoint x="40" y="15" as="sourcePoint" />
            <mxPoint x="90" y="15" as="targetPoint" />
          </mxGeometry>
        </mxCell>
        <mxCell id="dNskdut9mb7uznUAlSVk-52" value="neurons" style="endArrow=classic;html=1;horizontal=0;labelPosition=center;verticalLabelPosition=top;align=center;verticalAlign=bottom;" edge="1" parent="dNskdut9mb7uznUAlSVk-55">
          <mxGeometry y="-10" width="50" height="50" relative="1" as="geometry">
            <mxPoint x="30" y="25" as="sourcePoint" />
            <mxPoint x="30" y="75" as="targetPoint" />
            <mxPoint as="offset" />
          </mxGeometry>
        </mxCell>
        <mxCell id="dNskdut9mb7uznUAlSVk-54" value="trials" style="endArrow=classic;html=1;horizontal=1;labelPosition=center;verticalLabelPosition=top;align=center;verticalAlign=bottom;" edge="1" parent="dNskdut9mb7uznUAlSVk-55">
          <mxGeometry x="0.25" y="7" width="50" height="50" relative="1" as="geometry">
            <mxPoint x="130" y="15" as="sourcePoint" />
            <mxPoint x="160" y="45" as="targetPoint" />
            <mxPoint as="offset" />
          </mxGeometry>
        </mxCell>
        <mxCell id="dNskdut9mb7uznUAlSVk-79" value="" style="group" vertex="1" connectable="0" parent="1">
          <mxGeometry x="250" y="280" width="100" height="120" as="geometry" />
        </mxCell>
        <mxCell id="dNskdut9mb7uznUAlSVk-78" value="Encoder RNN" style="rounded=0;whiteSpace=wrap;html=1;verticalAlign=bottom;strokeColor=none;" vertex="1" parent="dNskdut9mb7uznUAlSVk-79">
          <mxGeometry width="100" height="120" as="geometry" />
        </mxCell>
        <mxCell id="dNskdut9mb7uznUAlSVk-56" value="" style="ellipse;whiteSpace=wrap;html=1;aspect=fixed;" vertex="1" parent="dNskdut9mb7uznUAlSVk-79">
          <mxGeometry x="10" y="40" width="10" height="10" as="geometry" />
        </mxCell>
        <mxCell id="dNskdut9mb7uznUAlSVk-69" style="edgeStyle=orthogonalEdgeStyle;curved=1;rounded=0;orthogonalLoop=1;jettySize=auto;html=1;entryX=0.5;entryY=0;entryDx=0;entryDy=0;startSize=3;endSize=3;verticalAlign=bottom;" edge="1" parent="dNskdut9mb7uznUAlSVk-79" source="dNskdut9mb7uznUAlSVk-57" target="dNskdut9mb7uznUAlSVk-56">
          <mxGeometry x="10" y="10" as="geometry">
            <Array as="points">
              <mxPoint x="15" y="25" />
            </Array>
          </mxGeometry>
        </mxCell>
        <mxCell id="dNskdut9mb7uznUAlSVk-57" value="" style="ellipse;whiteSpace=wrap;html=1;aspect=fixed;" vertex="1" parent="dNskdut9mb7uznUAlSVk-79">
          <mxGeometry x="30" y="20" width="10" height="10" as="geometry" />
        </mxCell>
        <mxCell id="dNskdut9mb7uznUAlSVk-67" style="edgeStyle=orthogonalEdgeStyle;curved=1;rounded=0;orthogonalLoop=1;jettySize=auto;html=1;entryX=1;entryY=0.5;entryDx=0;entryDy=0;startSize=3;endSize=3;verticalAlign=bottom;" edge="1" parent="dNskdut9mb7uznUAlSVk-79" source="dNskdut9mb7uznUAlSVk-58" target="dNskdut9mb7uznUAlSVk-57">
          <mxGeometry x="10" y="10" as="geometry">
            <Array as="points">
              <mxPoint x="45" y="40" />
              <mxPoint x="60" y="40" />
              <mxPoint x="60" y="25" />
            </Array>
          </mxGeometry>
        </mxCell>
        <mxCell id="dNskdut9mb7uznUAlSVk-58" value="" style="ellipse;whiteSpace=wrap;html=1;aspect=fixed;" vertex="1" parent="dNskdut9mb7uznUAlSVk-79">
          <mxGeometry x="40" y="50" width="10" height="10" as="geometry" />
        </mxCell>
        <mxCell id="dNskdut9mb7uznUAlSVk-70" style="edgeStyle=orthogonalEdgeStyle;curved=1;rounded=0;orthogonalLoop=1;jettySize=auto;html=1;entryX=0;entryY=0.5;entryDx=0;entryDy=0;startSize=3;endSize=3;verticalAlign=bottom;" edge="1" parent="dNskdut9mb7uznUAlSVk-79" source="dNskdut9mb7uznUAlSVk-56" target="dNskdut9mb7uznUAlSVk-58">
          <mxGeometry x="10" y="10" as="geometry">
            <Array as="points">
              <mxPoint x="15" y="55" />
            </Array>
          </mxGeometry>
        </mxCell>
        <mxCell id="dNskdut9mb7uznUAlSVk-59" value="" style="ellipse;whiteSpace=wrap;html=1;aspect=fixed;" vertex="1" parent="dNskdut9mb7uznUAlSVk-79">
          <mxGeometry x="30" y="80" width="10" height="10" as="geometry" />
        </mxCell>
        <mxCell id="dNskdut9mb7uznUAlSVk-71" style="edgeStyle=orthogonalEdgeStyle;curved=1;rounded=0;orthogonalLoop=1;jettySize=auto;html=1;entryX=0;entryY=0.5;entryDx=0;entryDy=0;startSize=3;endSize=3;verticalAlign=bottom;" edge="1" parent="dNskdut9mb7uznUAlSVk-79" source="dNskdut9mb7uznUAlSVk-56" target="dNskdut9mb7uznUAlSVk-59">
          <mxGeometry x="10" y="10" as="geometry">
            <Array as="points">
              <mxPoint x="10" y="85" />
            </Array>
          </mxGeometry>
        </mxCell>
        <mxCell id="dNskdut9mb7uznUAlSVk-66" style="edgeStyle=orthogonalEdgeStyle;curved=1;rounded=0;orthogonalLoop=1;jettySize=auto;html=1;entryX=0.5;entryY=0;entryDx=0;entryDy=0;startSize=3;endSize=3;verticalAlign=bottom;" edge="1" parent="dNskdut9mb7uznUAlSVk-79" source="dNskdut9mb7uznUAlSVk-58" target="dNskdut9mb7uznUAlSVk-59">
          <mxGeometry x="10" y="10" as="geometry">
            <Array as="points">
              <mxPoint x="35" y="55" />
            </Array>
          </mxGeometry>
        </mxCell>
        <mxCell id="dNskdut9mb7uznUAlSVk-65" style="edgeStyle=orthogonalEdgeStyle;curved=1;rounded=0;orthogonalLoop=1;jettySize=auto;html=1;entryX=1;entryY=0.5;entryDx=0;entryDy=0;startSize=3;endSize=3;verticalAlign=bottom;" edge="1" parent="dNskdut9mb7uznUAlSVk-79" source="dNskdut9mb7uznUAlSVk-60" target="dNskdut9mb7uznUAlSVk-58">
          <mxGeometry x="10" y="10" as="geometry">
            <Array as="points">
              <mxPoint x="75" y="55" />
            </Array>
          </mxGeometry>
        </mxCell>
        <mxCell id="dNskdut9mb7uznUAlSVk-68" style="edgeStyle=orthogonalEdgeStyle;curved=1;rounded=0;orthogonalLoop=1;jettySize=auto;html=1;entryX=0.5;entryY=0;entryDx=0;entryDy=0;startSize=3;endSize=3;verticalAlign=bottom;" edge="1" parent="dNskdut9mb7uznUAlSVk-79" source="dNskdut9mb7uznUAlSVk-60" target="dNskdut9mb7uznUAlSVk-57">
          <mxGeometry x="10" y="10" as="geometry">
            <Array as="points">
              <mxPoint x="75" y="10" />
              <mxPoint x="45" y="10" />
            </Array>
          </mxGeometry>
        </mxCell>
        <mxCell id="dNskdut9mb7uznUAlSVk-60" value="" style="ellipse;whiteSpace=wrap;html=1;aspect=fixed;" vertex="1" parent="dNskdut9mb7uznUAlSVk-79">
          <mxGeometry x="70" y="40" width="10" height="10" as="geometry" />
        </mxCell>
        <mxCell id="dNskdut9mb7uznUAlSVk-64" style="edgeStyle=orthogonalEdgeStyle;curved=1;rounded=0;orthogonalLoop=1;jettySize=auto;html=1;entryX=1;entryY=0.5;entryDx=0;entryDy=0;startSize=3;endSize=3;verticalAlign=bottom;" edge="1" parent="dNskdut9mb7uznUAlSVk-79" source="dNskdut9mb7uznUAlSVk-61" target="dNskdut9mb7uznUAlSVk-60">
          <mxGeometry x="10" y="10" as="geometry">
            <Array as="points">
              <mxPoint x="75" y="60" />
              <mxPoint x="90" y="60" />
              <mxPoint x="90" y="45" />
            </Array>
          </mxGeometry>
        </mxCell>
        <mxCell id="dNskdut9mb7uznUAlSVk-61" value="" style="ellipse;whiteSpace=wrap;html=1;aspect=fixed;" vertex="1" parent="dNskdut9mb7uznUAlSVk-79">
          <mxGeometry x="70" y="70" width="10" height="10" as="geometry" />
        </mxCell>
        <mxCell id="dNskdut9mb7uznUAlSVk-63" style="edgeStyle=orthogonalEdgeStyle;rounded=0;orthogonalLoop=1;jettySize=auto;html=1;entryX=0;entryY=0.5;entryDx=0;entryDy=0;verticalAlign=bottom;curved=1;startSize=3;endSize=3;" edge="1" parent="dNskdut9mb7uznUAlSVk-79" source="dNskdut9mb7uznUAlSVk-59" target="dNskdut9mb7uznUAlSVk-61">
          <mxGeometry x="10" y="10" as="geometry">
            <Array as="points">
              <mxPoint x="25" y="90" />
              <mxPoint x="50" y="90" />
              <mxPoint x="50" y="75" />
            </Array>
          </mxGeometry>
        </mxCell>
        <mxCell id="dNskdut9mb7uznUAlSVk-80" style="edgeStyle=orthogonalEdgeStyle;rounded=0;orthogonalLoop=1;jettySize=auto;html=1;startSize=3;endSize=3;verticalAlign=bottom;targetPerimeterSpacing=5;sourcePerimeterSpacing=5;" edge="1" parent="1" source="dNskdut9mb7uznUAlSVk-76" target="dNskdut9mb7uznUAlSVk-78">
          <mxGeometry relative="1" as="geometry">
            <mxPoint x="249" y="340" as="targetPoint" />
          </mxGeometry>
        </mxCell>
        <mxCell id="dNskdut9mb7uznUAlSVk-107" value="" style="group" vertex="1" connectable="0" parent="1">
          <mxGeometry x="420" y="20" width="140" height="180" as="geometry" />
        </mxCell>
        <mxCell id="dNskdut9mb7uznUAlSVk-82" value="Relevant Dist." style="rounded=0;whiteSpace=wrap;html=1;verticalAlign=bottom;strokeColor=none;" vertex="1" parent="dNskdut9mb7uznUAlSVk-107">
          <mxGeometry width="140" height="180" as="geometry" />
        </mxCell>
        <mxCell id="dNskdut9mb7uznUAlSVk-83" value="" style="rounded=0;whiteSpace=wrap;html=1;" vertex="1" parent="dNskdut9mb7uznUAlSVk-107">
          <mxGeometry x="70" y="40" width="40" height="110" as="geometry" />
        </mxCell>
        <mxCell id="dNskdut9mb7uznUAlSVk-84" value="" style="rounded=0;whiteSpace=wrap;html=1;" vertex="1" parent="dNskdut9mb7uznUAlSVk-107">
          <mxGeometry x="60" y="30" width="40" height="110" as="geometry" />
        </mxCell>
        <mxCell id="dNskdut9mb7uznUAlSVk-87" value="relevant latent dim." style="endArrow=classic;html=1;horizontal=0;labelPosition=center;verticalLabelPosition=top;align=center;verticalAlign=bottom;" edge="1" parent="dNskdut9mb7uznUAlSVk-107">
          <mxGeometry x="-550" y="-345" width="50" height="50" as="geometry">
            <mxPoint x="30" y="30" as="sourcePoint" />
            <mxPoint x="30" y="110" as="targetPoint" />
            <mxPoint x="-10" as="offset" />
          </mxGeometry>
        </mxCell>
        <mxCell id="dNskdut9mb7uznUAlSVk-88" value="trials" style="endArrow=classic;html=1;horizontal=1;labelPosition=center;verticalLabelPosition=top;align=center;verticalAlign=bottom;" edge="1" parent="dNskdut9mb7uznUAlSVk-107">
          <mxGeometry x="-590" y="-360" width="50" height="50" as="geometry">
            <mxPoint x="90" y="5" as="sourcePoint" />
            <mxPoint x="120" y="35" as="targetPoint" />
            <mxPoint x="15" as="offset" />
          </mxGeometry>
        </mxCell>
        <mxCell id="dNskdut9mb7uznUAlSVk-102" value="mu" style="rounded=0;whiteSpace=wrap;html=1;spacingTop=2;spacingLeft=2;spacingBottom=2;spacingRight=2;spacing=8;horizontal=0;labelPosition=center;verticalLabelPosition=middle;align=center;verticalAlign=middle;" vertex="1" parent="dNskdut9mb7uznUAlSVk-107">
          <mxGeometry x="50" y="17.5" width="20" height="112.5" as="geometry" />
        </mxCell>
        <mxCell id="dNskdut9mb7uznUAlSVk-103" value="sigma" style="rounded=0;whiteSpace=wrap;html=1;spacingTop=2;spacingLeft=2;spacingBottom=2;spacingRight=2;spacing=8;horizontal=0;verticalAlign=middle;" vertex="1" parent="dNskdut9mb7uznUAlSVk-107">
          <mxGeometry x="70" y="17.5" width="20" height="112.5" as="geometry" />
        </mxCell>
        <mxCell id="dNskdut9mb7uznUAlSVk-108" style="edgeStyle=orthogonalEdgeStyle;rounded=0;orthogonalLoop=1;jettySize=auto;html=1;startSize=3;endSize=3;sourcePerimeterSpacing=5;targetPerimeterSpacing=5;verticalAlign=bottom;" edge="1" parent="1" source="dNskdut9mb7uznUAlSVk-78" target="dNskdut9mb7uznUAlSVk-82">
          <mxGeometry relative="1" as="geometry" />
        </mxCell>
        <mxCell id="dNskdut9mb7uznUAlSVk-109" value="" style="group" vertex="1" connectable="0" parent="1">
          <mxGeometry x="420" y="470" width="140" height="180" as="geometry" />
        </mxCell>
        <mxCell id="dNskdut9mb7uznUAlSVk-110" value="Irrelevant Dist." style="rounded=0;whiteSpace=wrap;html=1;verticalAlign=bottom;strokeColor=none;" vertex="1" parent="dNskdut9mb7uznUAlSVk-109">
          <mxGeometry width="140" height="180" as="geometry" />
        </mxCell>
        <mxCell id="dNskdut9mb7uznUAlSVk-111" value="" style="rounded=0;whiteSpace=wrap;html=1;" vertex="1" parent="dNskdut9mb7uznUAlSVk-109">
          <mxGeometry x="70" y="40" width="40" height="110" as="geometry" />
        </mxCell>
        <mxCell id="dNskdut9mb7uznUAlSVk-112" value="" style="rounded=0;whiteSpace=wrap;html=1;" vertex="1" parent="dNskdut9mb7uznUAlSVk-109">
          <mxGeometry x="60" y="30" width="40" height="110" as="geometry" />
        </mxCell>
        <mxCell id="dNskdut9mb7uznUAlSVk-113" value="irrelevant latent dim." style="endArrow=classic;html=1;horizontal=0;labelPosition=center;verticalLabelPosition=top;align=center;verticalAlign=bottom;" edge="1" parent="dNskdut9mb7uznUAlSVk-109">
          <mxGeometry x="-550" y="-345" width="50" height="50" as="geometry">
            <mxPoint x="30" y="30" as="sourcePoint" />
            <mxPoint x="30" y="110" as="targetPoint" />
            <mxPoint x="-10" as="offset" />
          </mxGeometry>
        </mxCell>
        <mxCell id="dNskdut9mb7uznUAlSVk-114" value="trials" style="endArrow=classic;html=1;horizontal=1;labelPosition=center;verticalLabelPosition=top;align=center;verticalAlign=bottom;" edge="1" parent="dNskdut9mb7uznUAlSVk-109">
          <mxGeometry x="-590" y="-360" width="50" height="50" as="geometry">
            <mxPoint x="90" y="5" as="sourcePoint" />
            <mxPoint x="120" y="35" as="targetPoint" />
            <mxPoint x="15" as="offset" />
          </mxGeometry>
        </mxCell>
        <mxCell id="dNskdut9mb7uznUAlSVk-115" value="mu" style="rounded=0;whiteSpace=wrap;html=1;spacingTop=2;spacingLeft=2;spacingBottom=2;spacingRight=2;spacing=8;horizontal=0;labelPosition=center;verticalLabelPosition=middle;align=center;verticalAlign=middle;" vertex="1" parent="dNskdut9mb7uznUAlSVk-109">
          <mxGeometry x="50" y="17.5" width="20" height="112.5" as="geometry" />
        </mxCell>
        <mxCell id="dNskdut9mb7uznUAlSVk-116" value="sigma" style="rounded=0;whiteSpace=wrap;html=1;spacingTop=2;spacingLeft=2;spacingBottom=2;spacingRight=2;spacing=8;horizontal=0;verticalAlign=middle;" vertex="1" parent="dNskdut9mb7uznUAlSVk-109">
          <mxGeometry x="70" y="17.5" width="20" height="112.5" as="geometry" />
        </mxCell>
        <mxCell id="dNskdut9mb7uznUAlSVk-117" style="edgeStyle=orthogonalEdgeStyle;rounded=0;orthogonalLoop=1;jettySize=auto;html=1;startSize=3;endSize=3;sourcePerimeterSpacing=5;targetPerimeterSpacing=5;verticalAlign=bottom;" edge="1" parent="1" source="dNskdut9mb7uznUAlSVk-78" target="dNskdut9mb7uznUAlSVk-110">
          <mxGeometry relative="1" as="geometry" />
        </mxCell>
        <mxCell id="dNskdut9mb7uznUAlSVk-120" value="" style="group;verticalAlign=bottom;" vertex="1" connectable="0" parent="1">
          <mxGeometry x="620" y="69" width="60" height="81" as="geometry" />
        </mxCell>
        <mxCell id="dNskdut9mb7uznUAlSVk-119" value="Sampling" style="rounded=0;whiteSpace=wrap;html=1;verticalAlign=bottom;strokeColor=none;" vertex="1" parent="dNskdut9mb7uznUAlSVk-120">
          <mxGeometry width="60" height="81" as="geometry" />
        </mxCell>
        <mxCell id="dNskdut9mb7uznUAlSVk-163" value="" style="shape=image;verticalLabelPosition=bottom;labelBackgroundColor=#ffffff;verticalAlign=top;aspect=fixed;imageAspect=0;image=data:image/svg+xml,PHN2ZyB4bWxuczpkYz0iaHR0cDovL3B1cmwub3JnL2RjL2VsZW1lbnRzLzEuMS8iIHhtbG5zOmNjPSJodHRwOi8vY3JlYXRpdmVjb21tb25zLm9yZy9ucyMiIHhtbG5zOnJkZj0iaHR0cDovL3d3dy53My5vcmcvMTk5OS8wMi8yMi1yZGYtc3ludGF4LW5zIyIgeG1sbnM6c3ZnPSJodHRwOi8vd3d3LnczLm9yZy8yMDAwL3N2ZyIgeG1sbnM9Imh0dHA6Ly93d3cudzMub3JnLzIwMDAvc3ZnIiB4bWxuczpzb2RpcG9kaT0iaHR0cDovL3NvZGlwb2RpLnNvdXJjZWZvcmdlLm5ldC9EVEQvc29kaXBvZGktMC5kdGQiIHhtbG5zOmlua3NjYXBlPSJodHRwOi8vd3d3Lmlua3NjYXBlLm9yZy9uYW1lc3BhY2VzL2lua3NjYXBlIiB2ZXJzaW9uPSIxLjEiIHg9IjBweCIgeT0iMHB4IiB2aWV3Qm94PSIwLjc5NDk1NzUxODU3NzU3NTcgNi4yNzgyNjY0Mjk5MDExMjMgOTguNjk0MDM4MzkxMTEzMjggMTExLjkxNTg0MDE0ODkyNTc4IiBlbmFibGUtYmFja2dyb3VuZD0ibmV3IDAgMCAxMDAgMTAwIiB4bWw6c3BhY2U9InByZXNlcnZlIiBpZD0ic3ZnMTgiIHNvZGlwb2RpOmRvY25hbWU9Im5vdW5fRGljZV8xMzY5Mzkuc3ZnIiBpbmtzY2FwZTp2ZXJzaW9uPSIxLjAuMSAoYzQ5N2IwM2MsIDIwMjAtMDktMTApIiB3aWR0aD0iOTguNjk0MDM4MzkxMTEzMjgiIGhlaWdodD0iMTExLjkxNTg0MDE0ODkyNTc4Ij48bWV0YWRhdGEgaWQ9Im1ldGFkYXRhMjQiPjxyZGY6cmRmPjxjYzp3b3JrIHJkZjphYm91dD0iIj48ZGM6Zm9ybWF0PmltYWdlL3N2Zyt4bWw8L2RjOmZvcm1hdD48ZGM6dHlwZSByZGY6cmVzb3VyY2U9Imh0dHA6Ly9wdXJsLm9yZy9kYy9kY21pdHlwZS9TdGlsbEltYWdlIi8+PC9jYzp3b3JrPjwvcmRmOnJkZj48L21ldGFkYXRhPjxkZWZzIGlkPSJkZWZzMjIiLz48c29kaXBvZGk6bmFtZWR2aWV3IHBhZ2Vjb2xvcj0iI2ZmZmZmZiIgYm9yZGVyY29sb3I9IiM2NjY2NjYiIGJvcmRlcm9wYWNpdHk9IjEiIG9iamVjdHRvbGVyYW5jZT0iMTAiIGdyaWR0b2xlcmFuY2U9IjEwIiBndWlkZXRvbGVyYW5jZT0iMTAiIGlua3NjYXBlOnBhZ2VvcGFjaXR5PSIwIiBpbmtzY2FwZTpwYWdlc2hhZG93PSIyIiBpbmtzY2FwZTp3aW5kb3ctd2lkdGg9IjE1NTgiIGlua3NjYXBlOndpbmRvdy1oZWlnaHQ9Ijg5NyIgaWQ9Im5hbWVkdmlldzIwIiBzaG93Z3JpZD0iZmFsc2UiIGlua3NjYXBlOnpvb209IjUuNTIxNzQ4MyIgaW5rc2NhcGU6Y3g9IjUwIiBpbmtzY2FwZTpjeT0iODEuMTMxMTg1IiBpbmtzY2FwZTp3aW5kb3cteD0iMCIgaW5rc2NhcGU6d2luZG93LXk9IjI1IiBpbmtzY2FwZTp3aW5kb3ctbWF4aW1pemVkPSIwIiBpbmtzY2FwZTpjdXJyZW50LWxheWVyPSJzdmcxOCIvPjxnIGlkPSJnMTIiIHRyYW5zZm9ybT0ibWF0cml4KDEuNTU0NzI2NiwwLDAsMS41NTQ3MjY2LC0yNy41OTU5MDEsLTE1LjUwMDM0NCkiPjxwYXRoIGZpbGw9IiMwMDAwMDAiIGQ9Im0gNTAuMTIxLDE0LjAwOCBjIC0wLjA2MSwwIC0wLjEyMSwwIC0wLjEyMSwwIC0wLjc3OSwwIC0xLjU2LDAuMjQgLTIuMjc5LDAuNiBsIC0yNy4xOCwxNS43MiB2IDAgYyAtMC4wNjEsMC4wNjEgLTAuMDYxLDAuMDYxIC0wLjA2MSwwLjA2MSAtMC4xOCwwLjEyIC0wLjM1OSwwLjI0IC0wLjU0LDAuMzYgMCwwIC0wLjA2LDAuMDYgLTAuMTIsMC4xMTkgLTAuMTE5LDAuMTIgLTAuMjQsMC4yNCAtMC4zNTksMC4zNiAtMC4wNjEsMC4wNiAtMC4wNjEsMC4wNiAtMC4xMjEsMC4xMiAtMC4xMTksMC4xMiAtMC4yMzksMC4zIC0wLjI5OSwwLjQyIC0wLjA2MSwwLjA2IC0wLjA2MSwwLjEyIC0wLjEyMSwwLjEyIC0wLjQyLDAuNzIgLTAuNjU5LDEuNTYgLTAuNjU5LDIuMzk5IHYgMzEuNDQgYyAwLDEuNjIgMC44NCwzLjEyIDIuMjgsMy45NiBsIDI3LjE4LDE1LjcyMSBjIDEuNDM5LDAuNzc5IDMuMTE5LDAuNzc5IDQuNTU5LDAgTCA3OS40NjIsNjkuNjg3IGMgMS4zNzksLTAuODQgMi4yNzksLTIuMzQgMi4yNzksLTMuOTYgdiAtMzEuNDQgYyAwLC0wLjYgLTAuMTIxLC0xLjE5OSAtMC4zNTksLTEuNzM5IHYgMCAwIC0wLjA2MSBsIC0wLjA2MSwtMC4wNiBjIC0wLjA2MSwtMC4xOCAtMC4xOCwtMC4zNiAtMC4yNCwtMC41NCAtMC4wNjEsMCAtMC4xMTksLTAuMDYxIC0wLjExOSwtMC4xMiAtMC4xMjEsLTAuMTIgLTAuMTgyLC0wLjMgLTAuMzAxLC0wLjQyIC0wLjA2MSwtMC4wNjEgLTAuMTE5LC0wLjEyIC0wLjExOSwtMC4xMiAtMC4xMjEsLTAuMTIgLTAuMjQsLTAuMjQgLTAuMzYxLC0wLjM2IC0wLjA2MSwtMC4wNiAtMC4xMTksLTAuMTE5IC0wLjE4LC0wLjExOSAtMC4xOCwtMC4xODEgLTAuMzU5LC0wLjMwMSAtMC41MzksLTAuNDIxIHYgMCBMIDUyLjI4LDE0LjYwNyB2IDAgYyAtMC4wNTksMCAtMC4wNTksMCAtMC4wNTksMCAtMC42NiwtMC4zNTkgLTEuMzgyLC0wLjU5OSAtMi4xLC0wLjU5OSB6IG0gLTAuMDYxLDEuNjIgYyAwLjEyLDAgMC4yNCwwIDAuMzU5LDAgdiAwIGMgMC4xMjEsMCAwLjI0LDAuMDYgMC4zNjEsMC4wNiB2IDAgYyAwLjIzOSwwLjEyIDAuNDc5LDAuMTggMC42NTksMC4zIGwgMjcuMjQsMTUuNzIxIHYgMCBjIDAuMzAxLDAuMjM5IDAuNDgsMC42IDAuNzIxLDAuODk5IGwgLTI3Ljc4MSwxNi4wOCBjIC0xLjAxOSwwLjU0IC0yLjIxOSwwLjU0IC0zLjIzOSwwIEwgMjAuNTQsMzIuNjA4IGMgMC4yNCwtMC4zIDAuNDIsLTAuNjYgMC43NzksLTAuODk5IGwgOS45NjEsLTUuNzYxIDE3LjI3OSwtOS45NiBjIDAuMDYxLC0wLjA2IDAuMTgsLTAuMTIgMC4zLC0wLjE4IDAuNDIyLC0wLjEyIDAuNzgxLC0wLjE4IDEuMjAxLC0wLjE4IHogTSA1MCwyNy45MjggYyAtMS41LDAgLTIuOTM5LDAuMzU5IC0zLjk1OSwwLjk2IC0xLjA4LDAuNjYgLTEuOTIsMS42MiAtMS45MiwyLjgyIDAsMS4xOTkgMC44NCwyLjIyIDEuOTIsMi44MTkgMS4wMiwwLjY2IDIuNDU5LDEuMDIxIDMuOTU5LDEuMDIxIDEuNSwwIDIuOTQsLTAuMzYgMy45NjEsLTEuMDIxIDEuMDgsLTAuNiAxLjkyLC0xLjYyIDEuOTIsLTIuODE5IDAsLTEuMiAtMC44NCwtMi4xNiAtMS45MiwtMi44MiBDIDUyLjkzOSwyOC4yODcgNTEuNSwyNy45MjggNTAsMjcuOTI4IFogbSAwLDEuNTU5IGMgMS4yNiwwIDIuNDAxLDAuMzYgMy4xOCwwLjc4IDAuNzIxLDAuNDggMS4wOCwxLjAyIDEuMDgsMS40NCAwLDAuNDc5IC0wLjM1OSwxLjAyIC0xLjA4LDEuNSAtMC43NzksMC40MiAtMS45MiwwLjcyIC0zLjE4LDAuNzIgLTEuMjYsMCAtMi4zOTksLTAuMyAtMy4xOCwtMC43MiAtMC43NzksLTAuNDggLTEuMDgsLTEuMDIxIC0xLjA4LC0xLjUgMCwtMC40MjEgMC4zMDEsLTAuOTYgMS4wOCwtMS40NCAwLjc4LC0wLjQxOSAxLjkyLC0wLjc4IDMuMTgsLTAuNzggeiBtIDMwLjExOSw0LjU2MSBjIDAsMC4wNiAwLDAuMTIgMCwwLjIzOSB2IDMxLjQ0IGMgMCwxLjA4IC0wLjUzOSwyLjA0IC0xLjQzOSwyLjU4IGwgLTI3LjI0LDE1LjcyIGMgLTAuMTgsMC4xMiAtMC40MiwwLjE4MSAtMC42NTksMC4yNCB2IC0zMy42NiBjIDAuNiwtMC4wNiAxLjEzOSwtMC4yNCAxLjYyLC0wLjU0IHogbSAtNjAuMjM5LDAgMjcuNzIsMTYuMDIgYyAwLjQ3OSwwLjMgMS4wMjEsMC40OCAxLjYyLDAuNTQgdiAzMy42NiBjIC0wLjI0LC0wLjA2IC0wLjQ4LC0wLjEyIC0wLjY2LC0wLjI0IEwgMjEuMzIsNjguMzA4IGMgLTAuOSwtMC41NCAtMS40MzksLTEuNSAtMS40MzksLTIuNTggViAzNC4yODggQyAxOS44OCwzNC4xNjggMTkuODgsMzQuMTA3IDE5Ljg4LDM0LjA0OCBaIG0gNS42NCw3Ljk3OSBjIC0wLjQ3OSwwIC0wLjg5OSwwLjEyIC0xLjI2LDAuMzYgLTEuMDIxLDAuNTQgLTEuNSwxLjc0IC0xLjUsMyAtMC4wNiwxLjI2IDAuMzYsMi42NCAxLjE0LDMuOTYgMC43MjEsMS4zMiAxLjc0LDIuMzQgMi44MiwyLjk0IDEuMDgsMC42IDIuMzQsMC44NCAzLjM1OSwwLjIzOSAxLjA4LC0wLjYgMS41LC0xLjggMS41NjEsLTMuMDYgMCwtMS4yNiAtMC40MiwtMi42NDEgLTEuMTQxLC0zLjk2IC0wLjc3OSwtMS4zMiAtMS43OTksLTIuMzQgLTIuODc5LC0yLjk0IC0wLjY2LC0wLjM1OCAtMS40NCwtMC41OTggLTIuMSwtMC41MzkgeiBtIDAuMywxLjU2MSBjIDAuMzAxLDAuMDYgMC42NiwwLjE4IDEuMDIsMC4zNTkgMC43ODEsMC40OCAxLjYyMSwxLjI2MSAyLjI4MSwyLjQgMC42LDEuMDggMC44OTksMi4yMiAwLjg5OSwzLjEyIDAsMC44NCAtMC4zLDEuNDQgLTAuNzIsMS42MiAtMC40MiwwLjI0IC0xLjAyLDAuMjQgLTEuODAxLC0wLjE4IC0wLjc3OSwtMC40MjEgLTEuNjE5LC0xLjI2MSAtMi4yMTksLTIuNCAtMC42NiwtMS4wOCAtMC45NjEsLTIuMjIxIC0wLjk2MSwtMy4xMiAwLjA2MSwtMC44NCAwLjMwMSwtMS4zOCAwLjcyMSwtMS42MiAwLjI0MSwtMC4xMiAwLjQ4LC0wLjE3OSAwLjc4LC0wLjE3OSB6IG0gNDcuMSwxLjE5OSBjIC0wLjcyMSwtMC4wNiAtMS41LDAuMTgxIC0yLjE2LDAuNTQgLTEuMDgsMC42MDEgLTIuMSwxLjYyIC0yLjg3OSwyLjk0IC0wLjcyMSwxLjMyIC0xLjE0MSwyLjc2IC0xLjA4LDMuOTYgMCwxLjI2MSAwLjQyLDIuNDYgMS41LDMuMDYxIDEuMDIsMC42IDIuMjc5LDAuMzU5IDMuMzU5LC0wLjI0IDEuMDgsLTAuNTk5IDIuMSwtMS42MiAyLjg4MSwtMi45NCAwLjcxOSwtMS4zMiAxLjEzOSwtMi43IDEuMDc4LC0zLjk2IDAsLTEuMjYgLTAuNDIsLTIuMzk5IC0xLjUsLTMgQyA3My43Niw0NC45MDcgNzMuMzQsNDQuNzg3IDcyLjkyLDQ0Ljc4NyBaIG0gLTAuMzU5LDEuNTYxIGMgMC4yOTksMCAwLjYsMC4wNiAwLjc3OSwwLjE4IDAuNDIsMC4yNCAwLjY2LDAuNzggMC43MjEsMS42ODEgMCwwLjg0IC0wLjMwMSwxLjk3OSAtMC45NjEsMy4xMiAtMC42LDEuMDggLTEuNDM5LDEuOTIgLTIuMjE5LDIuMzQgLTAuNzgxLDAuNDIgLTEuMzgxLDAuNDc5IC0xLjgwMSwwLjI0IC0wLjQyLC0wLjI0IC0wLjcyMSwtMC43OCAtMC43MjEsLTEuNjgxIDAsLTAuODk5IDAuMzAxLC0yLjA0IDAuOSwtMy4xMiAwLjY2LC0xLjE0IDEuNSwtMS45MiAyLjI4MSwtMi4zOTkgMC4zNiwtMC4xODIgMC43MiwtMC4zMDIgMS4wMjEsLTAuMzYxIHogTSAzMi4zLDUzLjc4OCBjIC0wLjQyLDAuMDYgLTAuODQsMC4xOCAtMS4yLDAuMzU5IC0xLjA4LDAuNjAxIC0xLjUsMS44MDEgLTEuNTYsMy4wNjEgMCwxLjI2IDAuNDIsMi42NCAxLjE0LDMuOTYgMC43OCwxLjMyIDEuOCwyLjM0IDIuODgsMi45MzkgMS4wOCwwLjYwMSAyLjM0LDAuNzggMy4zNTksMC4xODEgMS4wMjEsLTAuNjAxIDEuNSwtMS43NCAxLjUsLTMgMC4wNjEsLTEuMjYxIC0wLjM1OSwtMi42NDEgLTEuMTM5LC0zLjk2IC0wLjcyMSwtMS4zMiAtMS43NCwtMi4zNCAtMi44MiwtMi45NCAtMC42NiwtMC4zNjEgLTEuNDQsLTAuNiAtMi4xNiwtMC42IHogbSAwLjM2LDEuNjIgYyAwLjMwMSwwLjA2IDAuNjAxLDAuMTggMS4wMjEsMC4zNTkgMC43OCwwLjQyIDEuNjIsMS4yNiAyLjIyLDIuMzQgMC42NiwxLjE0MSAwLjk2LDIuMjggMC45NiwzLjE4MSAtMC4wNiwwLjg0IC0wLjMsMS4zOCAtMC43MiwxLjYyIC0wLjQyLDAuMjM5IC0xLjAyLDAuMjM5IC0xLjgwMSwtMC4xODEgLTAuNzc5LC0wLjQ3OSAtMS42MTksLTEuMjYgLTIuMjc5LC0yLjM5OSAtMC42LC0xLjA4IC0wLjksLTIuMjIxIC0wLjksLTMuMTIgMCwtMC45IDAuMzAxLC0xLjQ0IDAuNzIxLC0xLjY4MSAwLjE3OCwtMC4wNTkgMC40NzgsLTAuMTE5IDAuNzc4LC0wLjExOSB6IG0gMjkuODIsNy40NCBjIC0wLjcyMSwwIC0xLjUsMC4xOCAtMi4xNiwwLjYwMSAtMS4wOCwwLjYgLTIuMSwxLjYxOSAtMi44ODEsMi45MzkgLTAuNzE5LDEuMzIgLTEuMTM5LDIuNyAtMS4wOCwzLjk2IDAsMS4yIDAuNDIsMi40IDEuNSwzIDEuMDIxLDAuNjAxIDIuMjgxLDAuNDIgMy4zNjEsLTAuMTggMS4wOCwtMC42NiAyLjEsLTEuNjggMi44NzksLTMgMC43MjEsLTEuMzIgMS4xNDEsLTIuNyAxLjA4LC0zLjkgMCwtMS4yNiAtMC40MiwtMi40NiAtMS41LC0zLjA2IC0wLjM1OSwtMC4yNCAtMC43NzksLTAuMzYgLTEuMTk5LC0wLjM2IHogbSAtMC4zNjEsMS42MiBjIDAuMzAxLC0wLjA2IDAuNjAyLDAgMC43ODEsMC4xMiAwLjQyLDAuMjQgMC42NiwwLjc4IDAuNzE5LDEuNjggMCwwLjkgLTAuMjk5LDIuMDQgLTAuOTU5LDMuMTIgLTAuNiwxLjA4IC0xLjQzOSwxLjkyIC0yLjIyMSwyLjM0IC0wLjc3OSwwLjQ4IC0xLjM3OSwwLjQ4IC0xLjc5OSwwLjI0IC0wLjQyLC0wLjI0IC0wLjcyMSwtMC43OCAtMC43MjEsLTEuNjggMCwtMC45IDAuMzAxLC0yLjA0IDAuOSwtMy4xMiAwLjY2LC0xLjA4IDEuNSwtMS45MiAyLjI3OSwtMi4zNCAwLjM2MywtMC4yNCAwLjcyMiwtMC4zNiAxLjAyMSwtMC4zNiB6IE0gMzkuMTQsNjUuNjA3IGMgLTAuNDIsMC4wNjEgLTAuODQsMC4xMiAtMS4yNiwwLjM2IC0xLjAyMSwwLjYgLTEuNSwxLjggLTEuNSwzLjA2IDAsMS4yIDAuMzU5LDIuNjQxIDEuMTQsMy45NjEgMC43OCwxLjMxOSAxLjc0LDIuMzQgMi44OCwyLjkzOSAxLjA4LDAuNiAyLjM0LDAuNzggMy4zNiwwLjE4IDEuMDIxLC0wLjYgMS41LC0xLjczOSAxLjUsLTMgMCwtMS4yNiAtMC4zNiwtMi42NCAtMS4xNCwtMy45NiAtMC43ODEsLTEuMzE5IC0xLjc0LC0yLjM0IC0yLjgyLC0yLjkzOSAtMC43MiwtMC40MiAtMS40NCwtMC42MDEgLTIuMTYsLTAuNjAxIHogbSAwLjMsMS42MjEgYyAwLjMsMC4wNjEgMC42NiwwLjEyIDEuMDIxLDAuMzYgMC43NzksMC40MiAxLjYxOSwxLjI2IDIuMjc5LDIuMzQgMC42NiwxLjE0IDAuOSwyLjI4IDAuOSwzLjEyIDAsMC45IC0wLjMwMSwxLjQ0IC0wLjcyMSwxLjY4IC0wLjM1OSwwLjI0IC0xLjAyLDAuMjQgLTEuNzM5LC0wLjIzOSAtMC43OCwtMC40MjEgLTEuNjIsLTEuMjYxIC0yLjI4LC0yLjM0MSAtMC42NiwtMS4wOCAtMC45LC0yLjIyIC0wLjksLTMuMTIgMCwtMC44OTkgMC4zMDEsLTEuNDM5IDAuNzIxLC0xLjY4IDAuMTc5LC0wLjEyIDAuNDE5LC0wLjE4IDAuNzE5LC0wLjEyIHoiIGlkPSJwYXRoMTAiLz48L2c+PC9zdmc+;" vertex="1" parent="dNskdut9mb7uznUAlSVk-120">
          <mxGeometry x="7.79" y="12" width="42.43" height="48" as="geometry" />
        </mxCell>
        <mxCell id="dNskdut9mb7uznUAlSVk-121" style="edgeStyle=orthogonalEdgeStyle;rounded=0;orthogonalLoop=1;jettySize=auto;html=1;startSize=3;endSize=3;sourcePerimeterSpacing=5;targetPerimeterSpacing=5;verticalAlign=bottom;" edge="1" parent="1" source="dNskdut9mb7uznUAlSVk-82" target="dNskdut9mb7uznUAlSVk-119">
          <mxGeometry relative="1" as="geometry" />
        </mxCell>
        <mxCell id="dNskdut9mb7uznUAlSVk-127" style="edgeStyle=orthogonalEdgeStyle;rounded=0;orthogonalLoop=1;jettySize=auto;html=1;startSize=3;endSize=3;sourcePerimeterSpacing=5;targetPerimeterSpacing=5;verticalAlign=bottom;" edge="1" parent="1" source="dNskdut9mb7uznUAlSVk-110" target="dNskdut9mb7uznUAlSVk-165">
          <mxGeometry relative="1" as="geometry">
            <mxPoint x="615" y="560" as="targetPoint" />
          </mxGeometry>
        </mxCell>
        <mxCell id="dNskdut9mb7uznUAlSVk-145" style="edgeStyle=orthogonalEdgeStyle;rounded=0;orthogonalLoop=1;jettySize=auto;html=1;startSize=3;endSize=3;sourcePerimeterSpacing=5;targetPerimeterSpacing=5;verticalAlign=bottom;" edge="1" parent="1" source="dNskdut9mb7uznUAlSVk-165" target="dNskdut9mb7uznUAlSVk-137">
          <mxGeometry relative="1" as="geometry">
            <mxPoint x="685" y="560" as="sourcePoint" />
          </mxGeometry>
        </mxCell>
        <mxCell id="dNskdut9mb7uznUAlSVk-153" style="edgeStyle=orthogonalEdgeStyle;rounded=0;orthogonalLoop=1;jettySize=auto;html=1;startSize=3;endSize=3;sourcePerimeterSpacing=5;targetPerimeterSpacing=5;verticalAlign=bottom;" edge="1" parent="1" source="dNskdut9mb7uznUAlSVk-119" target="dNskdut9mb7uznUAlSVk-156">
          <mxGeometry relative="1" as="geometry">
            <mxPoint x="725" y="109.5" as="targetPoint" />
          </mxGeometry>
        </mxCell>
        <mxCell id="dNskdut9mb7uznUAlSVk-154" value="" style="group" vertex="1" connectable="0" parent="1">
          <mxGeometry x="730" y="477" width="130" height="166" as="geometry" />
        </mxCell>
        <mxCell id="dNskdut9mb7uznUAlSVk-137" value="" style="rounded=0;whiteSpace=wrap;html=1;verticalAlign=bottom;strokeColor=none;" vertex="1" parent="dNskdut9mb7uznUAlSVk-154">
          <mxGeometry width="130" height="166" as="geometry" />
        </mxCell>
        <mxCell id="dNskdut9mb7uznUAlSVk-138" value="" style="rounded=0;whiteSpace=wrap;html=1;" vertex="1" parent="dNskdut9mb7uznUAlSVk-154">
          <mxGeometry x="70" y="40" width="20" height="110" as="geometry" />
        </mxCell>
        <mxCell id="dNskdut9mb7uznUAlSVk-139" value="" style="rounded=0;whiteSpace=wrap;html=1;" vertex="1" parent="dNskdut9mb7uznUAlSVk-154">
          <mxGeometry x="60" y="30" width="20" height="110" as="geometry" />
        </mxCell>
        <mxCell id="dNskdut9mb7uznUAlSVk-140" value="irrelevant dynamics" style="endArrow=classic;html=1;horizontal=0;labelPosition=center;verticalLabelPosition=top;align=center;verticalAlign=bottom;" edge="1" parent="dNskdut9mb7uznUAlSVk-154">
          <mxGeometry x="-550" y="-345" width="50" height="50" as="geometry">
            <mxPoint x="30" y="30" as="sourcePoint" />
            <mxPoint x="30" y="110" as="targetPoint" />
            <mxPoint x="-10" as="offset" />
          </mxGeometry>
        </mxCell>
        <mxCell id="dNskdut9mb7uznUAlSVk-141" value="trials" style="endArrow=classic;html=1;horizontal=1;labelPosition=center;verticalLabelPosition=top;align=center;verticalAlign=bottom;" edge="1" parent="dNskdut9mb7uznUAlSVk-154">
          <mxGeometry x="-600" y="-355" width="50" height="50" as="geometry">
            <mxPoint x="80" y="10" as="sourcePoint" />
            <mxPoint x="110" y="40" as="targetPoint" />
            <mxPoint x="15" as="offset" />
          </mxGeometry>
        </mxCell>
        <mxCell id="dNskdut9mb7uznUAlSVk-142" value="&lt;span style=&quot;background-color: rgb(248 , 249 , 250)&quot;&gt;Irr. Initial Condition&lt;/span&gt;" style="rounded=0;whiteSpace=wrap;html=1;spacingTop=2;spacingLeft=2;spacingBottom=2;spacingRight=2;spacing=3;horizontal=0;labelPosition=center;verticalLabelPosition=middle;align=center;verticalAlign=middle;" vertex="1" parent="dNskdut9mb7uznUAlSVk-154">
          <mxGeometry x="50" y="17.5" width="20" height="112.5" as="geometry" />
        </mxCell>
        <mxCell id="dNskdut9mb7uznUAlSVk-155" value="" style="group" vertex="1" connectable="0" parent="1">
          <mxGeometry x="730" y="26.5" width="130" height="166" as="geometry" />
        </mxCell>
        <mxCell id="dNskdut9mb7uznUAlSVk-156" value="" style="rounded=0;whiteSpace=wrap;html=1;verticalAlign=bottom;strokeColor=none;" vertex="1" parent="dNskdut9mb7uznUAlSVk-155">
          <mxGeometry width="130" height="166" as="geometry" />
        </mxCell>
        <mxCell id="dNskdut9mb7uznUAlSVk-157" value="" style="rounded=0;whiteSpace=wrap;html=1;" vertex="1" parent="dNskdut9mb7uznUAlSVk-155">
          <mxGeometry x="70" y="40" width="20" height="110" as="geometry" />
        </mxCell>
        <mxCell id="dNskdut9mb7uznUAlSVk-158" value="" style="rounded=0;whiteSpace=wrap;html=1;" vertex="1" parent="dNskdut9mb7uznUAlSVk-155">
          <mxGeometry x="60" y="30" width="20" height="110" as="geometry" />
        </mxCell>
        <mxCell id="dNskdut9mb7uznUAlSVk-159" value="relevant dynamics" style="endArrow=classic;html=1;horizontal=0;labelPosition=center;verticalLabelPosition=top;align=center;verticalAlign=bottom;" edge="1" parent="dNskdut9mb7uznUAlSVk-155">
          <mxGeometry x="-550" y="-345" width="50" height="50" as="geometry">
            <mxPoint x="30" y="30" as="sourcePoint" />
            <mxPoint x="30" y="110" as="targetPoint" />
            <mxPoint x="-10" as="offset" />
          </mxGeometry>
        </mxCell>
        <mxCell id="dNskdut9mb7uznUAlSVk-160" value="trials" style="endArrow=classic;html=1;horizontal=1;labelPosition=center;verticalLabelPosition=top;align=center;verticalAlign=bottom;" edge="1" parent="dNskdut9mb7uznUAlSVk-155">
          <mxGeometry x="-600" y="-355" width="50" height="50" as="geometry">
            <mxPoint x="80" y="10" as="sourcePoint" />
            <mxPoint x="110" y="40" as="targetPoint" />
            <mxPoint x="15" as="offset" />
          </mxGeometry>
        </mxCell>
        <mxCell id="dNskdut9mb7uznUAlSVk-161" value="&lt;span style=&quot;background-color: rgb(248 , 249 , 250)&quot;&gt;Rel. Initial Condition&lt;/span&gt;" style="rounded=0;whiteSpace=wrap;html=1;spacingTop=2;spacingLeft=2;spacingBottom=2;spacingRight=2;spacing=1;horizontal=0;labelPosition=center;verticalLabelPosition=middle;align=center;verticalAlign=middle;" vertex="1" parent="dNskdut9mb7uznUAlSVk-155">
          <mxGeometry x="50" y="17.5" width="20" height="112.5" as="geometry" />
        </mxCell>
        <mxCell id="dNskdut9mb7uznUAlSVk-164" value="" style="group;verticalAlign=bottom;" vertex="1" connectable="0" parent="1">
          <mxGeometry x="620" y="519.5" width="60" height="81" as="geometry" />
        </mxCell>
        <mxCell id="dNskdut9mb7uznUAlSVk-165" value="Sampling" style="rounded=0;whiteSpace=wrap;html=1;verticalAlign=bottom;strokeColor=none;" vertex="1" parent="dNskdut9mb7uznUAlSVk-164">
          <mxGeometry width="60" height="81" as="geometry" />
        </mxCell>
        <mxCell id="dNskdut9mb7uznUAlSVk-166" value="" style="shape=image;verticalLabelPosition=bottom;labelBackgroundColor=#ffffff;verticalAlign=top;aspect=fixed;imageAspect=0;image=data:image/svg+xml,PHN2ZyB4bWxuczpkYz0iaHR0cDovL3B1cmwub3JnL2RjL2VsZW1lbnRzLzEuMS8iIHhtbG5zOmNjPSJodHRwOi8vY3JlYXRpdmVjb21tb25zLm9yZy9ucyMiIHhtbG5zOnJkZj0iaHR0cDovL3d3dy53My5vcmcvMTk5OS8wMi8yMi1yZGYtc3ludGF4LW5zIyIgeG1sbnM6c3ZnPSJodHRwOi8vd3d3LnczLm9yZy8yMDAwL3N2ZyIgeG1sbnM9Imh0dHA6Ly93d3cudzMub3JnLzIwMDAvc3ZnIiB4bWxuczpzb2RpcG9kaT0iaHR0cDovL3NvZGlwb2RpLnNvdXJjZWZvcmdlLm5ldC9EVEQvc29kaXBvZGktMC5kdGQiIHhtbG5zOmlua3NjYXBlPSJodHRwOi8vd3d3Lmlua3NjYXBlLm9yZy9uYW1lc3BhY2VzL2lua3NjYXBlIiB2ZXJzaW9uPSIxLjEiIHg9IjBweCIgeT0iMHB4IiB2aWV3Qm94PSIwLjc5NDk1NzUxODU3NzU3NTcgNi4yNzgyNjY0Mjk5MDExMjMgOTguNjk0MDM4MzkxMTEzMjggMTExLjkxNTg0MDE0ODkyNTc4IiBlbmFibGUtYmFja2dyb3VuZD0ibmV3IDAgMCAxMDAgMTAwIiB4bWw6c3BhY2U9InByZXNlcnZlIiBpZD0ic3ZnMTgiIHNvZGlwb2RpOmRvY25hbWU9Im5vdW5fRGljZV8xMzY5Mzkuc3ZnIiBpbmtzY2FwZTp2ZXJzaW9uPSIxLjAuMSAoYzQ5N2IwM2MsIDIwMjAtMDktMTApIiB3aWR0aD0iOTguNjk0MDM4MzkxMTEzMjgiIGhlaWdodD0iMTExLjkxNTg0MDE0ODkyNTc4Ij48bWV0YWRhdGEgaWQ9Im1ldGFkYXRhMjQiPjxyZGY6cmRmPjxjYzp3b3JrIHJkZjphYm91dD0iIj48ZGM6Zm9ybWF0PmltYWdlL3N2Zyt4bWw8L2RjOmZvcm1hdD48ZGM6dHlwZSByZGY6cmVzb3VyY2U9Imh0dHA6Ly9wdXJsLm9yZy9kYy9kY21pdHlwZS9TdGlsbEltYWdlIi8+PC9jYzp3b3JrPjwvcmRmOnJkZj48L21ldGFkYXRhPjxkZWZzIGlkPSJkZWZzMjIiLz48c29kaXBvZGk6bmFtZWR2aWV3IHBhZ2Vjb2xvcj0iI2ZmZmZmZiIgYm9yZGVyY29sb3I9IiM2NjY2NjYiIGJvcmRlcm9wYWNpdHk9IjEiIG9iamVjdHRvbGVyYW5jZT0iMTAiIGdyaWR0b2xlcmFuY2U9IjEwIiBndWlkZXRvbGVyYW5jZT0iMTAiIGlua3NjYXBlOnBhZ2VvcGFjaXR5PSIwIiBpbmtzY2FwZTpwYWdlc2hhZG93PSIyIiBpbmtzY2FwZTp3aW5kb3ctd2lkdGg9IjE1NTgiIGlua3NjYXBlOndpbmRvdy1oZWlnaHQ9Ijg5NyIgaWQ9Im5hbWVkdmlldzIwIiBzaG93Z3JpZD0iZmFsc2UiIGlua3NjYXBlOnpvb209IjUuNTIxNzQ4MyIgaW5rc2NhcGU6Y3g9IjUwIiBpbmtzY2FwZTpjeT0iODEuMTMxMTg1IiBpbmtzY2FwZTp3aW5kb3cteD0iMCIgaW5rc2NhcGU6d2luZG93LXk9IjI1IiBpbmtzY2FwZTp3aW5kb3ctbWF4aW1pemVkPSIwIiBpbmtzY2FwZTpjdXJyZW50LWxheWVyPSJzdmcxOCIvPjxnIGlkPSJnMTIiIHRyYW5zZm9ybT0ibWF0cml4KDEuNTU0NzI2NiwwLDAsMS41NTQ3MjY2LC0yNy41OTU5MDEsLTE1LjUwMDM0NCkiPjxwYXRoIGZpbGw9IiMwMDAwMDAiIGQ9Im0gNTAuMTIxLDE0LjAwOCBjIC0wLjA2MSwwIC0wLjEyMSwwIC0wLjEyMSwwIC0wLjc3OSwwIC0xLjU2LDAuMjQgLTIuMjc5LDAuNiBsIC0yNy4xOCwxNS43MiB2IDAgYyAtMC4wNjEsMC4wNjEgLTAuMDYxLDAuMDYxIC0wLjA2MSwwLjA2MSAtMC4xOCwwLjEyIC0wLjM1OSwwLjI0IC0wLjU0LDAuMzYgMCwwIC0wLjA2LDAuMDYgLTAuMTIsMC4xMTkgLTAuMTE5LDAuMTIgLTAuMjQsMC4yNCAtMC4zNTksMC4zNiAtMC4wNjEsMC4wNiAtMC4wNjEsMC4wNiAtMC4xMjEsMC4xMiAtMC4xMTksMC4xMiAtMC4yMzksMC4zIC0wLjI5OSwwLjQyIC0wLjA2MSwwLjA2IC0wLjA2MSwwLjEyIC0wLjEyMSwwLjEyIC0wLjQyLDAuNzIgLTAuNjU5LDEuNTYgLTAuNjU5LDIuMzk5IHYgMzEuNDQgYyAwLDEuNjIgMC44NCwzLjEyIDIuMjgsMy45NiBsIDI3LjE4LDE1LjcyMSBjIDEuNDM5LDAuNzc5IDMuMTE5LDAuNzc5IDQuNTU5LDAgTCA3OS40NjIsNjkuNjg3IGMgMS4zNzksLTAuODQgMi4yNzksLTIuMzQgMi4yNzksLTMuOTYgdiAtMzEuNDQgYyAwLC0wLjYgLTAuMTIxLC0xLjE5OSAtMC4zNTksLTEuNzM5IHYgMCAwIC0wLjA2MSBsIC0wLjA2MSwtMC4wNiBjIC0wLjA2MSwtMC4xOCAtMC4xOCwtMC4zNiAtMC4yNCwtMC41NCAtMC4wNjEsMCAtMC4xMTksLTAuMDYxIC0wLjExOSwtMC4xMiAtMC4xMjEsLTAuMTIgLTAuMTgyLC0wLjMgLTAuMzAxLC0wLjQyIC0wLjA2MSwtMC4wNjEgLTAuMTE5LC0wLjEyIC0wLjExOSwtMC4xMiAtMC4xMjEsLTAuMTIgLTAuMjQsLTAuMjQgLTAuMzYxLC0wLjM2IC0wLjA2MSwtMC4wNiAtMC4xMTksLTAuMTE5IC0wLjE4LC0wLjExOSAtMC4xOCwtMC4xODEgLTAuMzU5LC0wLjMwMSAtMC41MzksLTAuNDIxIHYgMCBMIDUyLjI4LDE0LjYwNyB2IDAgYyAtMC4wNTksMCAtMC4wNTksMCAtMC4wNTksMCAtMC42NiwtMC4zNTkgLTEuMzgyLC0wLjU5OSAtMi4xLC0wLjU5OSB6IG0gLTAuMDYxLDEuNjIgYyAwLjEyLDAgMC4yNCwwIDAuMzU5LDAgdiAwIGMgMC4xMjEsMCAwLjI0LDAuMDYgMC4zNjEsMC4wNiB2IDAgYyAwLjIzOSwwLjEyIDAuNDc5LDAuMTggMC42NTksMC4zIGwgMjcuMjQsMTUuNzIxIHYgMCBjIDAuMzAxLDAuMjM5IDAuNDgsMC42IDAuNzIxLDAuODk5IGwgLTI3Ljc4MSwxNi4wOCBjIC0xLjAxOSwwLjU0IC0yLjIxOSwwLjU0IC0zLjIzOSwwIEwgMjAuNTQsMzIuNjA4IGMgMC4yNCwtMC4zIDAuNDIsLTAuNjYgMC43NzksLTAuODk5IGwgOS45NjEsLTUuNzYxIDE3LjI3OSwtOS45NiBjIDAuMDYxLC0wLjA2IDAuMTgsLTAuMTIgMC4zLC0wLjE4IDAuNDIyLC0wLjEyIDAuNzgxLC0wLjE4IDEuMjAxLC0wLjE4IHogTSA1MCwyNy45MjggYyAtMS41LDAgLTIuOTM5LDAuMzU5IC0zLjk1OSwwLjk2IC0xLjA4LDAuNjYgLTEuOTIsMS42MiAtMS45MiwyLjgyIDAsMS4xOTkgMC44NCwyLjIyIDEuOTIsMi44MTkgMS4wMiwwLjY2IDIuNDU5LDEuMDIxIDMuOTU5LDEuMDIxIDEuNSwwIDIuOTQsLTAuMzYgMy45NjEsLTEuMDIxIDEuMDgsLTAuNiAxLjkyLC0xLjYyIDEuOTIsLTIuODE5IDAsLTEuMiAtMC44NCwtMi4xNiAtMS45MiwtMi44MiBDIDUyLjkzOSwyOC4yODcgNTEuNSwyNy45MjggNTAsMjcuOTI4IFogbSAwLDEuNTU5IGMgMS4yNiwwIDIuNDAxLDAuMzYgMy4xOCwwLjc4IDAuNzIxLDAuNDggMS4wOCwxLjAyIDEuMDgsMS40NCAwLDAuNDc5IC0wLjM1OSwxLjAyIC0xLjA4LDEuNSAtMC43NzksMC40MiAtMS45MiwwLjcyIC0zLjE4LDAuNzIgLTEuMjYsMCAtMi4zOTksLTAuMyAtMy4xOCwtMC43MiAtMC43NzksLTAuNDggLTEuMDgsLTEuMDIxIC0xLjA4LC0xLjUgMCwtMC40MjEgMC4zMDEsLTAuOTYgMS4wOCwtMS40NCAwLjc4LC0wLjQxOSAxLjkyLC0wLjc4IDMuMTgsLTAuNzggeiBtIDMwLjExOSw0LjU2MSBjIDAsMC4wNiAwLDAuMTIgMCwwLjIzOSB2IDMxLjQ0IGMgMCwxLjA4IC0wLjUzOSwyLjA0IC0xLjQzOSwyLjU4IGwgLTI3LjI0LDE1LjcyIGMgLTAuMTgsMC4xMiAtMC40MiwwLjE4MSAtMC42NTksMC4yNCB2IC0zMy42NiBjIDAuNiwtMC4wNiAxLjEzOSwtMC4yNCAxLjYyLC0wLjU0IHogbSAtNjAuMjM5LDAgMjcuNzIsMTYuMDIgYyAwLjQ3OSwwLjMgMS4wMjEsMC40OCAxLjYyLDAuNTQgdiAzMy42NiBjIC0wLjI0LC0wLjA2IC0wLjQ4LC0wLjEyIC0wLjY2LC0wLjI0IEwgMjEuMzIsNjguMzA4IGMgLTAuOSwtMC41NCAtMS40MzksLTEuNSAtMS40MzksLTIuNTggViAzNC4yODggQyAxOS44OCwzNC4xNjggMTkuODgsMzQuMTA3IDE5Ljg4LDM0LjA0OCBaIG0gNS42NCw3Ljk3OSBjIC0wLjQ3OSwwIC0wLjg5OSwwLjEyIC0xLjI2LDAuMzYgLTEuMDIxLDAuNTQgLTEuNSwxLjc0IC0xLjUsMyAtMC4wNiwxLjI2IDAuMzYsMi42NCAxLjE0LDMuOTYgMC43MjEsMS4zMiAxLjc0LDIuMzQgMi44MiwyLjk0IDEuMDgsMC42IDIuMzQsMC44NCAzLjM1OSwwLjIzOSAxLjA4LC0wLjYgMS41LC0xLjggMS41NjEsLTMuMDYgMCwtMS4yNiAtMC40MiwtMi42NDEgLTEuMTQxLC0zLjk2IC0wLjc3OSwtMS4zMiAtMS43OTksLTIuMzQgLTIuODc5LC0yLjk0IC0wLjY2LC0wLjM1OCAtMS40NCwtMC41OTggLTIuMSwtMC41MzkgeiBtIDAuMywxLjU2MSBjIDAuMzAxLDAuMDYgMC42NiwwLjE4IDEuMDIsMC4zNTkgMC43ODEsMC40OCAxLjYyMSwxLjI2MSAyLjI4MSwyLjQgMC42LDEuMDggMC44OTksMi4yMiAwLjg5OSwzLjEyIDAsMC44NCAtMC4zLDEuNDQgLTAuNzIsMS42MiAtMC40MiwwLjI0IC0xLjAyLDAuMjQgLTEuODAxLC0wLjE4IC0wLjc3OSwtMC40MjEgLTEuNjE5LC0xLjI2MSAtMi4yMTksLTIuNCAtMC42NiwtMS4wOCAtMC45NjEsLTIuMjIxIC0wLjk2MSwtMy4xMiAwLjA2MSwtMC44NCAwLjMwMSwtMS4zOCAwLjcyMSwtMS42MiAwLjI0MSwtMC4xMiAwLjQ4LC0wLjE3OSAwLjc4LC0wLjE3OSB6IG0gNDcuMSwxLjE5OSBjIC0wLjcyMSwtMC4wNiAtMS41LDAuMTgxIC0yLjE2LDAuNTQgLTEuMDgsMC42MDEgLTIuMSwxLjYyIC0yLjg3OSwyLjk0IC0wLjcyMSwxLjMyIC0xLjE0MSwyLjc2IC0xLjA4LDMuOTYgMCwxLjI2MSAwLjQyLDIuNDYgMS41LDMuMDYxIDEuMDIsMC42IDIuMjc5LDAuMzU5IDMuMzU5LC0wLjI0IDEuMDgsLTAuNTk5IDIuMSwtMS42MiAyLjg4MSwtMi45NCAwLjcxOSwtMS4zMiAxLjEzOSwtMi43IDEuMDc4LC0zLjk2IDAsLTEuMjYgLTAuNDIsLTIuMzk5IC0xLjUsLTMgQyA3My43Niw0NC45MDcgNzMuMzQsNDQuNzg3IDcyLjkyLDQ0Ljc4NyBaIG0gLTAuMzU5LDEuNTYxIGMgMC4yOTksMCAwLjYsMC4wNiAwLjc3OSwwLjE4IDAuNDIsMC4yNCAwLjY2LDAuNzggMC43MjEsMS42ODEgMCwwLjg0IC0wLjMwMSwxLjk3OSAtMC45NjEsMy4xMiAtMC42LDEuMDggLTEuNDM5LDEuOTIgLTIuMjE5LDIuMzQgLTAuNzgxLDAuNDIgLTEuMzgxLDAuNDc5IC0xLjgwMSwwLjI0IC0wLjQyLC0wLjI0IC0wLjcyMSwtMC43OCAtMC43MjEsLTEuNjgxIDAsLTAuODk5IDAuMzAxLC0yLjA0IDAuOSwtMy4xMiAwLjY2LC0xLjE0IDEuNSwtMS45MiAyLjI4MSwtMi4zOTkgMC4zNiwtMC4xODIgMC43MiwtMC4zMDIgMS4wMjEsLTAuMzYxIHogTSAzMi4zLDUzLjc4OCBjIC0wLjQyLDAuMDYgLTAuODQsMC4xOCAtMS4yLDAuMzU5IC0xLjA4LDAuNjAxIC0xLjUsMS44MDEgLTEuNTYsMy4wNjEgMCwxLjI2IDAuNDIsMi42NCAxLjE0LDMuOTYgMC43OCwxLjMyIDEuOCwyLjM0IDIuODgsMi45MzkgMS4wOCwwLjYwMSAyLjM0LDAuNzggMy4zNTksMC4xODEgMS4wMjEsLTAuNjAxIDEuNSwtMS43NCAxLjUsLTMgMC4wNjEsLTEuMjYxIC0wLjM1OSwtMi42NDEgLTEuMTM5LC0zLjk2IC0wLjcyMSwtMS4zMiAtMS43NCwtMi4zNCAtMi44MiwtMi45NCAtMC42NiwtMC4zNjEgLTEuNDQsLTAuNiAtMi4xNiwtMC42IHogbSAwLjM2LDEuNjIgYyAwLjMwMSwwLjA2IDAuNjAxLDAuMTggMS4wMjEsMC4zNTkgMC43OCwwLjQyIDEuNjIsMS4yNiAyLjIyLDIuMzQgMC42NiwxLjE0MSAwLjk2LDIuMjggMC45NiwzLjE4MSAtMC4wNiwwLjg0IC0wLjMsMS4zOCAtMC43MiwxLjYyIC0wLjQyLDAuMjM5IC0xLjAyLDAuMjM5IC0xLjgwMSwtMC4xODEgLTAuNzc5LC0wLjQ3OSAtMS42MTksLTEuMjYgLTIuMjc5LC0yLjM5OSAtMC42LC0xLjA4IC0wLjksLTIuMjIxIC0wLjksLTMuMTIgMCwtMC45IDAuMzAxLC0xLjQ0IDAuNzIxLC0xLjY4MSAwLjE3OCwtMC4wNTkgMC40NzgsLTAuMTE5IDAuNzc4LC0wLjExOSB6IG0gMjkuODIsNy40NCBjIC0wLjcyMSwwIC0xLjUsMC4xOCAtMi4xNiwwLjYwMSAtMS4wOCwwLjYgLTIuMSwxLjYxOSAtMi44ODEsMi45MzkgLTAuNzE5LDEuMzIgLTEuMTM5LDIuNyAtMS4wOCwzLjk2IDAsMS4yIDAuNDIsMi40IDEuNSwzIDEuMDIxLDAuNjAxIDIuMjgxLDAuNDIgMy4zNjEsLTAuMTggMS4wOCwtMC42NiAyLjEsLTEuNjggMi44NzksLTMgMC43MjEsLTEuMzIgMS4xNDEsLTIuNyAxLjA4LC0zLjkgMCwtMS4yNiAtMC40MiwtMi40NiAtMS41LC0zLjA2IC0wLjM1OSwtMC4yNCAtMC43NzksLTAuMzYgLTEuMTk5LC0wLjM2IHogbSAtMC4zNjEsMS42MiBjIDAuMzAxLC0wLjA2IDAuNjAyLDAgMC43ODEsMC4xMiAwLjQyLDAuMjQgMC42NiwwLjc4IDAuNzE5LDEuNjggMCwwLjkgLTAuMjk5LDIuMDQgLTAuOTU5LDMuMTIgLTAuNiwxLjA4IC0xLjQzOSwxLjkyIC0yLjIyMSwyLjM0IC0wLjc3OSwwLjQ4IC0xLjM3OSwwLjQ4IC0xLjc5OSwwLjI0IC0wLjQyLC0wLjI0IC0wLjcyMSwtMC43OCAtMC43MjEsLTEuNjggMCwtMC45IDAuMzAxLC0yLjA0IDAuOSwtMy4xMiAwLjY2LC0xLjA4IDEuNSwtMS45MiAyLjI3OSwtMi4zNCAwLjM2MywtMC4yNCAwLjcyMiwtMC4zNiAxLjAyMSwtMC4zNiB6IE0gMzkuMTQsNjUuNjA3IGMgLTAuNDIsMC4wNjEgLTAuODQsMC4xMiAtMS4yNiwwLjM2IC0xLjAyMSwwLjYgLTEuNSwxLjggLTEuNSwzLjA2IDAsMS4yIDAuMzU5LDIuNjQxIDEuMTQsMy45NjEgMC43OCwxLjMxOSAxLjc0LDIuMzQgMi44OCwyLjkzOSAxLjA4LDAuNiAyLjM0LDAuNzggMy4zNiwwLjE4IDEuMDIxLC0wLjYgMS41LC0xLjczOSAxLjUsLTMgMCwtMS4yNiAtMC4zNiwtMi42NCAtMS4xNCwtMy45NiAtMC43ODEsLTEuMzE5IC0xLjc0LC0yLjM0IC0yLjgyLC0yLjkzOSAtMC43MiwtMC40MiAtMS40NCwtMC42MDEgLTIuMTYsLTAuNjAxIHogbSAwLjMsMS42MjEgYyAwLjMsMC4wNjEgMC42NiwwLjEyIDEuMDIxLDAuMzYgMC43NzksMC40MiAxLjYxOSwxLjI2IDIuMjc5LDIuMzQgMC42NiwxLjE0IDAuOSwyLjI4IDAuOSwzLjEyIDAsMC45IC0wLjMwMSwxLjQ0IC0wLjcyMSwxLjY4IC0wLjM1OSwwLjI0IC0xLjAyLDAuMjQgLTEuNzM5LC0wLjIzOSAtMC43OCwtMC40MjEgLTEuNjIsLTEuMjYxIC0yLjI4LC0yLjM0MSAtMC42NiwtMS4wOCAtMC45LC0yLjIyIC0wLjksLTMuMTIgMCwtMC44OTkgMC4zMDEsLTEuNDM5IDAuNzIxLC0xLjY4IDAuMTc5LC0wLjEyIDAuNDE5LC0wLjE4IDAuNzE5LC0wLjEyIHoiIGlkPSJwYXRoMTAiLz48L2c+PC9zdmc+;" vertex="1" parent="dNskdut9mb7uznUAlSVk-164">
          <mxGeometry x="7.79" y="12" width="42.43" height="48" as="geometry" />
        </mxCell>
        <mxCell id="dNskdut9mb7uznUAlSVk-168" value="" style="group" vertex="1" connectable="0" parent="1">
          <mxGeometry x="920" y="49.5" width="100" height="120" as="geometry" />
        </mxCell>
        <mxCell id="dNskdut9mb7uznUAlSVk-169" value="Relevant RNN" style="rounded=0;whiteSpace=wrap;html=1;verticalAlign=bottom;strokeColor=none;" vertex="1" parent="dNskdut9mb7uznUAlSVk-168">
          <mxGeometry width="100" height="120" as="geometry" />
        </mxCell>
        <mxCell id="dNskdut9mb7uznUAlSVk-170" value="" style="ellipse;whiteSpace=wrap;html=1;aspect=fixed;" vertex="1" parent="dNskdut9mb7uznUAlSVk-168">
          <mxGeometry x="10" y="40" width="10" height="10" as="geometry" />
        </mxCell>
        <mxCell id="dNskdut9mb7uznUAlSVk-171" style="edgeStyle=orthogonalEdgeStyle;curved=1;rounded=0;orthogonalLoop=1;jettySize=auto;html=1;entryX=0.5;entryY=0;entryDx=0;entryDy=0;startSize=3;endSize=3;verticalAlign=bottom;" edge="1" parent="dNskdut9mb7uznUAlSVk-168" source="dNskdut9mb7uznUAlSVk-172" target="dNskdut9mb7uznUAlSVk-170">
          <mxGeometry x="10" y="10" as="geometry">
            <Array as="points">
              <mxPoint x="15" y="25" />
            </Array>
          </mxGeometry>
        </mxCell>
        <mxCell id="dNskdut9mb7uznUAlSVk-172" value="" style="ellipse;whiteSpace=wrap;html=1;aspect=fixed;" vertex="1" parent="dNskdut9mb7uznUAlSVk-168">
          <mxGeometry x="30" y="20" width="10" height="10" as="geometry" />
        </mxCell>
        <mxCell id="dNskdut9mb7uznUAlSVk-173" style="edgeStyle=orthogonalEdgeStyle;curved=1;rounded=0;orthogonalLoop=1;jettySize=auto;html=1;entryX=1;entryY=0.5;entryDx=0;entryDy=0;startSize=3;endSize=3;verticalAlign=bottom;" edge="1" parent="dNskdut9mb7uznUAlSVk-168" source="dNskdut9mb7uznUAlSVk-174" target="dNskdut9mb7uznUAlSVk-172">
          <mxGeometry x="10" y="10" as="geometry">
            <Array as="points">
              <mxPoint x="45" y="40" />
              <mxPoint x="60" y="40" />
              <mxPoint x="60" y="25" />
            </Array>
          </mxGeometry>
        </mxCell>
        <mxCell id="dNskdut9mb7uznUAlSVk-174" value="" style="ellipse;whiteSpace=wrap;html=1;aspect=fixed;" vertex="1" parent="dNskdut9mb7uznUAlSVk-168">
          <mxGeometry x="40" y="50" width="10" height="10" as="geometry" />
        </mxCell>
        <mxCell id="dNskdut9mb7uznUAlSVk-175" style="edgeStyle=orthogonalEdgeStyle;curved=1;rounded=0;orthogonalLoop=1;jettySize=auto;html=1;entryX=0;entryY=0.5;entryDx=0;entryDy=0;startSize=3;endSize=3;verticalAlign=bottom;" edge="1" parent="dNskdut9mb7uznUAlSVk-168" source="dNskdut9mb7uznUAlSVk-170" target="dNskdut9mb7uznUAlSVk-174">
          <mxGeometry x="10" y="10" as="geometry">
            <Array as="points">
              <mxPoint x="15" y="55" />
            </Array>
          </mxGeometry>
        </mxCell>
        <mxCell id="dNskdut9mb7uznUAlSVk-176" value="" style="ellipse;whiteSpace=wrap;html=1;aspect=fixed;" vertex="1" parent="dNskdut9mb7uznUAlSVk-168">
          <mxGeometry x="30" y="80" width="10" height="10" as="geometry" />
        </mxCell>
        <mxCell id="dNskdut9mb7uznUAlSVk-177" style="edgeStyle=orthogonalEdgeStyle;curved=1;rounded=0;orthogonalLoop=1;jettySize=auto;html=1;entryX=0;entryY=0.5;entryDx=0;entryDy=0;startSize=3;endSize=3;verticalAlign=bottom;" edge="1" parent="dNskdut9mb7uznUAlSVk-168" source="dNskdut9mb7uznUAlSVk-170" target="dNskdut9mb7uznUAlSVk-176">
          <mxGeometry x="10" y="10" as="geometry">
            <Array as="points">
              <mxPoint x="10" y="85" />
            </Array>
          </mxGeometry>
        </mxCell>
        <mxCell id="dNskdut9mb7uznUAlSVk-178" style="edgeStyle=orthogonalEdgeStyle;curved=1;rounded=0;orthogonalLoop=1;jettySize=auto;html=1;entryX=0.5;entryY=0;entryDx=0;entryDy=0;startSize=3;endSize=3;verticalAlign=bottom;" edge="1" parent="dNskdut9mb7uznUAlSVk-168" source="dNskdut9mb7uznUAlSVk-174" target="dNskdut9mb7uznUAlSVk-176">
          <mxGeometry x="10" y="10" as="geometry">
            <Array as="points">
              <mxPoint x="35" y="55" />
            </Array>
          </mxGeometry>
        </mxCell>
        <mxCell id="dNskdut9mb7uznUAlSVk-179" style="edgeStyle=orthogonalEdgeStyle;curved=1;rounded=0;orthogonalLoop=1;jettySize=auto;html=1;entryX=1;entryY=0.5;entryDx=0;entryDy=0;startSize=3;endSize=3;verticalAlign=bottom;" edge="1" parent="dNskdut9mb7uznUAlSVk-168" source="dNskdut9mb7uznUAlSVk-181" target="dNskdut9mb7uznUAlSVk-174">
          <mxGeometry x="10" y="10" as="geometry">
            <Array as="points">
              <mxPoint x="75" y="55" />
            </Array>
          </mxGeometry>
        </mxCell>
        <mxCell id="dNskdut9mb7uznUAlSVk-180" style="edgeStyle=orthogonalEdgeStyle;curved=1;rounded=0;orthogonalLoop=1;jettySize=auto;html=1;entryX=0.5;entryY=0;entryDx=0;entryDy=0;startSize=3;endSize=3;verticalAlign=bottom;" edge="1" parent="dNskdut9mb7uznUAlSVk-168" source="dNskdut9mb7uznUAlSVk-181" target="dNskdut9mb7uznUAlSVk-172">
          <mxGeometry x="10" y="10" as="geometry">
            <Array as="points">
              <mxPoint x="75" y="10" />
              <mxPoint x="45" y="10" />
            </Array>
          </mxGeometry>
        </mxCell>
        <mxCell id="dNskdut9mb7uznUAlSVk-181" value="" style="ellipse;whiteSpace=wrap;html=1;aspect=fixed;" vertex="1" parent="dNskdut9mb7uznUAlSVk-168">
          <mxGeometry x="70" y="40" width="10" height="10" as="geometry" />
        </mxCell>
        <mxCell id="dNskdut9mb7uznUAlSVk-182" style="edgeStyle=orthogonalEdgeStyle;curved=1;rounded=0;orthogonalLoop=1;jettySize=auto;html=1;entryX=1;entryY=0.5;entryDx=0;entryDy=0;startSize=3;endSize=3;verticalAlign=bottom;" edge="1" parent="dNskdut9mb7uznUAlSVk-168" source="dNskdut9mb7uznUAlSVk-183" target="dNskdut9mb7uznUAlSVk-181">
          <mxGeometry x="10" y="10" as="geometry">
            <Array as="points">
              <mxPoint x="75" y="60" />
              <mxPoint x="90" y="60" />
              <mxPoint x="90" y="45" />
            </Array>
          </mxGeometry>
        </mxCell>
        <mxCell id="dNskdut9mb7uznUAlSVk-183" value="" style="ellipse;whiteSpace=wrap;html=1;aspect=fixed;" vertex="1" parent="dNskdut9mb7uznUAlSVk-168">
          <mxGeometry x="70" y="70" width="10" height="10" as="geometry" />
        </mxCell>
        <mxCell id="dNskdut9mb7uznUAlSVk-184" style="edgeStyle=orthogonalEdgeStyle;rounded=0;orthogonalLoop=1;jettySize=auto;html=1;entryX=0;entryY=0.5;entryDx=0;entryDy=0;verticalAlign=bottom;curved=1;startSize=3;endSize=3;" edge="1" parent="dNskdut9mb7uznUAlSVk-168" source="dNskdut9mb7uznUAlSVk-176" target="dNskdut9mb7uznUAlSVk-183">
          <mxGeometry x="10" y="10" as="geometry">
            <Array as="points">
              <mxPoint x="25" y="90" />
              <mxPoint x="50" y="90" />
              <mxPoint x="50" y="75" />
            </Array>
          </mxGeometry>
        </mxCell>
        <mxCell id="dNskdut9mb7uznUAlSVk-185" style="edgeStyle=orthogonalEdgeStyle;rounded=0;orthogonalLoop=1;jettySize=auto;html=1;startSize=3;endSize=3;sourcePerimeterSpacing=5;targetPerimeterSpacing=5;verticalAlign=bottom;" edge="1" parent="1" source="dNskdut9mb7uznUAlSVk-156" target="dNskdut9mb7uznUAlSVk-169">
          <mxGeometry relative="1" as="geometry" />
        </mxCell>
        <mxCell id="dNskdut9mb7uznUAlSVk-186" value="" style="group" vertex="1" connectable="0" parent="1">
          <mxGeometry x="920" y="500" width="100" height="120" as="geometry" />
        </mxCell>
        <mxCell id="dNskdut9mb7uznUAlSVk-187" value="Irrelevant RNN" style="rounded=0;whiteSpace=wrap;html=1;verticalAlign=bottom;strokeColor=none;" vertex="1" parent="dNskdut9mb7uznUAlSVk-186">
          <mxGeometry width="100" height="120" as="geometry" />
        </mxCell>
        <mxCell id="dNskdut9mb7uznUAlSVk-188" value="" style="ellipse;whiteSpace=wrap;html=1;aspect=fixed;" vertex="1" parent="dNskdut9mb7uznUAlSVk-186">
          <mxGeometry x="10" y="40" width="10" height="10" as="geometry" />
        </mxCell>
        <mxCell id="dNskdut9mb7uznUAlSVk-189" style="edgeStyle=orthogonalEdgeStyle;curved=1;rounded=0;orthogonalLoop=1;jettySize=auto;html=1;entryX=0.5;entryY=0;entryDx=0;entryDy=0;startSize=3;endSize=3;verticalAlign=bottom;" edge="1" parent="dNskdut9mb7uznUAlSVk-186" source="dNskdut9mb7uznUAlSVk-190" target="dNskdut9mb7uznUAlSVk-188">
          <mxGeometry x="10" y="10" as="geometry">
            <Array as="points">
              <mxPoint x="15" y="25" />
            </Array>
          </mxGeometry>
        </mxCell>
        <mxCell id="dNskdut9mb7uznUAlSVk-190" value="" style="ellipse;whiteSpace=wrap;html=1;aspect=fixed;" vertex="1" parent="dNskdut9mb7uznUAlSVk-186">
          <mxGeometry x="30" y="20" width="10" height="10" as="geometry" />
        </mxCell>
        <mxCell id="dNskdut9mb7uznUAlSVk-191" style="edgeStyle=orthogonalEdgeStyle;curved=1;rounded=0;orthogonalLoop=1;jettySize=auto;html=1;entryX=1;entryY=0.5;entryDx=0;entryDy=0;startSize=3;endSize=3;verticalAlign=bottom;" edge="1" parent="dNskdut9mb7uznUAlSVk-186" source="dNskdut9mb7uznUAlSVk-192" target="dNskdut9mb7uznUAlSVk-190">
          <mxGeometry x="10" y="10" as="geometry">
            <Array as="points">
              <mxPoint x="45" y="40" />
              <mxPoint x="60" y="40" />
              <mxPoint x="60" y="25" />
            </Array>
          </mxGeometry>
        </mxCell>
        <mxCell id="dNskdut9mb7uznUAlSVk-192" value="" style="ellipse;whiteSpace=wrap;html=1;aspect=fixed;" vertex="1" parent="dNskdut9mb7uznUAlSVk-186">
          <mxGeometry x="40" y="50" width="10" height="10" as="geometry" />
        </mxCell>
        <mxCell id="dNskdut9mb7uznUAlSVk-193" style="edgeStyle=orthogonalEdgeStyle;curved=1;rounded=0;orthogonalLoop=1;jettySize=auto;html=1;entryX=0;entryY=0.5;entryDx=0;entryDy=0;startSize=3;endSize=3;verticalAlign=bottom;" edge="1" parent="dNskdut9mb7uznUAlSVk-186" source="dNskdut9mb7uznUAlSVk-188" target="dNskdut9mb7uznUAlSVk-192">
          <mxGeometry x="10" y="10" as="geometry">
            <Array as="points">
              <mxPoint x="15" y="55" />
            </Array>
          </mxGeometry>
        </mxCell>
        <mxCell id="dNskdut9mb7uznUAlSVk-194" value="" style="ellipse;whiteSpace=wrap;html=1;aspect=fixed;" vertex="1" parent="dNskdut9mb7uznUAlSVk-186">
          <mxGeometry x="30" y="80" width="10" height="10" as="geometry" />
        </mxCell>
        <mxCell id="dNskdut9mb7uznUAlSVk-195" style="edgeStyle=orthogonalEdgeStyle;curved=1;rounded=0;orthogonalLoop=1;jettySize=auto;html=1;entryX=0;entryY=0.5;entryDx=0;entryDy=0;startSize=3;endSize=3;verticalAlign=bottom;" edge="1" parent="dNskdut9mb7uznUAlSVk-186" source="dNskdut9mb7uznUAlSVk-188" target="dNskdut9mb7uznUAlSVk-194">
          <mxGeometry x="10" y="10" as="geometry">
            <Array as="points">
              <mxPoint x="10" y="85" />
            </Array>
          </mxGeometry>
        </mxCell>
        <mxCell id="dNskdut9mb7uznUAlSVk-196" style="edgeStyle=orthogonalEdgeStyle;curved=1;rounded=0;orthogonalLoop=1;jettySize=auto;html=1;entryX=0.5;entryY=0;entryDx=0;entryDy=0;startSize=3;endSize=3;verticalAlign=bottom;" edge="1" parent="dNskdut9mb7uznUAlSVk-186" source="dNskdut9mb7uznUAlSVk-192" target="dNskdut9mb7uznUAlSVk-194">
          <mxGeometry x="10" y="10" as="geometry">
            <Array as="points">
              <mxPoint x="35" y="55" />
            </Array>
          </mxGeometry>
        </mxCell>
        <mxCell id="dNskdut9mb7uznUAlSVk-197" style="edgeStyle=orthogonalEdgeStyle;curved=1;rounded=0;orthogonalLoop=1;jettySize=auto;html=1;entryX=1;entryY=0.5;entryDx=0;entryDy=0;startSize=3;endSize=3;verticalAlign=bottom;" edge="1" parent="dNskdut9mb7uznUAlSVk-186" source="dNskdut9mb7uznUAlSVk-199" target="dNskdut9mb7uznUAlSVk-192">
          <mxGeometry x="10" y="10" as="geometry">
            <Array as="points">
              <mxPoint x="75" y="55" />
            </Array>
          </mxGeometry>
        </mxCell>
        <mxCell id="dNskdut9mb7uznUAlSVk-198" style="edgeStyle=orthogonalEdgeStyle;curved=1;rounded=0;orthogonalLoop=1;jettySize=auto;html=1;entryX=0.5;entryY=0;entryDx=0;entryDy=0;startSize=3;endSize=3;verticalAlign=bottom;" edge="1" parent="dNskdut9mb7uznUAlSVk-186" source="dNskdut9mb7uznUAlSVk-199" target="dNskdut9mb7uznUAlSVk-190">
          <mxGeometry x="10" y="10" as="geometry">
            <Array as="points">
              <mxPoint x="75" y="10" />
              <mxPoint x="45" y="10" />
            </Array>
          </mxGeometry>
        </mxCell>
        <mxCell id="dNskdut9mb7uznUAlSVk-199" value="" style="ellipse;whiteSpace=wrap;html=1;aspect=fixed;" vertex="1" parent="dNskdut9mb7uznUAlSVk-186">
          <mxGeometry x="70" y="40" width="10" height="10" as="geometry" />
        </mxCell>
        <mxCell id="dNskdut9mb7uznUAlSVk-200" style="edgeStyle=orthogonalEdgeStyle;curved=1;rounded=0;orthogonalLoop=1;jettySize=auto;html=1;entryX=1;entryY=0.5;entryDx=0;entryDy=0;startSize=3;endSize=3;verticalAlign=bottom;" edge="1" parent="dNskdut9mb7uznUAlSVk-186" source="dNskdut9mb7uznUAlSVk-201" target="dNskdut9mb7uznUAlSVk-199">
          <mxGeometry x="10" y="10" as="geometry">
            <Array as="points">
              <mxPoint x="75" y="60" />
              <mxPoint x="90" y="60" />
              <mxPoint x="90" y="45" />
            </Array>
          </mxGeometry>
        </mxCell>
        <mxCell id="dNskdut9mb7uznUAlSVk-201" value="" style="ellipse;whiteSpace=wrap;html=1;aspect=fixed;" vertex="1" parent="dNskdut9mb7uznUAlSVk-186">
          <mxGeometry x="70" y="70" width="10" height="10" as="geometry" />
        </mxCell>
        <mxCell id="dNskdut9mb7uznUAlSVk-202" style="edgeStyle=orthogonalEdgeStyle;rounded=0;orthogonalLoop=1;jettySize=auto;html=1;entryX=0;entryY=0.5;entryDx=0;entryDy=0;verticalAlign=bottom;curved=1;startSize=3;endSize=3;" edge="1" parent="dNskdut9mb7uznUAlSVk-186" source="dNskdut9mb7uznUAlSVk-194" target="dNskdut9mb7uznUAlSVk-201">
          <mxGeometry x="10" y="10" as="geometry">
            <Array as="points">
              <mxPoint x="25" y="90" />
              <mxPoint x="50" y="90" />
              <mxPoint x="50" y="75" />
            </Array>
          </mxGeometry>
        </mxCell>
        <mxCell id="dNskdut9mb7uznUAlSVk-203" style="edgeStyle=orthogonalEdgeStyle;rounded=0;orthogonalLoop=1;jettySize=auto;html=1;startSize=3;endSize=3;sourcePerimeterSpacing=5;targetPerimeterSpacing=5;verticalAlign=bottom;" edge="1" parent="1" source="dNskdut9mb7uznUAlSVk-137" target="dNskdut9mb7uznUAlSVk-187">
          <mxGeometry relative="1" as="geometry" />
        </mxCell>
        <mxCell id="dNskdut9mb7uznUAlSVk-207" value="" style="group" vertex="1" connectable="0" parent="1">
          <mxGeometry x="740" y="310" width="110" height="60" as="geometry" />
        </mxCell>
        <mxCell id="dNskdut9mb7uznUAlSVk-205" value="" style="rounded=0;whiteSpace=wrap;html=1;verticalAlign=bottom;strokeColor=none;" vertex="1" parent="dNskdut9mb7uznUAlSVk-207">
          <mxGeometry width="110" height="60" as="geometry" />
        </mxCell>
        <mxCell id="dNskdut9mb7uznUAlSVk-206" value="Covariance Penalty" style="rounded=1;whiteSpace=wrap;html=1;verticalAlign=middle;spacing=7;" vertex="1" parent="dNskdut9mb7uznUAlSVk-207">
          <mxGeometry x="10" y="10" width="90" height="40" as="geometry" />
        </mxCell>
        <mxCell id="dNskdut9mb7uznUAlSVk-208" style="edgeStyle=orthogonalEdgeStyle;rounded=0;orthogonalLoop=1;jettySize=auto;html=1;startSize=3;endSize=3;sourcePerimeterSpacing=5;targetPerimeterSpacing=5;verticalAlign=bottom;" edge="1" parent="1" source="dNskdut9mb7uznUAlSVk-156" target="dNskdut9mb7uznUAlSVk-205">
          <mxGeometry relative="1" as="geometry" />
        </mxCell>
        <mxCell id="dNskdut9mb7uznUAlSVk-209" style="edgeStyle=orthogonalEdgeStyle;rounded=0;orthogonalLoop=1;jettySize=auto;html=1;startSize=3;endSize=3;sourcePerimeterSpacing=5;targetPerimeterSpacing=5;verticalAlign=bottom;" edge="1" parent="1" source="dNskdut9mb7uznUAlSVk-137" target="dNskdut9mb7uznUAlSVk-206">
          <mxGeometry relative="1" as="geometry" />
        </mxCell>
        <mxCell id="dNskdut9mb7uznUAlSVk-219" value="" style="group" vertex="1" connectable="0" parent="1">
          <mxGeometry x="1080" y="25" width="190" height="170" as="geometry" />
        </mxCell>
        <mxCell id="dNskdut9mb7uznUAlSVk-211" value="" style="rounded=0;whiteSpace=wrap;html=1;verticalAlign=bottom;strokeColor=none;" vertex="1" parent="dNskdut9mb7uznUAlSVk-219">
          <mxGeometry width="190" height="170" as="geometry" />
        </mxCell>
        <mxCell id="dNskdut9mb7uznUAlSVk-212" value="" style="rounded=0;whiteSpace=wrap;html=1;" vertex="1" parent="dNskdut9mb7uznUAlSVk-219">
          <mxGeometry x="70" y="50" width="80" height="110" as="geometry" />
        </mxCell>
        <mxCell id="dNskdut9mb7uznUAlSVk-213" value="" style="rounded=0;whiteSpace=wrap;html=1;" vertex="1" parent="dNskdut9mb7uznUAlSVk-219">
          <mxGeometry x="60" y="40" width="80" height="110" as="geometry" />
        </mxCell>
        <mxCell id="dNskdut9mb7uznUAlSVk-214" value="relevant dynamics" style="endArrow=classic;html=1;horizontal=0;labelPosition=center;verticalLabelPosition=top;align=center;verticalAlign=bottom;" edge="1" parent="dNskdut9mb7uznUAlSVk-219">
          <mxGeometry x="-550" y="-335" width="50" height="50" as="geometry">
            <mxPoint x="30" y="40" as="sourcePoint" />
            <mxPoint x="30" y="120" as="targetPoint" />
            <mxPoint x="-10" as="offset" />
          </mxGeometry>
        </mxCell>
        <mxCell id="dNskdut9mb7uznUAlSVk-215" value="trials" style="endArrow=classic;html=1;horizontal=1;labelPosition=center;verticalLabelPosition=top;align=center;verticalAlign=bottom;" edge="1" parent="dNskdut9mb7uznUAlSVk-219">
          <mxGeometry x="-540" y="-345" width="50" height="50" as="geometry">
            <mxPoint x="140" y="20" as="sourcePoint" />
            <mxPoint x="170" y="50" as="targetPoint" />
            <mxPoint x="15" as="offset" />
          </mxGeometry>
        </mxCell>
        <mxCell id="dNskdut9mb7uznUAlSVk-216" value="&lt;span style=&quot;background-color: rgb(248 , 249 , 250)&quot;&gt;Relevant Dynamics&lt;/span&gt;" style="rounded=0;whiteSpace=wrap;html=1;spacingTop=2;spacingLeft=2;spacingBottom=2;spacingRight=2;spacing=1;horizontal=1;labelPosition=center;verticalLabelPosition=middle;align=center;verticalAlign=middle;" vertex="1" parent="dNskdut9mb7uznUAlSVk-219">
          <mxGeometry x="50" y="27.5" width="80" height="112.5" as="geometry" />
        </mxCell>
        <mxCell id="dNskdut9mb7uznUAlSVk-218" value="time" style="endArrow=classic;html=1;labelPosition=center;verticalLabelPosition=top;align=center;verticalAlign=bottom;" edge="1" parent="dNskdut9mb7uznUAlSVk-219">
          <mxGeometry width="50" height="50" relative="1" as="geometry">
            <mxPoint x="50" y="18" as="sourcePoint" />
            <mxPoint x="100" y="18" as="targetPoint" />
          </mxGeometry>
        </mxCell>
        <mxCell id="dNskdut9mb7uznUAlSVk-220" value="" style="group" vertex="1" connectable="0" parent="1">
          <mxGeometry x="1080" y="475" width="190" height="170" as="geometry" />
        </mxCell>
        <mxCell id="dNskdut9mb7uznUAlSVk-221" value="" style="rounded=0;whiteSpace=wrap;html=1;verticalAlign=bottom;strokeColor=none;" vertex="1" parent="dNskdut9mb7uznUAlSVk-220">
          <mxGeometry width="190" height="170" as="geometry" />
        </mxCell>
        <mxCell id="dNskdut9mb7uznUAlSVk-222" value="" style="rounded=0;whiteSpace=wrap;html=1;" vertex="1" parent="dNskdut9mb7uznUAlSVk-220">
          <mxGeometry x="70" y="50" width="80" height="110" as="geometry" />
        </mxCell>
        <mxCell id="dNskdut9mb7uznUAlSVk-223" value="" style="rounded=0;whiteSpace=wrap;html=1;" vertex="1" parent="dNskdut9mb7uznUAlSVk-220">
          <mxGeometry x="60" y="40" width="80" height="110" as="geometry" />
        </mxCell>
        <mxCell id="dNskdut9mb7uznUAlSVk-224" value="irrelevant dynamics" style="endArrow=classic;html=1;horizontal=0;labelPosition=center;verticalLabelPosition=top;align=center;verticalAlign=bottom;" edge="1" parent="dNskdut9mb7uznUAlSVk-220">
          <mxGeometry x="-550" y="-335" width="50" height="50" as="geometry">
            <mxPoint x="30" y="40" as="sourcePoint" />
            <mxPoint x="30" y="120" as="targetPoint" />
            <mxPoint x="-10" as="offset" />
          </mxGeometry>
        </mxCell>
        <mxCell id="dNskdut9mb7uznUAlSVk-225" value="trials" style="endArrow=classic;html=1;horizontal=1;labelPosition=center;verticalLabelPosition=top;align=center;verticalAlign=bottom;" edge="1" parent="dNskdut9mb7uznUAlSVk-220">
          <mxGeometry x="-540" y="-345" width="50" height="50" as="geometry">
            <mxPoint x="140" y="20" as="sourcePoint" />
            <mxPoint x="170" y="50" as="targetPoint" />
            <mxPoint x="15" as="offset" />
          </mxGeometry>
        </mxCell>
        <mxCell id="dNskdut9mb7uznUAlSVk-226" value="&lt;span style=&quot;background-color: rgb(248 , 249 , 250)&quot;&gt;Irrelevant Dynamics&lt;/span&gt;" style="rounded=0;whiteSpace=wrap;html=1;spacingTop=2;spacingLeft=2;spacingBottom=2;spacingRight=2;spacing=1;horizontal=1;labelPosition=center;verticalLabelPosition=middle;align=center;verticalAlign=middle;" vertex="1" parent="dNskdut9mb7uznUAlSVk-220">
          <mxGeometry x="50" y="27.5" width="80" height="112.5" as="geometry" />
        </mxCell>
        <mxCell id="dNskdut9mb7uznUAlSVk-227" value="time" style="endArrow=classic;html=1;labelPosition=center;verticalLabelPosition=top;align=center;verticalAlign=bottom;" edge="1" parent="dNskdut9mb7uznUAlSVk-220">
          <mxGeometry width="50" height="50" relative="1" as="geometry">
            <mxPoint x="50" y="18" as="sourcePoint" />
            <mxPoint x="100" y="18" as="targetPoint" />
          </mxGeometry>
        </mxCell>
        <mxCell id="dNskdut9mb7uznUAlSVk-228" style="edgeStyle=orthogonalEdgeStyle;rounded=0;orthogonalLoop=1;jettySize=auto;html=1;startSize=3;endSize=3;sourcePerimeterSpacing=5;targetPerimeterSpacing=5;verticalAlign=bottom;" edge="1" parent="1" source="dNskdut9mb7uznUAlSVk-187" target="dNskdut9mb7uznUAlSVk-221">
          <mxGeometry relative="1" as="geometry" />
        </mxCell>
        <mxCell id="dNskdut9mb7uznUAlSVk-229" style="edgeStyle=orthogonalEdgeStyle;rounded=0;orthogonalLoop=1;jettySize=auto;html=1;startSize=3;endSize=3;sourcePerimeterSpacing=5;targetPerimeterSpacing=5;verticalAlign=bottom;" edge="1" parent="1" source="dNskdut9mb7uznUAlSVk-169" target="dNskdut9mb7uznUAlSVk-211">
          <mxGeometry relative="1" as="geometry" />
        </mxCell>
        <mxCell id="dNskdut9mb7uznUAlSVk-238" value="" style="group" vertex="1" connectable="0" parent="1">
          <mxGeometry x="1500" y="55" width="190" height="110" as="geometry" />
        </mxCell>
        <mxCell id="dNskdut9mb7uznUAlSVk-231" value="" style="rounded=0;whiteSpace=wrap;html=1;verticalAlign=bottom;strokeColor=none;" vertex="1" parent="dNskdut9mb7uznUAlSVk-238">
          <mxGeometry width="190" height="110" as="geometry" />
        </mxCell>
        <mxCell id="dNskdut9mb7uznUAlSVk-232" value="" style="rounded=0;whiteSpace=wrap;html=1;" vertex="1" parent="dNskdut9mb7uznUAlSVk-238">
          <mxGeometry x="70" y="50" width="80" height="50" as="geometry" />
        </mxCell>
        <mxCell id="dNskdut9mb7uznUAlSVk-233" value="" style="rounded=0;whiteSpace=wrap;html=1;" vertex="1" parent="dNskdut9mb7uznUAlSVk-238">
          <mxGeometry x="60" y="40" width="80" height="50" as="geometry" />
        </mxCell>
        <mxCell id="dNskdut9mb7uznUAlSVk-234" value="relevant factors" style="endArrow=classic;html=1;horizontal=0;labelPosition=center;verticalLabelPosition=top;align=center;verticalAlign=bottom;" edge="1" parent="dNskdut9mb7uznUAlSVk-238">
          <mxGeometry x="-550" y="-335" width="50" height="50" as="geometry">
            <mxPoint x="30" y="40" as="sourcePoint" />
            <mxPoint x="30" y="80" as="targetPoint" />
            <mxPoint x="-10" as="offset" />
          </mxGeometry>
        </mxCell>
        <mxCell id="dNskdut9mb7uznUAlSVk-235" value="trials" style="endArrow=classic;html=1;horizontal=1;labelPosition=center;verticalLabelPosition=top;align=center;verticalAlign=bottom;" edge="1" parent="dNskdut9mb7uznUAlSVk-238">
          <mxGeometry x="-540" y="-345" width="50" height="50" as="geometry">
            <mxPoint x="140" y="20" as="sourcePoint" />
            <mxPoint x="170" y="50" as="targetPoint" />
            <mxPoint x="15" as="offset" />
          </mxGeometry>
        </mxCell>
        <mxCell id="dNskdut9mb7uznUAlSVk-236" value="&lt;span style=&quot;background-color: rgb(248 , 249 , 250)&quot;&gt;Relevant Factors&lt;/span&gt;" style="rounded=0;whiteSpace=wrap;html=1;spacingTop=2;spacingLeft=2;spacingBottom=2;spacingRight=2;spacing=1;horizontal=1;labelPosition=center;verticalLabelPosition=middle;align=center;verticalAlign=middle;" vertex="1" parent="dNskdut9mb7uznUAlSVk-238">
          <mxGeometry x="50" y="27.5" width="80" height="52.5" as="geometry" />
        </mxCell>
        <mxCell id="dNskdut9mb7uznUAlSVk-237" value="time" style="endArrow=classic;html=1;labelPosition=center;verticalLabelPosition=top;align=center;verticalAlign=bottom;" edge="1" parent="dNskdut9mb7uznUAlSVk-238">
          <mxGeometry width="50" height="50" as="geometry">
            <mxPoint x="50" y="18" as="sourcePoint" />
            <mxPoint x="100" y="18" as="targetPoint" />
          </mxGeometry>
        </mxCell>
        <mxCell id="dNskdut9mb7uznUAlSVk-239" value="" style="group" vertex="1" connectable="0" parent="1">
          <mxGeometry x="1500" y="505" width="190" height="110" as="geometry" />
        </mxCell>
        <mxCell id="dNskdut9mb7uznUAlSVk-240" value="" style="rounded=0;whiteSpace=wrap;html=1;verticalAlign=bottom;strokeColor=none;" vertex="1" parent="dNskdut9mb7uznUAlSVk-239">
          <mxGeometry width="190" height="110" as="geometry" />
        </mxCell>
        <mxCell id="dNskdut9mb7uznUAlSVk-241" value="" style="rounded=0;whiteSpace=wrap;html=1;" vertex="1" parent="dNskdut9mb7uznUAlSVk-239">
          <mxGeometry x="70" y="50" width="80" height="50" as="geometry" />
        </mxCell>
        <mxCell id="dNskdut9mb7uznUAlSVk-242" value="" style="rounded=0;whiteSpace=wrap;html=1;" vertex="1" parent="dNskdut9mb7uznUAlSVk-239">
          <mxGeometry x="60" y="40" width="80" height="50" as="geometry" />
        </mxCell>
        <mxCell id="dNskdut9mb7uznUAlSVk-243" value="irrelevant factors" style="endArrow=classic;html=1;horizontal=0;labelPosition=center;verticalLabelPosition=top;align=center;verticalAlign=bottom;" edge="1" parent="dNskdut9mb7uznUAlSVk-239">
          <mxGeometry x="-550" y="-335" width="50" height="50" as="geometry">
            <mxPoint x="30" y="40" as="sourcePoint" />
            <mxPoint x="30" y="80" as="targetPoint" />
            <mxPoint x="-10" as="offset" />
          </mxGeometry>
        </mxCell>
        <mxCell id="dNskdut9mb7uznUAlSVk-244" value="trials" style="endArrow=classic;html=1;horizontal=1;labelPosition=center;verticalLabelPosition=top;align=center;verticalAlign=bottom;" edge="1" parent="dNskdut9mb7uznUAlSVk-239">
          <mxGeometry x="-540" y="-345" width="50" height="50" as="geometry">
            <mxPoint x="140" y="20" as="sourcePoint" />
            <mxPoint x="170" y="50" as="targetPoint" />
            <mxPoint x="15" as="offset" />
          </mxGeometry>
        </mxCell>
        <mxCell id="dNskdut9mb7uznUAlSVk-245" value="&lt;span style=&quot;background-color: rgb(248 , 249 , 250)&quot;&gt;Irrelevant Factors&lt;/span&gt;" style="rounded=0;whiteSpace=wrap;html=1;spacingTop=2;spacingLeft=2;spacingBottom=2;spacingRight=2;spacing=1;horizontal=1;labelPosition=center;verticalLabelPosition=middle;align=center;verticalAlign=middle;" vertex="1" parent="dNskdut9mb7uznUAlSVk-239">
          <mxGeometry x="50" y="27.5" width="80" height="52.5" as="geometry" />
        </mxCell>
        <mxCell id="dNskdut9mb7uznUAlSVk-246" value="time" style="endArrow=classic;html=1;labelPosition=center;verticalLabelPosition=top;align=center;verticalAlign=bottom;" edge="1" parent="dNskdut9mb7uznUAlSVk-239">
          <mxGeometry width="50" height="50" as="geometry">
            <mxPoint x="50" y="18" as="sourcePoint" />
            <mxPoint x="100" y="18" as="targetPoint" />
          </mxGeometry>
        </mxCell>
        <mxCell id="dNskdut9mb7uznUAlSVk-297" value="" style="group" vertex="1" connectable="0" parent="1">
          <mxGeometry x="1340" y="500" width="80" height="120" as="geometry" />
        </mxCell>
        <mxCell id="dNskdut9mb7uznUAlSVk-296" value="Weights W&lt;sub&gt;iz&lt;/sub&gt;" style="rounded=0;whiteSpace=wrap;html=1;verticalAlign=bottom;strokeColor=none;" vertex="1" parent="dNskdut9mb7uznUAlSVk-297">
          <mxGeometry width="80" height="120" as="geometry" />
        </mxCell>
        <mxCell id="dNskdut9mb7uznUAlSVk-247" value="" style="endArrow=none;html=1;startSize=1;endSize=1;sourcePerimeterSpacing=4;targetPerimeterSpacing=2;verticalAlign=bottom;endFill=0;" edge="1" parent="dNskdut9mb7uznUAlSVk-297" target="dNskdut9mb7uznUAlSVk-265">
          <mxGeometry width="50" height="50" relative="1" as="geometry">
            <mxPoint x="20" y="90" as="sourcePoint" />
            <mxPoint x="60" y="70" as="targetPoint" />
          </mxGeometry>
        </mxCell>
        <mxCell id="dNskdut9mb7uznUAlSVk-248" value="" style="endArrow=none;html=1;startSize=1;endSize=1;sourcePerimeterSpacing=4;targetPerimeterSpacing=2;verticalAlign=bottom;endFill=0;" edge="1" parent="dNskdut9mb7uznUAlSVk-297" target="dNskdut9mb7uznUAlSVk-265">
          <mxGeometry width="50" height="50" relative="1" as="geometry">
            <mxPoint x="20" y="10" as="sourcePoint" />
            <mxPoint x="60" y="70" as="targetPoint" />
          </mxGeometry>
        </mxCell>
        <mxCell id="dNskdut9mb7uznUAlSVk-249" value="" style="endArrow=none;html=1;startSize=1;endSize=1;sourcePerimeterSpacing=4;targetPerimeterSpacing=2;verticalAlign=bottom;endFill=0;" edge="1" parent="dNskdut9mb7uznUAlSVk-297" target="dNskdut9mb7uznUAlSVk-265">
          <mxGeometry width="50" height="50" relative="1" as="geometry">
            <mxPoint x="20.000000000000227" y="20" as="sourcePoint" />
            <mxPoint x="60" y="70" as="targetPoint" />
          </mxGeometry>
        </mxCell>
        <mxCell id="dNskdut9mb7uznUAlSVk-250" value="" style="endArrow=none;html=1;startSize=1;endSize=1;sourcePerimeterSpacing=4;targetPerimeterSpacing=2;verticalAlign=bottom;endFill=0;" edge="1" parent="dNskdut9mb7uznUAlSVk-297" target="dNskdut9mb7uznUAlSVk-265">
          <mxGeometry width="50" height="50" relative="1" as="geometry">
            <mxPoint x="20" y="30" as="sourcePoint" />
            <mxPoint x="60" y="70" as="targetPoint" />
          </mxGeometry>
        </mxCell>
        <mxCell id="dNskdut9mb7uznUAlSVk-251" value="" style="endArrow=none;html=1;startSize=1;endSize=1;sourcePerimeterSpacing=4;targetPerimeterSpacing=2;verticalAlign=bottom;endFill=0;" edge="1" parent="dNskdut9mb7uznUAlSVk-297" target="dNskdut9mb7uznUAlSVk-265">
          <mxGeometry width="50" height="50" relative="1" as="geometry">
            <mxPoint x="20" y="40" as="sourcePoint" />
            <mxPoint x="60" y="70" as="targetPoint" />
          </mxGeometry>
        </mxCell>
        <mxCell id="dNskdut9mb7uznUAlSVk-252" value="" style="endArrow=none;html=1;startSize=1;endSize=1;sourcePerimeterSpacing=4;targetPerimeterSpacing=2;verticalAlign=bottom;endFill=0;" edge="1" parent="dNskdut9mb7uznUAlSVk-297" target="dNskdut9mb7uznUAlSVk-265">
          <mxGeometry width="50" height="50" relative="1" as="geometry">
            <mxPoint x="20" y="50" as="sourcePoint" />
            <mxPoint x="60" y="70" as="targetPoint" />
          </mxGeometry>
        </mxCell>
        <mxCell id="dNskdut9mb7uznUAlSVk-253" value="" style="endArrow=none;html=1;startSize=1;endSize=1;sourcePerimeterSpacing=4;targetPerimeterSpacing=2;verticalAlign=bottom;endFill=0;" edge="1" parent="dNskdut9mb7uznUAlSVk-297" target="dNskdut9mb7uznUAlSVk-265">
          <mxGeometry width="50" height="50" relative="1" as="geometry">
            <mxPoint x="20" y="60" as="sourcePoint" />
            <mxPoint x="60" y="70" as="targetPoint" />
          </mxGeometry>
        </mxCell>
        <mxCell id="dNskdut9mb7uznUAlSVk-254" value="" style="endArrow=none;html=1;startSize=1;endSize=1;sourcePerimeterSpacing=4;targetPerimeterSpacing=2;verticalAlign=bottom;endFill=0;" edge="1" parent="dNskdut9mb7uznUAlSVk-297" target="dNskdut9mb7uznUAlSVk-265">
          <mxGeometry width="50" height="50" relative="1" as="geometry">
            <mxPoint x="20" y="70" as="sourcePoint" />
            <mxPoint x="60" y="70" as="targetPoint" />
          </mxGeometry>
        </mxCell>
        <mxCell id="dNskdut9mb7uznUAlSVk-255" value="" style="endArrow=none;html=1;startSize=1;endSize=1;sourcePerimeterSpacing=4;targetPerimeterSpacing=2;verticalAlign=bottom;endFill=0;" edge="1" parent="dNskdut9mb7uznUAlSVk-297" target="dNskdut9mb7uznUAlSVk-265">
          <mxGeometry width="50" height="50" relative="1" as="geometry">
            <mxPoint x="20" y="80" as="sourcePoint" />
            <mxPoint x="60" y="70" as="targetPoint" />
          </mxGeometry>
        </mxCell>
        <mxCell id="dNskdut9mb7uznUAlSVk-265" value="" style="ellipse;whiteSpace=wrap;html=1;aspect=fixed;rounded=0;verticalAlign=middle;" vertex="1" parent="dNskdut9mb7uznUAlSVk-297">
          <mxGeometry x="60" y="78" width="2" height="2" as="geometry" />
        </mxCell>
        <mxCell id="dNskdut9mb7uznUAlSVk-266" value="" style="endArrow=none;html=1;startSize=1;endSize=1;sourcePerimeterSpacing=4;targetPerimeterSpacing=2;verticalAlign=bottom;endFill=0;" edge="1" parent="dNskdut9mb7uznUAlSVk-297" target="dNskdut9mb7uznUAlSVk-275">
          <mxGeometry width="50" height="50" relative="1" as="geometry">
            <mxPoint x="20" y="90" as="sourcePoint" />
            <mxPoint x="60" y="70" as="targetPoint" />
          </mxGeometry>
        </mxCell>
        <mxCell id="dNskdut9mb7uznUAlSVk-267" value="" style="endArrow=none;html=1;startSize=1;endSize=1;sourcePerimeterSpacing=4;targetPerimeterSpacing=2;verticalAlign=bottom;endFill=0;" edge="1" parent="dNskdut9mb7uznUAlSVk-297" target="dNskdut9mb7uznUAlSVk-275">
          <mxGeometry width="50" height="50" relative="1" as="geometry">
            <mxPoint x="20" y="10" as="sourcePoint" />
            <mxPoint x="60" y="70" as="targetPoint" />
          </mxGeometry>
        </mxCell>
        <mxCell id="dNskdut9mb7uznUAlSVk-268" value="" style="endArrow=none;html=1;startSize=1;endSize=1;sourcePerimeterSpacing=4;targetPerimeterSpacing=2;verticalAlign=bottom;endFill=0;" edge="1" parent="dNskdut9mb7uznUAlSVk-297" target="dNskdut9mb7uznUAlSVk-275">
          <mxGeometry width="50" height="50" relative="1" as="geometry">
            <mxPoint x="20.000000000000227" y="20" as="sourcePoint" />
            <mxPoint x="60" y="70" as="targetPoint" />
          </mxGeometry>
        </mxCell>
        <mxCell id="dNskdut9mb7uznUAlSVk-269" value="" style="endArrow=none;html=1;startSize=1;endSize=1;sourcePerimeterSpacing=4;targetPerimeterSpacing=2;verticalAlign=bottom;endFill=0;" edge="1" parent="dNskdut9mb7uznUAlSVk-297" target="dNskdut9mb7uznUAlSVk-275">
          <mxGeometry width="50" height="50" relative="1" as="geometry">
            <mxPoint x="20" y="30" as="sourcePoint" />
            <mxPoint x="60" y="70" as="targetPoint" />
          </mxGeometry>
        </mxCell>
        <mxCell id="dNskdut9mb7uznUAlSVk-270" value="" style="endArrow=none;html=1;startSize=1;endSize=1;sourcePerimeterSpacing=4;targetPerimeterSpacing=2;verticalAlign=bottom;endFill=0;" edge="1" parent="dNskdut9mb7uznUAlSVk-297" target="dNskdut9mb7uznUAlSVk-275">
          <mxGeometry width="50" height="50" relative="1" as="geometry">
            <mxPoint x="20" y="40" as="sourcePoint" />
            <mxPoint x="60" y="70" as="targetPoint" />
          </mxGeometry>
        </mxCell>
        <mxCell id="dNskdut9mb7uznUAlSVk-271" value="" style="endArrow=none;html=1;startSize=1;endSize=1;sourcePerimeterSpacing=4;targetPerimeterSpacing=2;verticalAlign=bottom;endFill=0;" edge="1" parent="dNskdut9mb7uznUAlSVk-297" target="dNskdut9mb7uznUAlSVk-275">
          <mxGeometry width="50" height="50" relative="1" as="geometry">
            <mxPoint x="20" y="50" as="sourcePoint" />
            <mxPoint x="60" y="70" as="targetPoint" />
          </mxGeometry>
        </mxCell>
        <mxCell id="dNskdut9mb7uznUAlSVk-272" value="" style="endArrow=none;html=1;startSize=1;endSize=1;sourcePerimeterSpacing=4;targetPerimeterSpacing=2;verticalAlign=bottom;endFill=0;" edge="1" parent="dNskdut9mb7uznUAlSVk-297" target="dNskdut9mb7uznUAlSVk-275">
          <mxGeometry width="50" height="50" relative="1" as="geometry">
            <mxPoint x="20" y="60" as="sourcePoint" />
            <mxPoint x="60" y="70" as="targetPoint" />
          </mxGeometry>
        </mxCell>
        <mxCell id="dNskdut9mb7uznUAlSVk-273" value="" style="endArrow=none;html=1;startSize=1;endSize=1;sourcePerimeterSpacing=4;targetPerimeterSpacing=2;verticalAlign=bottom;endFill=0;" edge="1" parent="dNskdut9mb7uznUAlSVk-297" target="dNskdut9mb7uznUAlSVk-275">
          <mxGeometry width="50" height="50" relative="1" as="geometry">
            <mxPoint x="20" y="70" as="sourcePoint" />
            <mxPoint x="60" y="70" as="targetPoint" />
          </mxGeometry>
        </mxCell>
        <mxCell id="dNskdut9mb7uznUAlSVk-274" value="" style="endArrow=none;html=1;startSize=1;endSize=1;sourcePerimeterSpacing=4;targetPerimeterSpacing=2;verticalAlign=bottom;endFill=0;" edge="1" parent="dNskdut9mb7uznUAlSVk-297" target="dNskdut9mb7uznUAlSVk-275">
          <mxGeometry width="50" height="50" relative="1" as="geometry">
            <mxPoint x="20" y="80" as="sourcePoint" />
            <mxPoint x="60" y="70" as="targetPoint" />
          </mxGeometry>
        </mxCell>
        <mxCell id="dNskdut9mb7uznUAlSVk-275" value="" style="ellipse;whiteSpace=wrap;html=1;aspect=fixed;rounded=0;verticalAlign=middle;" vertex="1" parent="dNskdut9mb7uznUAlSVk-297">
          <mxGeometry x="60" y="49" width="2" height="2" as="geometry" />
        </mxCell>
        <mxCell id="dNskdut9mb7uznUAlSVk-276" value="" style="endArrow=none;html=1;startSize=1;endSize=1;sourcePerimeterSpacing=4;targetPerimeterSpacing=2;verticalAlign=bottom;endFill=0;" edge="1" parent="dNskdut9mb7uznUAlSVk-297" target="dNskdut9mb7uznUAlSVk-285">
          <mxGeometry width="50" height="50" relative="1" as="geometry">
            <mxPoint x="20" y="90" as="sourcePoint" />
            <mxPoint x="60" y="70" as="targetPoint" />
          </mxGeometry>
        </mxCell>
        <mxCell id="dNskdut9mb7uznUAlSVk-277" value="" style="endArrow=none;html=1;startSize=1;endSize=1;sourcePerimeterSpacing=4;targetPerimeterSpacing=2;verticalAlign=bottom;endFill=0;" edge="1" parent="dNskdut9mb7uznUAlSVk-297" target="dNskdut9mb7uznUAlSVk-285">
          <mxGeometry width="50" height="50" relative="1" as="geometry">
            <mxPoint x="20" y="10" as="sourcePoint" />
            <mxPoint x="60" y="70" as="targetPoint" />
          </mxGeometry>
        </mxCell>
        <mxCell id="dNskdut9mb7uznUAlSVk-278" value="" style="endArrow=none;html=1;startSize=1;endSize=1;sourcePerimeterSpacing=4;targetPerimeterSpacing=2;verticalAlign=bottom;endFill=0;" edge="1" parent="dNskdut9mb7uznUAlSVk-297" target="dNskdut9mb7uznUAlSVk-285">
          <mxGeometry width="50" height="50" relative="1" as="geometry">
            <mxPoint x="20.000000000000227" y="20" as="sourcePoint" />
            <mxPoint x="60" y="70" as="targetPoint" />
          </mxGeometry>
        </mxCell>
        <mxCell id="dNskdut9mb7uznUAlSVk-279" value="" style="endArrow=none;html=1;startSize=1;endSize=1;sourcePerimeterSpacing=4;targetPerimeterSpacing=2;verticalAlign=bottom;endFill=0;" edge="1" parent="dNskdut9mb7uznUAlSVk-297" target="dNskdut9mb7uznUAlSVk-285">
          <mxGeometry width="50" height="50" relative="1" as="geometry">
            <mxPoint x="20" y="30" as="sourcePoint" />
            <mxPoint x="60" y="70" as="targetPoint" />
          </mxGeometry>
        </mxCell>
        <mxCell id="dNskdut9mb7uznUAlSVk-280" value="" style="endArrow=none;html=1;startSize=1;endSize=1;sourcePerimeterSpacing=4;targetPerimeterSpacing=2;verticalAlign=bottom;endFill=0;" edge="1" parent="dNskdut9mb7uznUAlSVk-297" target="dNskdut9mb7uznUAlSVk-285">
          <mxGeometry width="50" height="50" relative="1" as="geometry">
            <mxPoint x="20" y="40" as="sourcePoint" />
            <mxPoint x="60" y="70" as="targetPoint" />
          </mxGeometry>
        </mxCell>
        <mxCell id="dNskdut9mb7uznUAlSVk-281" value="" style="endArrow=none;html=1;startSize=1;endSize=1;sourcePerimeterSpacing=4;targetPerimeterSpacing=2;verticalAlign=bottom;endFill=0;" edge="1" parent="dNskdut9mb7uznUAlSVk-297" target="dNskdut9mb7uznUAlSVk-285">
          <mxGeometry width="50" height="50" relative="1" as="geometry">
            <mxPoint x="20" y="50" as="sourcePoint" />
            <mxPoint x="60" y="70" as="targetPoint" />
          </mxGeometry>
        </mxCell>
        <mxCell id="dNskdut9mb7uznUAlSVk-282" value="" style="endArrow=none;html=1;startSize=1;endSize=1;sourcePerimeterSpacing=4;targetPerimeterSpacing=2;verticalAlign=bottom;endFill=0;" edge="1" parent="dNskdut9mb7uznUAlSVk-297" target="dNskdut9mb7uznUAlSVk-285">
          <mxGeometry width="50" height="50" relative="1" as="geometry">
            <mxPoint x="20" y="60" as="sourcePoint" />
            <mxPoint x="60" y="70" as="targetPoint" />
          </mxGeometry>
        </mxCell>
        <mxCell id="dNskdut9mb7uznUAlSVk-283" value="" style="endArrow=none;html=1;startSize=1;endSize=1;sourcePerimeterSpacing=4;targetPerimeterSpacing=2;verticalAlign=bottom;endFill=0;" edge="1" parent="dNskdut9mb7uznUAlSVk-297" target="dNskdut9mb7uznUAlSVk-285">
          <mxGeometry width="50" height="50" relative="1" as="geometry">
            <mxPoint x="20" y="70" as="sourcePoint" />
            <mxPoint x="60" y="70" as="targetPoint" />
          </mxGeometry>
        </mxCell>
        <mxCell id="dNskdut9mb7uznUAlSVk-284" value="" style="endArrow=none;html=1;startSize=1;endSize=1;sourcePerimeterSpacing=4;targetPerimeterSpacing=2;verticalAlign=bottom;endFill=0;" edge="1" parent="dNskdut9mb7uznUAlSVk-297" target="dNskdut9mb7uznUAlSVk-285">
          <mxGeometry width="50" height="50" relative="1" as="geometry">
            <mxPoint x="20" y="80" as="sourcePoint" />
            <mxPoint x="60" y="70" as="targetPoint" />
          </mxGeometry>
        </mxCell>
        <mxCell id="dNskdut9mb7uznUAlSVk-285" value="" style="ellipse;whiteSpace=wrap;html=1;aspect=fixed;rounded=0;verticalAlign=middle;" vertex="1" parent="dNskdut9mb7uznUAlSVk-297">
          <mxGeometry x="60" y="20" width="2" height="2" as="geometry" />
        </mxCell>
        <mxCell id="dNskdut9mb7uznUAlSVk-298" style="edgeStyle=orthogonalEdgeStyle;rounded=0;orthogonalLoop=1;jettySize=auto;html=1;endArrow=classic;startSize=3;endSize=3;sourcePerimeterSpacing=5;targetPerimeterSpacing=5;strokeColor=#000000;verticalAlign=bottom;" edge="1" parent="1" source="dNskdut9mb7uznUAlSVk-221" target="dNskdut9mb7uznUAlSVk-296">
          <mxGeometry relative="1" as="geometry" />
        </mxCell>
        <mxCell id="dNskdut9mb7uznUAlSVk-299" style="edgeStyle=orthogonalEdgeStyle;rounded=0;orthogonalLoop=1;jettySize=auto;html=1;endArrow=classic;endFill=1;startSize=3;endSize=3;sourcePerimeterSpacing=5;targetPerimeterSpacing=5;strokeColor=#000000;verticalAlign=bottom;" edge="1" parent="1" source="dNskdut9mb7uznUAlSVk-296" target="dNskdut9mb7uznUAlSVk-240">
          <mxGeometry relative="1" as="geometry" />
        </mxCell>
        <mxCell id="dNskdut9mb7uznUAlSVk-300" value="" style="group" vertex="1" connectable="0" parent="1">
          <mxGeometry x="1340" y="50" width="80" height="120" as="geometry" />
        </mxCell>
        <mxCell id="dNskdut9mb7uznUAlSVk-301" value="Weights W&lt;sub&gt;rz&lt;/sub&gt;" style="rounded=0;whiteSpace=wrap;html=1;verticalAlign=bottom;strokeColor=none;" vertex="1" parent="dNskdut9mb7uznUAlSVk-300">
          <mxGeometry width="80" height="120" as="geometry" />
        </mxCell>
        <mxCell id="dNskdut9mb7uznUAlSVk-302" value="" style="endArrow=none;html=1;startSize=1;endSize=1;sourcePerimeterSpacing=4;targetPerimeterSpacing=2;verticalAlign=bottom;endFill=0;" edge="1" parent="dNskdut9mb7uznUAlSVk-300" target="dNskdut9mb7uznUAlSVk-311">
          <mxGeometry width="50" height="50" relative="1" as="geometry">
            <mxPoint x="20" y="90" as="sourcePoint" />
            <mxPoint x="60" y="70" as="targetPoint" />
          </mxGeometry>
        </mxCell>
        <mxCell id="dNskdut9mb7uznUAlSVk-303" value="" style="endArrow=none;html=1;startSize=1;endSize=1;sourcePerimeterSpacing=4;targetPerimeterSpacing=2;verticalAlign=bottom;endFill=0;" edge="1" parent="dNskdut9mb7uznUAlSVk-300" target="dNskdut9mb7uznUAlSVk-311">
          <mxGeometry width="50" height="50" relative="1" as="geometry">
            <mxPoint x="20" y="10" as="sourcePoint" />
            <mxPoint x="60" y="70" as="targetPoint" />
          </mxGeometry>
        </mxCell>
        <mxCell id="dNskdut9mb7uznUAlSVk-304" value="" style="endArrow=none;html=1;startSize=1;endSize=1;sourcePerimeterSpacing=4;targetPerimeterSpacing=2;verticalAlign=bottom;endFill=0;" edge="1" parent="dNskdut9mb7uznUAlSVk-300" target="dNskdut9mb7uznUAlSVk-311">
          <mxGeometry width="50" height="50" relative="1" as="geometry">
            <mxPoint x="20.000000000000227" y="20" as="sourcePoint" />
            <mxPoint x="60" y="70" as="targetPoint" />
          </mxGeometry>
        </mxCell>
        <mxCell id="dNskdut9mb7uznUAlSVk-305" value="" style="endArrow=none;html=1;startSize=1;endSize=1;sourcePerimeterSpacing=4;targetPerimeterSpacing=2;verticalAlign=bottom;endFill=0;" edge="1" parent="dNskdut9mb7uznUAlSVk-300" target="dNskdut9mb7uznUAlSVk-311">
          <mxGeometry width="50" height="50" relative="1" as="geometry">
            <mxPoint x="20" y="30" as="sourcePoint" />
            <mxPoint x="60" y="70" as="targetPoint" />
          </mxGeometry>
        </mxCell>
        <mxCell id="dNskdut9mb7uznUAlSVk-306" value="" style="endArrow=none;html=1;startSize=1;endSize=1;sourcePerimeterSpacing=4;targetPerimeterSpacing=2;verticalAlign=bottom;endFill=0;" edge="1" parent="dNskdut9mb7uznUAlSVk-300" target="dNskdut9mb7uznUAlSVk-311">
          <mxGeometry width="50" height="50" relative="1" as="geometry">
            <mxPoint x="20" y="40" as="sourcePoint" />
            <mxPoint x="60" y="70" as="targetPoint" />
          </mxGeometry>
        </mxCell>
        <mxCell id="dNskdut9mb7uznUAlSVk-307" value="" style="endArrow=none;html=1;startSize=1;endSize=1;sourcePerimeterSpacing=4;targetPerimeterSpacing=2;verticalAlign=bottom;endFill=0;" edge="1" parent="dNskdut9mb7uznUAlSVk-300" target="dNskdut9mb7uznUAlSVk-311">
          <mxGeometry width="50" height="50" relative="1" as="geometry">
            <mxPoint x="20" y="50" as="sourcePoint" />
            <mxPoint x="60" y="70" as="targetPoint" />
          </mxGeometry>
        </mxCell>
        <mxCell id="dNskdut9mb7uznUAlSVk-308" value="" style="endArrow=none;html=1;startSize=1;endSize=1;sourcePerimeterSpacing=4;targetPerimeterSpacing=2;verticalAlign=bottom;endFill=0;" edge="1" parent="dNskdut9mb7uznUAlSVk-300" target="dNskdut9mb7uznUAlSVk-311">
          <mxGeometry width="50" height="50" relative="1" as="geometry">
            <mxPoint x="20" y="60" as="sourcePoint" />
            <mxPoint x="60" y="70" as="targetPoint" />
          </mxGeometry>
        </mxCell>
        <mxCell id="dNskdut9mb7uznUAlSVk-309" value="" style="endArrow=none;html=1;startSize=1;endSize=1;sourcePerimeterSpacing=4;targetPerimeterSpacing=2;verticalAlign=bottom;endFill=0;" edge="1" parent="dNskdut9mb7uznUAlSVk-300" target="dNskdut9mb7uznUAlSVk-311">
          <mxGeometry width="50" height="50" relative="1" as="geometry">
            <mxPoint x="20" y="70" as="sourcePoint" />
            <mxPoint x="60" y="70" as="targetPoint" />
          </mxGeometry>
        </mxCell>
        <mxCell id="dNskdut9mb7uznUAlSVk-310" value="" style="endArrow=none;html=1;startSize=1;endSize=1;sourcePerimeterSpacing=4;targetPerimeterSpacing=2;verticalAlign=bottom;endFill=0;" edge="1" parent="dNskdut9mb7uznUAlSVk-300" target="dNskdut9mb7uznUAlSVk-311">
          <mxGeometry width="50" height="50" relative="1" as="geometry">
            <mxPoint x="20" y="80" as="sourcePoint" />
            <mxPoint x="60" y="70" as="targetPoint" />
          </mxGeometry>
        </mxCell>
        <mxCell id="dNskdut9mb7uznUAlSVk-311" value="" style="ellipse;whiteSpace=wrap;html=1;aspect=fixed;rounded=0;verticalAlign=middle;" vertex="1" parent="dNskdut9mb7uznUAlSVk-300">
          <mxGeometry x="60" y="78" width="2" height="2" as="geometry" />
        </mxCell>
        <mxCell id="dNskdut9mb7uznUAlSVk-312" value="" style="endArrow=none;html=1;startSize=1;endSize=1;sourcePerimeterSpacing=4;targetPerimeterSpacing=2;verticalAlign=bottom;endFill=0;" edge="1" parent="dNskdut9mb7uznUAlSVk-300" target="dNskdut9mb7uznUAlSVk-321">
          <mxGeometry width="50" height="50" relative="1" as="geometry">
            <mxPoint x="20" y="90" as="sourcePoint" />
            <mxPoint x="60" y="70" as="targetPoint" />
          </mxGeometry>
        </mxCell>
        <mxCell id="dNskdut9mb7uznUAlSVk-313" value="" style="endArrow=none;html=1;startSize=1;endSize=1;sourcePerimeterSpacing=4;targetPerimeterSpacing=2;verticalAlign=bottom;endFill=0;" edge="1" parent="dNskdut9mb7uznUAlSVk-300" target="dNskdut9mb7uznUAlSVk-321">
          <mxGeometry width="50" height="50" relative="1" as="geometry">
            <mxPoint x="20" y="10" as="sourcePoint" />
            <mxPoint x="60" y="70" as="targetPoint" />
          </mxGeometry>
        </mxCell>
        <mxCell id="dNskdut9mb7uznUAlSVk-314" value="" style="endArrow=none;html=1;startSize=1;endSize=1;sourcePerimeterSpacing=4;targetPerimeterSpacing=2;verticalAlign=bottom;endFill=0;" edge="1" parent="dNskdut9mb7uznUAlSVk-300" target="dNskdut9mb7uznUAlSVk-321">
          <mxGeometry width="50" height="50" relative="1" as="geometry">
            <mxPoint x="20.000000000000227" y="20" as="sourcePoint" />
            <mxPoint x="60" y="70" as="targetPoint" />
          </mxGeometry>
        </mxCell>
        <mxCell id="dNskdut9mb7uznUAlSVk-315" value="" style="endArrow=none;html=1;startSize=1;endSize=1;sourcePerimeterSpacing=4;targetPerimeterSpacing=2;verticalAlign=bottom;endFill=0;" edge="1" parent="dNskdut9mb7uznUAlSVk-300" target="dNskdut9mb7uznUAlSVk-321">
          <mxGeometry width="50" height="50" relative="1" as="geometry">
            <mxPoint x="20" y="30" as="sourcePoint" />
            <mxPoint x="60" y="70" as="targetPoint" />
          </mxGeometry>
        </mxCell>
        <mxCell id="dNskdut9mb7uznUAlSVk-316" value="" style="endArrow=none;html=1;startSize=1;endSize=1;sourcePerimeterSpacing=4;targetPerimeterSpacing=2;verticalAlign=bottom;endFill=0;" edge="1" parent="dNskdut9mb7uznUAlSVk-300" target="dNskdut9mb7uznUAlSVk-321">
          <mxGeometry width="50" height="50" relative="1" as="geometry">
            <mxPoint x="20" y="40" as="sourcePoint" />
            <mxPoint x="60" y="70" as="targetPoint" />
          </mxGeometry>
        </mxCell>
        <mxCell id="dNskdut9mb7uznUAlSVk-317" value="" style="endArrow=none;html=1;startSize=1;endSize=1;sourcePerimeterSpacing=4;targetPerimeterSpacing=2;verticalAlign=bottom;endFill=0;" edge="1" parent="dNskdut9mb7uznUAlSVk-300" target="dNskdut9mb7uznUAlSVk-321">
          <mxGeometry width="50" height="50" relative="1" as="geometry">
            <mxPoint x="20" y="50" as="sourcePoint" />
            <mxPoint x="60" y="70" as="targetPoint" />
          </mxGeometry>
        </mxCell>
        <mxCell id="dNskdut9mb7uznUAlSVk-318" value="" style="endArrow=none;html=1;startSize=1;endSize=1;sourcePerimeterSpacing=4;targetPerimeterSpacing=2;verticalAlign=bottom;endFill=0;" edge="1" parent="dNskdut9mb7uznUAlSVk-300" target="dNskdut9mb7uznUAlSVk-321">
          <mxGeometry width="50" height="50" relative="1" as="geometry">
            <mxPoint x="20" y="60" as="sourcePoint" />
            <mxPoint x="60" y="70" as="targetPoint" />
          </mxGeometry>
        </mxCell>
        <mxCell id="dNskdut9mb7uznUAlSVk-319" value="" style="endArrow=none;html=1;startSize=1;endSize=1;sourcePerimeterSpacing=4;targetPerimeterSpacing=2;verticalAlign=bottom;endFill=0;" edge="1" parent="dNskdut9mb7uznUAlSVk-300" target="dNskdut9mb7uznUAlSVk-321">
          <mxGeometry width="50" height="50" relative="1" as="geometry">
            <mxPoint x="20" y="70" as="sourcePoint" />
            <mxPoint x="60" y="70" as="targetPoint" />
          </mxGeometry>
        </mxCell>
        <mxCell id="dNskdut9mb7uznUAlSVk-320" value="" style="endArrow=none;html=1;startSize=1;endSize=1;sourcePerimeterSpacing=4;targetPerimeterSpacing=2;verticalAlign=bottom;endFill=0;" edge="1" parent="dNskdut9mb7uznUAlSVk-300" target="dNskdut9mb7uznUAlSVk-321">
          <mxGeometry width="50" height="50" relative="1" as="geometry">
            <mxPoint x="20" y="80" as="sourcePoint" />
            <mxPoint x="60" y="70" as="targetPoint" />
          </mxGeometry>
        </mxCell>
        <mxCell id="dNskdut9mb7uznUAlSVk-321" value="" style="ellipse;whiteSpace=wrap;html=1;aspect=fixed;rounded=0;verticalAlign=middle;" vertex="1" parent="dNskdut9mb7uznUAlSVk-300">
          <mxGeometry x="60" y="49" width="2" height="2" as="geometry" />
        </mxCell>
        <mxCell id="dNskdut9mb7uznUAlSVk-322" value="" style="endArrow=none;html=1;startSize=1;endSize=1;sourcePerimeterSpacing=4;targetPerimeterSpacing=2;verticalAlign=bottom;endFill=0;" edge="1" parent="dNskdut9mb7uznUAlSVk-300" target="dNskdut9mb7uznUAlSVk-331">
          <mxGeometry width="50" height="50" relative="1" as="geometry">
            <mxPoint x="20" y="90" as="sourcePoint" />
            <mxPoint x="60" y="70" as="targetPoint" />
          </mxGeometry>
        </mxCell>
        <mxCell id="dNskdut9mb7uznUAlSVk-323" value="" style="endArrow=none;html=1;startSize=1;endSize=1;sourcePerimeterSpacing=4;targetPerimeterSpacing=2;verticalAlign=bottom;endFill=0;" edge="1" parent="dNskdut9mb7uznUAlSVk-300" target="dNskdut9mb7uznUAlSVk-331">
          <mxGeometry width="50" height="50" relative="1" as="geometry">
            <mxPoint x="20" y="10" as="sourcePoint" />
            <mxPoint x="60" y="70" as="targetPoint" />
          </mxGeometry>
        </mxCell>
        <mxCell id="dNskdut9mb7uznUAlSVk-324" value="" style="endArrow=none;html=1;startSize=1;endSize=1;sourcePerimeterSpacing=4;targetPerimeterSpacing=2;verticalAlign=bottom;endFill=0;" edge="1" parent="dNskdut9mb7uznUAlSVk-300" target="dNskdut9mb7uznUAlSVk-331">
          <mxGeometry width="50" height="50" relative="1" as="geometry">
            <mxPoint x="20.000000000000227" y="20" as="sourcePoint" />
            <mxPoint x="60" y="70" as="targetPoint" />
          </mxGeometry>
        </mxCell>
        <mxCell id="dNskdut9mb7uznUAlSVk-325" value="" style="endArrow=none;html=1;startSize=1;endSize=1;sourcePerimeterSpacing=4;targetPerimeterSpacing=2;verticalAlign=bottom;endFill=0;" edge="1" parent="dNskdut9mb7uznUAlSVk-300" target="dNskdut9mb7uznUAlSVk-331">
          <mxGeometry width="50" height="50" relative="1" as="geometry">
            <mxPoint x="20" y="30" as="sourcePoint" />
            <mxPoint x="60" y="70" as="targetPoint" />
          </mxGeometry>
        </mxCell>
        <mxCell id="dNskdut9mb7uznUAlSVk-326" value="" style="endArrow=none;html=1;startSize=1;endSize=1;sourcePerimeterSpacing=4;targetPerimeterSpacing=2;verticalAlign=bottom;endFill=0;" edge="1" parent="dNskdut9mb7uznUAlSVk-300" target="dNskdut9mb7uznUAlSVk-331">
          <mxGeometry width="50" height="50" relative="1" as="geometry">
            <mxPoint x="20" y="40" as="sourcePoint" />
            <mxPoint x="60" y="70" as="targetPoint" />
          </mxGeometry>
        </mxCell>
        <mxCell id="dNskdut9mb7uznUAlSVk-327" value="" style="endArrow=none;html=1;startSize=1;endSize=1;sourcePerimeterSpacing=4;targetPerimeterSpacing=2;verticalAlign=bottom;endFill=0;" edge="1" parent="dNskdut9mb7uznUAlSVk-300" target="dNskdut9mb7uznUAlSVk-331">
          <mxGeometry width="50" height="50" relative="1" as="geometry">
            <mxPoint x="20" y="50" as="sourcePoint" />
            <mxPoint x="60" y="70" as="targetPoint" />
          </mxGeometry>
        </mxCell>
        <mxCell id="dNskdut9mb7uznUAlSVk-328" value="" style="endArrow=none;html=1;startSize=1;endSize=1;sourcePerimeterSpacing=4;targetPerimeterSpacing=2;verticalAlign=bottom;endFill=0;" edge="1" parent="dNskdut9mb7uznUAlSVk-300" target="dNskdut9mb7uznUAlSVk-331">
          <mxGeometry width="50" height="50" relative="1" as="geometry">
            <mxPoint x="20" y="60" as="sourcePoint" />
            <mxPoint x="60" y="70" as="targetPoint" />
          </mxGeometry>
        </mxCell>
        <mxCell id="dNskdut9mb7uznUAlSVk-329" value="" style="endArrow=none;html=1;startSize=1;endSize=1;sourcePerimeterSpacing=4;targetPerimeterSpacing=2;verticalAlign=bottom;endFill=0;" edge="1" parent="dNskdut9mb7uznUAlSVk-300" target="dNskdut9mb7uznUAlSVk-331">
          <mxGeometry width="50" height="50" relative="1" as="geometry">
            <mxPoint x="20" y="70" as="sourcePoint" />
            <mxPoint x="60" y="70" as="targetPoint" />
          </mxGeometry>
        </mxCell>
        <mxCell id="dNskdut9mb7uznUAlSVk-330" value="" style="endArrow=none;html=1;startSize=1;endSize=1;sourcePerimeterSpacing=4;targetPerimeterSpacing=2;verticalAlign=bottom;endFill=0;" edge="1" parent="dNskdut9mb7uznUAlSVk-300" target="dNskdut9mb7uznUAlSVk-331">
          <mxGeometry width="50" height="50" relative="1" as="geometry">
            <mxPoint x="20" y="80" as="sourcePoint" />
            <mxPoint x="60" y="70" as="targetPoint" />
          </mxGeometry>
        </mxCell>
        <mxCell id="dNskdut9mb7uznUAlSVk-331" value="" style="ellipse;whiteSpace=wrap;html=1;aspect=fixed;rounded=0;verticalAlign=middle;" vertex="1" parent="dNskdut9mb7uznUAlSVk-300">
          <mxGeometry x="60" y="20" width="2" height="2" as="geometry" />
        </mxCell>
        <mxCell id="dNskdut9mb7uznUAlSVk-332" style="edgeStyle=orthogonalEdgeStyle;rounded=0;orthogonalLoop=1;jettySize=auto;html=1;endArrow=classic;endFill=1;startSize=3;endSize=3;sourcePerimeterSpacing=5;targetPerimeterSpacing=5;strokeColor=#000000;verticalAlign=bottom;" edge="1" parent="1" source="dNskdut9mb7uznUAlSVk-211" target="dNskdut9mb7uznUAlSVk-301">
          <mxGeometry relative="1" as="geometry" />
        </mxCell>
        <mxCell id="dNskdut9mb7uznUAlSVk-333" style="edgeStyle=orthogonalEdgeStyle;rounded=0;orthogonalLoop=1;jettySize=auto;html=1;endArrow=classic;endFill=1;startSize=3;endSize=3;sourcePerimeterSpacing=5;targetPerimeterSpacing=5;strokeColor=#000000;verticalAlign=bottom;" edge="1" parent="1" source="dNskdut9mb7uznUAlSVk-301" target="dNskdut9mb7uznUAlSVk-231">
          <mxGeometry relative="1" as="geometry" />
        </mxCell>
        <mxCell id="dNskdut9mb7uznUAlSVk-335" value="" style="group" vertex="1" connectable="0" parent="1">
          <mxGeometry x="1910" y="20" width="170" height="180" as="geometry" />
        </mxCell>
        <mxCell id="dNskdut9mb7uznUAlSVk-336" value="" style="rounded=0;whiteSpace=wrap;html=1;verticalAlign=bottom;strokeColor=none;" vertex="1" parent="dNskdut9mb7uznUAlSVk-335">
          <mxGeometry width="170" height="180" as="geometry" />
        </mxCell>
        <mxCell id="dNskdut9mb7uznUAlSVk-337" value="" style="rounded=0;whiteSpace=wrap;html=1;" vertex="1" parent="dNskdut9mb7uznUAlSVk-335">
          <mxGeometry x="60" y="45" width="80" height="120" as="geometry" />
        </mxCell>
        <mxCell id="dNskdut9mb7uznUAlSVk-338" value="" style="rounded=0;whiteSpace=wrap;html=1;" vertex="1" parent="dNskdut9mb7uznUAlSVk-335">
          <mxGeometry x="50" y="35" width="80" height="120" as="geometry" />
        </mxCell>
        <mxCell id="dNskdut9mb7uznUAlSVk-339" value="&lt;font style=&quot;font-size: 12px&quot;&gt;Estimated Behaviour&lt;/font&gt;" style="rounded=0;whiteSpace=wrap;html=1;spacingTop=2;spacingLeft=2;spacingBottom=2;spacingRight=2;spacing=8;" vertex="1" parent="dNskdut9mb7uznUAlSVk-335">
          <mxGeometry x="40" y="25" width="80" height="120" as="geometry" />
        </mxCell>
        <mxCell id="dNskdut9mb7uznUAlSVk-340" value="time" style="endArrow=classic;html=1;labelPosition=center;verticalLabelPosition=top;align=center;verticalAlign=bottom;" edge="1" parent="dNskdut9mb7uznUAlSVk-335">
          <mxGeometry width="50" height="50" relative="1" as="geometry">
            <mxPoint x="40" y="15" as="sourcePoint" />
            <mxPoint x="90" y="15" as="targetPoint" />
          </mxGeometry>
        </mxCell>
        <mxCell id="dNskdut9mb7uznUAlSVk-341" value="behavioural space" style="endArrow=classic;html=1;horizontal=0;labelPosition=center;verticalLabelPosition=top;align=center;verticalAlign=bottom;" edge="1" parent="dNskdut9mb7uznUAlSVk-335">
          <mxGeometry y="-10" width="50" height="50" relative="1" as="geometry">
            <mxPoint x="30" y="25" as="sourcePoint" />
            <mxPoint x="30" y="130" as="targetPoint" />
            <mxPoint as="offset" />
          </mxGeometry>
        </mxCell>
        <mxCell id="dNskdut9mb7uznUAlSVk-342" value="trials" style="endArrow=classic;html=1;horizontal=1;labelPosition=center;verticalLabelPosition=top;align=center;verticalAlign=bottom;" edge="1" parent="dNskdut9mb7uznUAlSVk-335">
          <mxGeometry x="0.25" y="7" width="50" height="50" relative="1" as="geometry">
            <mxPoint x="130" y="15" as="sourcePoint" />
            <mxPoint x="160" y="45" as="targetPoint" />
            <mxPoint as="offset" />
          </mxGeometry>
        </mxCell>
        <mxCell id="dNskdut9mb7uznUAlSVk-343" style="edgeStyle=orthogonalEdgeStyle;rounded=0;orthogonalLoop=1;jettySize=auto;html=1;endArrow=classic;endFill=1;startSize=3;endSize=3;sourcePerimeterSpacing=5;targetPerimeterSpacing=5;strokeColor=#000000;verticalAlign=bottom;" edge="1" parent="1" source="dNskdut9mb7uznUAlSVk-231" target="dNskdut9mb7uznUAlSVk-388">
          <mxGeometry relative="1" as="geometry" />
        </mxCell>
        <mxCell id="dNskdut9mb7uznUAlSVk-344" value="" style="group" vertex="1" connectable="0" parent="1">
          <mxGeometry x="1900" y="470" width="170" height="180" as="geometry" />
        </mxCell>
        <mxCell id="dNskdut9mb7uznUAlSVk-345" value="" style="rounded=0;whiteSpace=wrap;html=1;verticalAlign=bottom;strokeColor=none;" vertex="1" parent="dNskdut9mb7uznUAlSVk-344">
          <mxGeometry width="170" height="180" as="geometry" />
        </mxCell>
        <mxCell id="dNskdut9mb7uznUAlSVk-346" value="" style="rounded=0;whiteSpace=wrap;html=1;" vertex="1" parent="dNskdut9mb7uznUAlSVk-344">
          <mxGeometry x="60" y="45" width="80" height="120" as="geometry" />
        </mxCell>
        <mxCell id="dNskdut9mb7uznUAlSVk-347" value="" style="rounded=0;whiteSpace=wrap;html=1;" vertex="1" parent="dNskdut9mb7uznUAlSVk-344">
          <mxGeometry x="50" y="35" width="80" height="120" as="geometry" />
        </mxCell>
        <mxCell id="dNskdut9mb7uznUAlSVk-348" value="Neural Firing Rates" style="rounded=0;whiteSpace=wrap;html=1;spacingTop=2;spacingLeft=2;spacingBottom=2;spacingRight=2;spacing=8;" vertex="1" parent="dNskdut9mb7uznUAlSVk-344">
          <mxGeometry x="40" y="25" width="80" height="120" as="geometry" />
        </mxCell>
        <mxCell id="dNskdut9mb7uznUAlSVk-349" value="time" style="endArrow=classic;html=1;labelPosition=center;verticalLabelPosition=top;align=center;verticalAlign=bottom;" edge="1" parent="dNskdut9mb7uznUAlSVk-344">
          <mxGeometry width="50" height="50" relative="1" as="geometry">
            <mxPoint x="40" y="15" as="sourcePoint" />
            <mxPoint x="90" y="15" as="targetPoint" />
          </mxGeometry>
        </mxCell>
        <mxCell id="dNskdut9mb7uznUAlSVk-350" value="neurons" style="endArrow=classic;html=1;horizontal=0;labelPosition=center;verticalLabelPosition=top;align=center;verticalAlign=bottom;" edge="1" parent="dNskdut9mb7uznUAlSVk-344">
          <mxGeometry y="-10" width="50" height="50" relative="1" as="geometry">
            <mxPoint x="30" y="25" as="sourcePoint" />
            <mxPoint x="30" y="75" as="targetPoint" />
            <mxPoint as="offset" />
          </mxGeometry>
        </mxCell>
        <mxCell id="dNskdut9mb7uznUAlSVk-351" value="trials" style="endArrow=classic;html=1;horizontal=1;labelPosition=center;verticalLabelPosition=top;align=center;verticalAlign=bottom;" edge="1" parent="dNskdut9mb7uznUAlSVk-344">
          <mxGeometry x="0.25" y="7" width="50" height="50" relative="1" as="geometry">
            <mxPoint x="130" y="15" as="sourcePoint" />
            <mxPoint x="160" y="45" as="targetPoint" />
            <mxPoint as="offset" />
          </mxGeometry>
        </mxCell>
        <mxCell id="dNskdut9mb7uznUAlSVk-352" style="edgeStyle=orthogonalEdgeStyle;rounded=0;orthogonalLoop=1;jettySize=auto;html=1;endArrow=classic;endFill=1;startSize=3;endSize=3;sourcePerimeterSpacing=5;targetPerimeterSpacing=5;strokeColor=#000000;verticalAlign=bottom;" edge="1" parent="1" source="dNskdut9mb7uznUAlSVk-240" target="dNskdut9mb7uznUAlSVk-355">
          <mxGeometry relative="1" as="geometry">
            <mxPoint x="1790" y="560" as="targetPoint" />
          </mxGeometry>
        </mxCell>
        <mxCell id="dNskdut9mb7uznUAlSVk-353" style="rounded=0;orthogonalLoop=1;jettySize=auto;html=1;endArrow=classic;endFill=1;startSize=3;endSize=3;sourcePerimeterSpacing=5;targetPerimeterSpacing=5;strokeColor=#000000;verticalAlign=bottom;" edge="1" parent="1" source="dNskdut9mb7uznUAlSVk-231" target="dNskdut9mb7uznUAlSVk-355">
          <mxGeometry relative="1" as="geometry">
            <mxPoint x="1790" y="490" as="targetPoint" />
          </mxGeometry>
        </mxCell>
        <mxCell id="dNskdut9mb7uznUAlSVk-354" value="" style="group" vertex="1" connectable="0" parent="1">
          <mxGeometry x="1760" y="500" width="80" height="120" as="geometry" />
        </mxCell>
        <mxCell id="dNskdut9mb7uznUAlSVk-355" value="Weights W&lt;sub&gt;r&lt;/sub&gt;" style="rounded=0;whiteSpace=wrap;html=1;verticalAlign=bottom;strokeColor=none;" vertex="1" parent="dNskdut9mb7uznUAlSVk-354">
          <mxGeometry width="80" height="120" as="geometry" />
        </mxCell>
        <mxCell id="dNskdut9mb7uznUAlSVk-356" value="" style="endArrow=none;html=1;startSize=1;endSize=1;sourcePerimeterSpacing=4;targetPerimeterSpacing=2;verticalAlign=bottom;endFill=0;" edge="1" parent="dNskdut9mb7uznUAlSVk-354" target="dNskdut9mb7uznUAlSVk-365">
          <mxGeometry width="50" height="50" relative="1" as="geometry">
            <mxPoint x="20" y="90" as="sourcePoint" />
            <mxPoint x="60" y="70" as="targetPoint" />
          </mxGeometry>
        </mxCell>
        <mxCell id="dNskdut9mb7uznUAlSVk-357" value="" style="endArrow=none;html=1;startSize=1;endSize=1;sourcePerimeterSpacing=4;targetPerimeterSpacing=2;verticalAlign=bottom;endFill=0;" edge="1" parent="dNskdut9mb7uznUAlSVk-354" target="dNskdut9mb7uznUAlSVk-365">
          <mxGeometry width="50" height="50" relative="1" as="geometry">
            <mxPoint x="20" y="10" as="sourcePoint" />
            <mxPoint x="60" y="70" as="targetPoint" />
          </mxGeometry>
        </mxCell>
        <mxCell id="dNskdut9mb7uznUAlSVk-358" value="" style="endArrow=none;html=1;startSize=1;endSize=1;sourcePerimeterSpacing=4;targetPerimeterSpacing=2;verticalAlign=bottom;endFill=0;" edge="1" parent="dNskdut9mb7uznUAlSVk-354" target="dNskdut9mb7uznUAlSVk-365">
          <mxGeometry width="50" height="50" relative="1" as="geometry">
            <mxPoint x="20.000000000000227" y="20" as="sourcePoint" />
            <mxPoint x="60" y="70" as="targetPoint" />
          </mxGeometry>
        </mxCell>
        <mxCell id="dNskdut9mb7uznUAlSVk-359" value="" style="endArrow=none;html=1;startSize=1;endSize=1;sourcePerimeterSpacing=4;targetPerimeterSpacing=2;verticalAlign=bottom;endFill=0;" edge="1" parent="dNskdut9mb7uznUAlSVk-354" target="dNskdut9mb7uznUAlSVk-365">
          <mxGeometry width="50" height="50" relative="1" as="geometry">
            <mxPoint x="20" y="30" as="sourcePoint" />
            <mxPoint x="60" y="70" as="targetPoint" />
          </mxGeometry>
        </mxCell>
        <mxCell id="dNskdut9mb7uznUAlSVk-360" value="" style="endArrow=none;html=1;startSize=1;endSize=1;sourcePerimeterSpacing=4;targetPerimeterSpacing=2;verticalAlign=bottom;endFill=0;" edge="1" parent="dNskdut9mb7uznUAlSVk-354" target="dNskdut9mb7uznUAlSVk-365">
          <mxGeometry width="50" height="50" relative="1" as="geometry">
            <mxPoint x="20" y="40" as="sourcePoint" />
            <mxPoint x="60" y="70" as="targetPoint" />
          </mxGeometry>
        </mxCell>
        <mxCell id="dNskdut9mb7uznUAlSVk-361" value="" style="endArrow=none;html=1;startSize=1;endSize=1;sourcePerimeterSpacing=4;targetPerimeterSpacing=2;verticalAlign=bottom;endFill=0;" edge="1" parent="dNskdut9mb7uznUAlSVk-354" target="dNskdut9mb7uznUAlSVk-365">
          <mxGeometry width="50" height="50" relative="1" as="geometry">
            <mxPoint x="20" y="50" as="sourcePoint" />
            <mxPoint x="60" y="70" as="targetPoint" />
          </mxGeometry>
        </mxCell>
        <mxCell id="dNskdut9mb7uznUAlSVk-362" value="" style="endArrow=none;html=1;startSize=1;endSize=1;sourcePerimeterSpacing=4;targetPerimeterSpacing=2;verticalAlign=bottom;endFill=0;" edge="1" parent="dNskdut9mb7uznUAlSVk-354" target="dNskdut9mb7uznUAlSVk-365">
          <mxGeometry width="50" height="50" relative="1" as="geometry">
            <mxPoint x="20" y="60" as="sourcePoint" />
            <mxPoint x="60" y="70" as="targetPoint" />
          </mxGeometry>
        </mxCell>
        <mxCell id="dNskdut9mb7uznUAlSVk-363" value="" style="endArrow=none;html=1;startSize=1;endSize=1;sourcePerimeterSpacing=4;targetPerimeterSpacing=2;verticalAlign=bottom;endFill=0;" edge="1" parent="dNskdut9mb7uznUAlSVk-354" target="dNskdut9mb7uznUAlSVk-365">
          <mxGeometry width="50" height="50" relative="1" as="geometry">
            <mxPoint x="20" y="70" as="sourcePoint" />
            <mxPoint x="60" y="70" as="targetPoint" />
          </mxGeometry>
        </mxCell>
        <mxCell id="dNskdut9mb7uznUAlSVk-364" value="" style="endArrow=none;html=1;startSize=1;endSize=1;sourcePerimeterSpacing=4;targetPerimeterSpacing=2;verticalAlign=bottom;endFill=0;" edge="1" parent="dNskdut9mb7uznUAlSVk-354" target="dNskdut9mb7uznUAlSVk-365">
          <mxGeometry width="50" height="50" relative="1" as="geometry">
            <mxPoint x="20" y="80" as="sourcePoint" />
            <mxPoint x="60" y="70" as="targetPoint" />
          </mxGeometry>
        </mxCell>
        <mxCell id="dNskdut9mb7uznUAlSVk-365" value="" style="ellipse;whiteSpace=wrap;html=1;aspect=fixed;rounded=0;verticalAlign=middle;" vertex="1" parent="dNskdut9mb7uznUAlSVk-354">
          <mxGeometry x="60" y="78" width="2" height="2" as="geometry" />
        </mxCell>
        <mxCell id="dNskdut9mb7uznUAlSVk-366" value="" style="endArrow=none;html=1;startSize=1;endSize=1;sourcePerimeterSpacing=4;targetPerimeterSpacing=2;verticalAlign=bottom;endFill=0;" edge="1" parent="dNskdut9mb7uznUAlSVk-354" target="dNskdut9mb7uznUAlSVk-375">
          <mxGeometry width="50" height="50" relative="1" as="geometry">
            <mxPoint x="20" y="90" as="sourcePoint" />
            <mxPoint x="60" y="70" as="targetPoint" />
          </mxGeometry>
        </mxCell>
        <mxCell id="dNskdut9mb7uznUAlSVk-367" value="" style="endArrow=none;html=1;startSize=1;endSize=1;sourcePerimeterSpacing=4;targetPerimeterSpacing=2;verticalAlign=bottom;endFill=0;" edge="1" parent="dNskdut9mb7uznUAlSVk-354" target="dNskdut9mb7uznUAlSVk-375">
          <mxGeometry width="50" height="50" relative="1" as="geometry">
            <mxPoint x="20" y="10" as="sourcePoint" />
            <mxPoint x="60" y="70" as="targetPoint" />
          </mxGeometry>
        </mxCell>
        <mxCell id="dNskdut9mb7uznUAlSVk-368" value="" style="endArrow=none;html=1;startSize=1;endSize=1;sourcePerimeterSpacing=4;targetPerimeterSpacing=2;verticalAlign=bottom;endFill=0;" edge="1" parent="dNskdut9mb7uznUAlSVk-354" target="dNskdut9mb7uznUAlSVk-375">
          <mxGeometry width="50" height="50" relative="1" as="geometry">
            <mxPoint x="20.000000000000227" y="20" as="sourcePoint" />
            <mxPoint x="60" y="70" as="targetPoint" />
          </mxGeometry>
        </mxCell>
        <mxCell id="dNskdut9mb7uznUAlSVk-369" value="" style="endArrow=none;html=1;startSize=1;endSize=1;sourcePerimeterSpacing=4;targetPerimeterSpacing=2;verticalAlign=bottom;endFill=0;" edge="1" parent="dNskdut9mb7uznUAlSVk-354" target="dNskdut9mb7uznUAlSVk-375">
          <mxGeometry width="50" height="50" relative="1" as="geometry">
            <mxPoint x="20" y="30" as="sourcePoint" />
            <mxPoint x="60" y="70" as="targetPoint" />
          </mxGeometry>
        </mxCell>
        <mxCell id="dNskdut9mb7uznUAlSVk-370" value="" style="endArrow=none;html=1;startSize=1;endSize=1;sourcePerimeterSpacing=4;targetPerimeterSpacing=2;verticalAlign=bottom;endFill=0;" edge="1" parent="dNskdut9mb7uznUAlSVk-354" target="dNskdut9mb7uznUAlSVk-375">
          <mxGeometry width="50" height="50" relative="1" as="geometry">
            <mxPoint x="20" y="40" as="sourcePoint" />
            <mxPoint x="60" y="70" as="targetPoint" />
          </mxGeometry>
        </mxCell>
        <mxCell id="dNskdut9mb7uznUAlSVk-371" value="" style="endArrow=none;html=1;startSize=1;endSize=1;sourcePerimeterSpacing=4;targetPerimeterSpacing=2;verticalAlign=bottom;endFill=0;" edge="1" parent="dNskdut9mb7uznUAlSVk-354" target="dNskdut9mb7uznUAlSVk-375">
          <mxGeometry width="50" height="50" relative="1" as="geometry">
            <mxPoint x="20" y="50" as="sourcePoint" />
            <mxPoint x="60" y="70" as="targetPoint" />
          </mxGeometry>
        </mxCell>
        <mxCell id="dNskdut9mb7uznUAlSVk-372" value="" style="endArrow=none;html=1;startSize=1;endSize=1;sourcePerimeterSpacing=4;targetPerimeterSpacing=2;verticalAlign=bottom;endFill=0;" edge="1" parent="dNskdut9mb7uznUAlSVk-354" target="dNskdut9mb7uznUAlSVk-375">
          <mxGeometry width="50" height="50" relative="1" as="geometry">
            <mxPoint x="20" y="60" as="sourcePoint" />
            <mxPoint x="60" y="70" as="targetPoint" />
          </mxGeometry>
        </mxCell>
        <mxCell id="dNskdut9mb7uznUAlSVk-373" value="" style="endArrow=none;html=1;startSize=1;endSize=1;sourcePerimeterSpacing=4;targetPerimeterSpacing=2;verticalAlign=bottom;endFill=0;" edge="1" parent="dNskdut9mb7uznUAlSVk-354" target="dNskdut9mb7uznUAlSVk-375">
          <mxGeometry width="50" height="50" relative="1" as="geometry">
            <mxPoint x="20" y="70" as="sourcePoint" />
            <mxPoint x="60" y="70" as="targetPoint" />
          </mxGeometry>
        </mxCell>
        <mxCell id="dNskdut9mb7uznUAlSVk-374" value="" style="endArrow=none;html=1;startSize=1;endSize=1;sourcePerimeterSpacing=4;targetPerimeterSpacing=2;verticalAlign=bottom;endFill=0;" edge="1" parent="dNskdut9mb7uznUAlSVk-354" target="dNskdut9mb7uznUAlSVk-375">
          <mxGeometry width="50" height="50" relative="1" as="geometry">
            <mxPoint x="20" y="80" as="sourcePoint" />
            <mxPoint x="60" y="70" as="targetPoint" />
          </mxGeometry>
        </mxCell>
        <mxCell id="dNskdut9mb7uznUAlSVk-375" value="" style="ellipse;whiteSpace=wrap;html=1;aspect=fixed;rounded=0;verticalAlign=middle;" vertex="1" parent="dNskdut9mb7uznUAlSVk-354">
          <mxGeometry x="60" y="49" width="2" height="2" as="geometry" />
        </mxCell>
        <mxCell id="dNskdut9mb7uznUAlSVk-376" value="" style="endArrow=none;html=1;startSize=1;endSize=1;sourcePerimeterSpacing=4;targetPerimeterSpacing=2;verticalAlign=bottom;endFill=0;" edge="1" parent="dNskdut9mb7uznUAlSVk-354" target="dNskdut9mb7uznUAlSVk-385">
          <mxGeometry width="50" height="50" relative="1" as="geometry">
            <mxPoint x="20" y="90" as="sourcePoint" />
            <mxPoint x="60" y="70" as="targetPoint" />
          </mxGeometry>
        </mxCell>
        <mxCell id="dNskdut9mb7uznUAlSVk-377" value="" style="endArrow=none;html=1;startSize=1;endSize=1;sourcePerimeterSpacing=4;targetPerimeterSpacing=2;verticalAlign=bottom;endFill=0;" edge="1" parent="dNskdut9mb7uznUAlSVk-354" target="dNskdut9mb7uznUAlSVk-385">
          <mxGeometry width="50" height="50" relative="1" as="geometry">
            <mxPoint x="20" y="10" as="sourcePoint" />
            <mxPoint x="60" y="70" as="targetPoint" />
          </mxGeometry>
        </mxCell>
        <mxCell id="dNskdut9mb7uznUAlSVk-378" value="" style="endArrow=none;html=1;startSize=1;endSize=1;sourcePerimeterSpacing=4;targetPerimeterSpacing=2;verticalAlign=bottom;endFill=0;" edge="1" parent="dNskdut9mb7uznUAlSVk-354" target="dNskdut9mb7uznUAlSVk-385">
          <mxGeometry width="50" height="50" relative="1" as="geometry">
            <mxPoint x="20.000000000000227" y="20" as="sourcePoint" />
            <mxPoint x="60" y="70" as="targetPoint" />
          </mxGeometry>
        </mxCell>
        <mxCell id="dNskdut9mb7uznUAlSVk-379" value="" style="endArrow=none;html=1;startSize=1;endSize=1;sourcePerimeterSpacing=4;targetPerimeterSpacing=2;verticalAlign=bottom;endFill=0;" edge="1" parent="dNskdut9mb7uznUAlSVk-354" target="dNskdut9mb7uznUAlSVk-385">
          <mxGeometry width="50" height="50" relative="1" as="geometry">
            <mxPoint x="20" y="30" as="sourcePoint" />
            <mxPoint x="60" y="70" as="targetPoint" />
          </mxGeometry>
        </mxCell>
        <mxCell id="dNskdut9mb7uznUAlSVk-380" value="" style="endArrow=none;html=1;startSize=1;endSize=1;sourcePerimeterSpacing=4;targetPerimeterSpacing=2;verticalAlign=bottom;endFill=0;" edge="1" parent="dNskdut9mb7uznUAlSVk-354" target="dNskdut9mb7uznUAlSVk-385">
          <mxGeometry width="50" height="50" relative="1" as="geometry">
            <mxPoint x="20" y="40" as="sourcePoint" />
            <mxPoint x="60" y="70" as="targetPoint" />
          </mxGeometry>
        </mxCell>
        <mxCell id="dNskdut9mb7uznUAlSVk-381" value="" style="endArrow=none;html=1;startSize=1;endSize=1;sourcePerimeterSpacing=4;targetPerimeterSpacing=2;verticalAlign=bottom;endFill=0;" edge="1" parent="dNskdut9mb7uznUAlSVk-354" target="dNskdut9mb7uznUAlSVk-385">
          <mxGeometry width="50" height="50" relative="1" as="geometry">
            <mxPoint x="20" y="50" as="sourcePoint" />
            <mxPoint x="60" y="70" as="targetPoint" />
          </mxGeometry>
        </mxCell>
        <mxCell id="dNskdut9mb7uznUAlSVk-382" value="" style="endArrow=none;html=1;startSize=1;endSize=1;sourcePerimeterSpacing=4;targetPerimeterSpacing=2;verticalAlign=bottom;endFill=0;" edge="1" parent="dNskdut9mb7uznUAlSVk-354" target="dNskdut9mb7uznUAlSVk-385">
          <mxGeometry width="50" height="50" relative="1" as="geometry">
            <mxPoint x="20" y="60" as="sourcePoint" />
            <mxPoint x="60" y="70" as="targetPoint" />
          </mxGeometry>
        </mxCell>
        <mxCell id="dNskdut9mb7uznUAlSVk-383" value="" style="endArrow=none;html=1;startSize=1;endSize=1;sourcePerimeterSpacing=4;targetPerimeterSpacing=2;verticalAlign=bottom;endFill=0;" edge="1" parent="dNskdut9mb7uznUAlSVk-354" target="dNskdut9mb7uznUAlSVk-385">
          <mxGeometry width="50" height="50" relative="1" as="geometry">
            <mxPoint x="20" y="70" as="sourcePoint" />
            <mxPoint x="60" y="70" as="targetPoint" />
          </mxGeometry>
        </mxCell>
        <mxCell id="dNskdut9mb7uznUAlSVk-384" value="" style="endArrow=none;html=1;startSize=1;endSize=1;sourcePerimeterSpacing=4;targetPerimeterSpacing=2;verticalAlign=bottom;endFill=0;" edge="1" parent="dNskdut9mb7uznUAlSVk-354" target="dNskdut9mb7uznUAlSVk-385">
          <mxGeometry width="50" height="50" relative="1" as="geometry">
            <mxPoint x="20" y="80" as="sourcePoint" />
            <mxPoint x="60" y="70" as="targetPoint" />
          </mxGeometry>
        </mxCell>
        <mxCell id="dNskdut9mb7uznUAlSVk-385" value="" style="ellipse;whiteSpace=wrap;html=1;aspect=fixed;rounded=0;verticalAlign=middle;" vertex="1" parent="dNskdut9mb7uznUAlSVk-354">
          <mxGeometry x="60" y="20" width="2" height="2" as="geometry" />
        </mxCell>
        <mxCell id="dNskdut9mb7uznUAlSVk-387" value="" style="group" vertex="1" connectable="0" parent="1">
          <mxGeometry x="1760" y="49.5" width="80" height="120" as="geometry" />
        </mxCell>
        <mxCell id="dNskdut9mb7uznUAlSVk-388" value="Weights C&lt;sub&gt;y&lt;/sub&gt;" style="rounded=0;whiteSpace=wrap;html=1;verticalAlign=bottom;strokeColor=none;" vertex="1" parent="dNskdut9mb7uznUAlSVk-387">
          <mxGeometry width="80" height="120" as="geometry" />
        </mxCell>
        <mxCell id="dNskdut9mb7uznUAlSVk-389" value="" style="endArrow=none;html=1;startSize=1;endSize=1;sourcePerimeterSpacing=4;targetPerimeterSpacing=2;verticalAlign=bottom;endFill=0;" edge="1" parent="dNskdut9mb7uznUAlSVk-387" target="dNskdut9mb7uznUAlSVk-398">
          <mxGeometry width="50" height="50" relative="1" as="geometry">
            <mxPoint x="20" y="90" as="sourcePoint" />
            <mxPoint x="60" y="70" as="targetPoint" />
          </mxGeometry>
        </mxCell>
        <mxCell id="dNskdut9mb7uznUAlSVk-390" value="" style="endArrow=none;html=1;startSize=1;endSize=1;sourcePerimeterSpacing=4;targetPerimeterSpacing=2;verticalAlign=bottom;endFill=0;" edge="1" parent="dNskdut9mb7uznUAlSVk-387" target="dNskdut9mb7uznUAlSVk-398">
          <mxGeometry width="50" height="50" relative="1" as="geometry">
            <mxPoint x="20" y="10" as="sourcePoint" />
            <mxPoint x="60" y="70" as="targetPoint" />
          </mxGeometry>
        </mxCell>
        <mxCell id="dNskdut9mb7uznUAlSVk-391" value="" style="endArrow=none;html=1;startSize=1;endSize=1;sourcePerimeterSpacing=4;targetPerimeterSpacing=2;verticalAlign=bottom;endFill=0;" edge="1" parent="dNskdut9mb7uznUAlSVk-387" target="dNskdut9mb7uznUAlSVk-398">
          <mxGeometry width="50" height="50" relative="1" as="geometry">
            <mxPoint x="20.000000000000227" y="20" as="sourcePoint" />
            <mxPoint x="60" y="70" as="targetPoint" />
          </mxGeometry>
        </mxCell>
        <mxCell id="dNskdut9mb7uznUAlSVk-392" value="" style="endArrow=none;html=1;startSize=1;endSize=1;sourcePerimeterSpacing=4;targetPerimeterSpacing=2;verticalAlign=bottom;endFill=0;" edge="1" parent="dNskdut9mb7uznUAlSVk-387" target="dNskdut9mb7uznUAlSVk-398">
          <mxGeometry width="50" height="50" relative="1" as="geometry">
            <mxPoint x="20" y="30" as="sourcePoint" />
            <mxPoint x="60" y="70" as="targetPoint" />
          </mxGeometry>
        </mxCell>
        <mxCell id="dNskdut9mb7uznUAlSVk-393" value="" style="endArrow=none;html=1;startSize=1;endSize=1;sourcePerimeterSpacing=4;targetPerimeterSpacing=2;verticalAlign=bottom;endFill=0;" edge="1" parent="dNskdut9mb7uznUAlSVk-387" target="dNskdut9mb7uznUAlSVk-398">
          <mxGeometry width="50" height="50" relative="1" as="geometry">
            <mxPoint x="20" y="40" as="sourcePoint" />
            <mxPoint x="60" y="70" as="targetPoint" />
          </mxGeometry>
        </mxCell>
        <mxCell id="dNskdut9mb7uznUAlSVk-394" value="" style="endArrow=none;html=1;startSize=1;endSize=1;sourcePerimeterSpacing=4;targetPerimeterSpacing=2;verticalAlign=bottom;endFill=0;" edge="1" parent="dNskdut9mb7uznUAlSVk-387" target="dNskdut9mb7uznUAlSVk-398">
          <mxGeometry width="50" height="50" relative="1" as="geometry">
            <mxPoint x="20" y="50" as="sourcePoint" />
            <mxPoint x="60" y="70" as="targetPoint" />
          </mxGeometry>
        </mxCell>
        <mxCell id="dNskdut9mb7uznUAlSVk-395" value="" style="endArrow=none;html=1;startSize=1;endSize=1;sourcePerimeterSpacing=4;targetPerimeterSpacing=2;verticalAlign=bottom;endFill=0;" edge="1" parent="dNskdut9mb7uznUAlSVk-387" target="dNskdut9mb7uznUAlSVk-398">
          <mxGeometry width="50" height="50" relative="1" as="geometry">
            <mxPoint x="20" y="60" as="sourcePoint" />
            <mxPoint x="60" y="70" as="targetPoint" />
          </mxGeometry>
        </mxCell>
        <mxCell id="dNskdut9mb7uznUAlSVk-396" value="" style="endArrow=none;html=1;startSize=1;endSize=1;sourcePerimeterSpacing=4;targetPerimeterSpacing=2;verticalAlign=bottom;endFill=0;" edge="1" parent="dNskdut9mb7uznUAlSVk-387" target="dNskdut9mb7uznUAlSVk-398">
          <mxGeometry width="50" height="50" relative="1" as="geometry">
            <mxPoint x="20" y="70" as="sourcePoint" />
            <mxPoint x="60" y="70" as="targetPoint" />
          </mxGeometry>
        </mxCell>
        <mxCell id="dNskdut9mb7uznUAlSVk-397" value="" style="endArrow=none;html=1;startSize=1;endSize=1;sourcePerimeterSpacing=4;targetPerimeterSpacing=2;verticalAlign=bottom;endFill=0;" edge="1" parent="dNskdut9mb7uznUAlSVk-387" target="dNskdut9mb7uznUAlSVk-398">
          <mxGeometry width="50" height="50" relative="1" as="geometry">
            <mxPoint x="20" y="80" as="sourcePoint" />
            <mxPoint x="60" y="70" as="targetPoint" />
          </mxGeometry>
        </mxCell>
        <mxCell id="dNskdut9mb7uznUAlSVk-398" value="" style="ellipse;whiteSpace=wrap;html=1;aspect=fixed;rounded=0;verticalAlign=middle;" vertex="1" parent="dNskdut9mb7uznUAlSVk-387">
          <mxGeometry x="60" y="78" width="2" height="2" as="geometry" />
        </mxCell>
        <mxCell id="dNskdut9mb7uznUAlSVk-399" value="" style="endArrow=none;html=1;startSize=1;endSize=1;sourcePerimeterSpacing=4;targetPerimeterSpacing=2;verticalAlign=bottom;endFill=0;" edge="1" parent="dNskdut9mb7uznUAlSVk-387" target="dNskdut9mb7uznUAlSVk-408">
          <mxGeometry width="50" height="50" relative="1" as="geometry">
            <mxPoint x="20" y="90" as="sourcePoint" />
            <mxPoint x="60" y="70" as="targetPoint" />
          </mxGeometry>
        </mxCell>
        <mxCell id="dNskdut9mb7uznUAlSVk-400" value="" style="endArrow=none;html=1;startSize=1;endSize=1;sourcePerimeterSpacing=4;targetPerimeterSpacing=2;verticalAlign=bottom;endFill=0;" edge="1" parent="dNskdut9mb7uznUAlSVk-387" target="dNskdut9mb7uznUAlSVk-408">
          <mxGeometry width="50" height="50" relative="1" as="geometry">
            <mxPoint x="20" y="10" as="sourcePoint" />
            <mxPoint x="60" y="70" as="targetPoint" />
          </mxGeometry>
        </mxCell>
        <mxCell id="dNskdut9mb7uznUAlSVk-401" value="" style="endArrow=none;html=1;startSize=1;endSize=1;sourcePerimeterSpacing=4;targetPerimeterSpacing=2;verticalAlign=bottom;endFill=0;" edge="1" parent="dNskdut9mb7uznUAlSVk-387" target="dNskdut9mb7uznUAlSVk-408">
          <mxGeometry width="50" height="50" relative="1" as="geometry">
            <mxPoint x="20.000000000000227" y="20" as="sourcePoint" />
            <mxPoint x="60" y="70" as="targetPoint" />
          </mxGeometry>
        </mxCell>
        <mxCell id="dNskdut9mb7uznUAlSVk-402" value="" style="endArrow=none;html=1;startSize=1;endSize=1;sourcePerimeterSpacing=4;targetPerimeterSpacing=2;verticalAlign=bottom;endFill=0;" edge="1" parent="dNskdut9mb7uznUAlSVk-387" target="dNskdut9mb7uznUAlSVk-408">
          <mxGeometry width="50" height="50" relative="1" as="geometry">
            <mxPoint x="20" y="30" as="sourcePoint" />
            <mxPoint x="60" y="70" as="targetPoint" />
          </mxGeometry>
        </mxCell>
        <mxCell id="dNskdut9mb7uznUAlSVk-403" value="" style="endArrow=none;html=1;startSize=1;endSize=1;sourcePerimeterSpacing=4;targetPerimeterSpacing=2;verticalAlign=bottom;endFill=0;" edge="1" parent="dNskdut9mb7uznUAlSVk-387" target="dNskdut9mb7uznUAlSVk-408">
          <mxGeometry width="50" height="50" relative="1" as="geometry">
            <mxPoint x="20" y="40" as="sourcePoint" />
            <mxPoint x="60" y="70" as="targetPoint" />
          </mxGeometry>
        </mxCell>
        <mxCell id="dNskdut9mb7uznUAlSVk-404" value="" style="endArrow=none;html=1;startSize=1;endSize=1;sourcePerimeterSpacing=4;targetPerimeterSpacing=2;verticalAlign=bottom;endFill=0;" edge="1" parent="dNskdut9mb7uznUAlSVk-387" target="dNskdut9mb7uznUAlSVk-408">
          <mxGeometry width="50" height="50" relative="1" as="geometry">
            <mxPoint x="20" y="50" as="sourcePoint" />
            <mxPoint x="60" y="70" as="targetPoint" />
          </mxGeometry>
        </mxCell>
        <mxCell id="dNskdut9mb7uznUAlSVk-405" value="" style="endArrow=none;html=1;startSize=1;endSize=1;sourcePerimeterSpacing=4;targetPerimeterSpacing=2;verticalAlign=bottom;endFill=0;" edge="1" parent="dNskdut9mb7uznUAlSVk-387" target="dNskdut9mb7uznUAlSVk-408">
          <mxGeometry width="50" height="50" relative="1" as="geometry">
            <mxPoint x="20" y="60" as="sourcePoint" />
            <mxPoint x="60" y="70" as="targetPoint" />
          </mxGeometry>
        </mxCell>
        <mxCell id="dNskdut9mb7uznUAlSVk-406" value="" style="endArrow=none;html=1;startSize=1;endSize=1;sourcePerimeterSpacing=4;targetPerimeterSpacing=2;verticalAlign=bottom;endFill=0;" edge="1" parent="dNskdut9mb7uznUAlSVk-387" target="dNskdut9mb7uznUAlSVk-408">
          <mxGeometry width="50" height="50" relative="1" as="geometry">
            <mxPoint x="20" y="70" as="sourcePoint" />
            <mxPoint x="60" y="70" as="targetPoint" />
          </mxGeometry>
        </mxCell>
        <mxCell id="dNskdut9mb7uznUAlSVk-407" value="" style="endArrow=none;html=1;startSize=1;endSize=1;sourcePerimeterSpacing=4;targetPerimeterSpacing=2;verticalAlign=bottom;endFill=0;" edge="1" parent="dNskdut9mb7uznUAlSVk-387" target="dNskdut9mb7uznUAlSVk-408">
          <mxGeometry width="50" height="50" relative="1" as="geometry">
            <mxPoint x="20" y="80" as="sourcePoint" />
            <mxPoint x="60" y="70" as="targetPoint" />
          </mxGeometry>
        </mxCell>
        <mxCell id="dNskdut9mb7uznUAlSVk-408" value="" style="ellipse;whiteSpace=wrap;html=1;aspect=fixed;rounded=0;verticalAlign=middle;" vertex="1" parent="dNskdut9mb7uznUAlSVk-387">
          <mxGeometry x="60" y="49" width="2" height="2" as="geometry" />
        </mxCell>
        <mxCell id="dNskdut9mb7uznUAlSVk-409" value="" style="endArrow=none;html=1;startSize=1;endSize=1;sourcePerimeterSpacing=4;targetPerimeterSpacing=2;verticalAlign=bottom;endFill=0;" edge="1" parent="dNskdut9mb7uznUAlSVk-387" target="dNskdut9mb7uznUAlSVk-418">
          <mxGeometry width="50" height="50" relative="1" as="geometry">
            <mxPoint x="20" y="90" as="sourcePoint" />
            <mxPoint x="60" y="70" as="targetPoint" />
          </mxGeometry>
        </mxCell>
        <mxCell id="dNskdut9mb7uznUAlSVk-410" value="" style="endArrow=none;html=1;startSize=1;endSize=1;sourcePerimeterSpacing=4;targetPerimeterSpacing=2;verticalAlign=bottom;endFill=0;" edge="1" parent="dNskdut9mb7uznUAlSVk-387" target="dNskdut9mb7uznUAlSVk-418">
          <mxGeometry width="50" height="50" relative="1" as="geometry">
            <mxPoint x="20" y="10" as="sourcePoint" />
            <mxPoint x="60" y="70" as="targetPoint" />
          </mxGeometry>
        </mxCell>
        <mxCell id="dNskdut9mb7uznUAlSVk-411" value="" style="endArrow=none;html=1;startSize=1;endSize=1;sourcePerimeterSpacing=4;targetPerimeterSpacing=2;verticalAlign=bottom;endFill=0;" edge="1" parent="dNskdut9mb7uznUAlSVk-387" target="dNskdut9mb7uznUAlSVk-418">
          <mxGeometry width="50" height="50" relative="1" as="geometry">
            <mxPoint x="20.000000000000227" y="20" as="sourcePoint" />
            <mxPoint x="60" y="70" as="targetPoint" />
          </mxGeometry>
        </mxCell>
        <mxCell id="dNskdut9mb7uznUAlSVk-412" value="" style="endArrow=none;html=1;startSize=1;endSize=1;sourcePerimeterSpacing=4;targetPerimeterSpacing=2;verticalAlign=bottom;endFill=0;" edge="1" parent="dNskdut9mb7uznUAlSVk-387" target="dNskdut9mb7uznUAlSVk-418">
          <mxGeometry width="50" height="50" relative="1" as="geometry">
            <mxPoint x="20" y="30" as="sourcePoint" />
            <mxPoint x="60" y="70" as="targetPoint" />
          </mxGeometry>
        </mxCell>
        <mxCell id="dNskdut9mb7uznUAlSVk-413" value="" style="endArrow=none;html=1;startSize=1;endSize=1;sourcePerimeterSpacing=4;targetPerimeterSpacing=2;verticalAlign=bottom;endFill=0;" edge="1" parent="dNskdut9mb7uznUAlSVk-387" target="dNskdut9mb7uznUAlSVk-418">
          <mxGeometry width="50" height="50" relative="1" as="geometry">
            <mxPoint x="20" y="40" as="sourcePoint" />
            <mxPoint x="60" y="70" as="targetPoint" />
          </mxGeometry>
        </mxCell>
        <mxCell id="dNskdut9mb7uznUAlSVk-414" value="" style="endArrow=none;html=1;startSize=1;endSize=1;sourcePerimeterSpacing=4;targetPerimeterSpacing=2;verticalAlign=bottom;endFill=0;" edge="1" parent="dNskdut9mb7uznUAlSVk-387" target="dNskdut9mb7uznUAlSVk-418">
          <mxGeometry width="50" height="50" relative="1" as="geometry">
            <mxPoint x="20" y="50" as="sourcePoint" />
            <mxPoint x="60" y="70" as="targetPoint" />
          </mxGeometry>
        </mxCell>
        <mxCell id="dNskdut9mb7uznUAlSVk-415" value="" style="endArrow=none;html=1;startSize=1;endSize=1;sourcePerimeterSpacing=4;targetPerimeterSpacing=2;verticalAlign=bottom;endFill=0;" edge="1" parent="dNskdut9mb7uznUAlSVk-387" target="dNskdut9mb7uznUAlSVk-418">
          <mxGeometry width="50" height="50" relative="1" as="geometry">
            <mxPoint x="20" y="60" as="sourcePoint" />
            <mxPoint x="60" y="70" as="targetPoint" />
          </mxGeometry>
        </mxCell>
        <mxCell id="dNskdut9mb7uznUAlSVk-416" value="" style="endArrow=none;html=1;startSize=1;endSize=1;sourcePerimeterSpacing=4;targetPerimeterSpacing=2;verticalAlign=bottom;endFill=0;" edge="1" parent="dNskdut9mb7uznUAlSVk-387" target="dNskdut9mb7uznUAlSVk-418">
          <mxGeometry width="50" height="50" relative="1" as="geometry">
            <mxPoint x="20" y="70" as="sourcePoint" />
            <mxPoint x="60" y="70" as="targetPoint" />
          </mxGeometry>
        </mxCell>
        <mxCell id="dNskdut9mb7uznUAlSVk-417" value="" style="endArrow=none;html=1;startSize=1;endSize=1;sourcePerimeterSpacing=4;targetPerimeterSpacing=2;verticalAlign=bottom;endFill=0;" edge="1" parent="dNskdut9mb7uznUAlSVk-387" target="dNskdut9mb7uznUAlSVk-418">
          <mxGeometry width="50" height="50" relative="1" as="geometry">
            <mxPoint x="20" y="80" as="sourcePoint" />
            <mxPoint x="60" y="70" as="targetPoint" />
          </mxGeometry>
        </mxCell>
        <mxCell id="dNskdut9mb7uznUAlSVk-418" value="" style="ellipse;whiteSpace=wrap;html=1;aspect=fixed;rounded=0;verticalAlign=middle;" vertex="1" parent="dNskdut9mb7uznUAlSVk-387">
          <mxGeometry x="60" y="20" width="2" height="2" as="geometry" />
        </mxCell>
        <mxCell id="dNskdut9mb7uznUAlSVk-419" style="edgeStyle=none;rounded=0;orthogonalLoop=1;jettySize=auto;html=1;endArrow=classic;endFill=1;startSize=3;endSize=3;sourcePerimeterSpacing=5;targetPerimeterSpacing=5;strokeColor=#000000;verticalAlign=bottom;" edge="1" parent="1" source="dNskdut9mb7uznUAlSVk-388" target="dNskdut9mb7uznUAlSVk-336">
          <mxGeometry relative="1" as="geometry" />
        </mxCell>
        <mxCell id="dNskdut9mb7uznUAlSVk-420" style="edgeStyle=none;rounded=0;orthogonalLoop=1;jettySize=auto;html=1;endArrow=classic;endFill=1;startSize=3;endSize=3;sourcePerimeterSpacing=5;targetPerimeterSpacing=5;strokeColor=#000000;verticalAlign=bottom;" edge="1" parent="1" source="dNskdut9mb7uznUAlSVk-355" target="dNskdut9mb7uznUAlSVk-345">
          <mxGeometry relative="1" as="geometry" />
        </mxCell>
        <mxCell id="dNskdut9mb7uznUAlSVk-429" value="" style="group;verticalAlign=bottom;" vertex="1" connectable="0" parent="1">
          <mxGeometry x="2130" y="510" width="60" height="100" as="geometry" />
        </mxCell>
        <mxCell id="dNskdut9mb7uznUAlSVk-430" value="Poisson Sampling" style="rounded=0;whiteSpace=wrap;html=1;verticalAlign=bottom;strokeColor=none;" vertex="1" parent="dNskdut9mb7uznUAlSVk-429">
          <mxGeometry width="60" height="100" as="geometry" />
        </mxCell>
        <mxCell id="dNskdut9mb7uznUAlSVk-431" value="" style="shape=image;verticalLabelPosition=bottom;labelBackgroundColor=#ffffff;verticalAlign=top;aspect=fixed;imageAspect=0;image=data:image/svg+xml,PHN2ZyB4bWxuczpkYz0iaHR0cDovL3B1cmwub3JnL2RjL2VsZW1lbnRzLzEuMS8iIHhtbG5zOmNjPSJodHRwOi8vY3JlYXRpdmVjb21tb25zLm9yZy9ucyMiIHhtbG5zOnJkZj0iaHR0cDovL3d3dy53My5vcmcvMTk5OS8wMi8yMi1yZGYtc3ludGF4LW5zIyIgeG1sbnM6c3ZnPSJodHRwOi8vd3d3LnczLm9yZy8yMDAwL3N2ZyIgeG1sbnM9Imh0dHA6Ly93d3cudzMub3JnLzIwMDAvc3ZnIiB4bWxuczpzb2RpcG9kaT0iaHR0cDovL3NvZGlwb2RpLnNvdXJjZWZvcmdlLm5ldC9EVEQvc29kaXBvZGktMC5kdGQiIHhtbG5zOmlua3NjYXBlPSJodHRwOi8vd3d3Lmlua3NjYXBlLm9yZy9uYW1lc3BhY2VzL2lua3NjYXBlIiB2ZXJzaW9uPSIxLjEiIHg9IjBweCIgeT0iMHB4IiB2aWV3Qm94PSIwLjc5NDk1NzUxODU3NzU3NTcgNi4yNzgyNjY0Mjk5MDExMjMgOTguNjk0MDM4MzkxMTEzMjggMTExLjkxNTg0MDE0ODkyNTc4IiBlbmFibGUtYmFja2dyb3VuZD0ibmV3IDAgMCAxMDAgMTAwIiB4bWw6c3BhY2U9InByZXNlcnZlIiBpZD0ic3ZnMTgiIHNvZGlwb2RpOmRvY25hbWU9Im5vdW5fRGljZV8xMzY5Mzkuc3ZnIiBpbmtzY2FwZTp2ZXJzaW9uPSIxLjAuMSAoYzQ5N2IwM2MsIDIwMjAtMDktMTApIiB3aWR0aD0iOTguNjk0MDM4MzkxMTEzMjgiIGhlaWdodD0iMTExLjkxNTg0MDE0ODkyNTc4Ij48bWV0YWRhdGEgaWQ9Im1ldGFkYXRhMjQiPjxyZGY6cmRmPjxjYzp3b3JrIHJkZjphYm91dD0iIj48ZGM6Zm9ybWF0PmltYWdlL3N2Zyt4bWw8L2RjOmZvcm1hdD48ZGM6dHlwZSByZGY6cmVzb3VyY2U9Imh0dHA6Ly9wdXJsLm9yZy9kYy9kY21pdHlwZS9TdGlsbEltYWdlIi8+PC9jYzp3b3JrPjwvcmRmOnJkZj48L21ldGFkYXRhPjxkZWZzIGlkPSJkZWZzMjIiLz48c29kaXBvZGk6bmFtZWR2aWV3IHBhZ2Vjb2xvcj0iI2ZmZmZmZiIgYm9yZGVyY29sb3I9IiM2NjY2NjYiIGJvcmRlcm9wYWNpdHk9IjEiIG9iamVjdHRvbGVyYW5jZT0iMTAiIGdyaWR0b2xlcmFuY2U9IjEwIiBndWlkZXRvbGVyYW5jZT0iMTAiIGlua3NjYXBlOnBhZ2VvcGFjaXR5PSIwIiBpbmtzY2FwZTpwYWdlc2hhZG93PSIyIiBpbmtzY2FwZTp3aW5kb3ctd2lkdGg9IjE1NTgiIGlua3NjYXBlOndpbmRvdy1oZWlnaHQ9Ijg5NyIgaWQ9Im5hbWVkdmlldzIwIiBzaG93Z3JpZD0iZmFsc2UiIGlua3NjYXBlOnpvb209IjUuNTIxNzQ4MyIgaW5rc2NhcGU6Y3g9IjUwIiBpbmtzY2FwZTpjeT0iODEuMTMxMTg1IiBpbmtzY2FwZTp3aW5kb3cteD0iMCIgaW5rc2NhcGU6d2luZG93LXk9IjI1IiBpbmtzY2FwZTp3aW5kb3ctbWF4aW1pemVkPSIwIiBpbmtzY2FwZTpjdXJyZW50LWxheWVyPSJzdmcxOCIvPjxnIGlkPSJnMTIiIHRyYW5zZm9ybT0ibWF0cml4KDEuNTU0NzI2NiwwLDAsMS41NTQ3MjY2LC0yNy41OTU5MDEsLTE1LjUwMDM0NCkiPjxwYXRoIGZpbGw9IiMwMDAwMDAiIGQ9Im0gNTAuMTIxLDE0LjAwOCBjIC0wLjA2MSwwIC0wLjEyMSwwIC0wLjEyMSwwIC0wLjc3OSwwIC0xLjU2LDAuMjQgLTIuMjc5LDAuNiBsIC0yNy4xOCwxNS43MiB2IDAgYyAtMC4wNjEsMC4wNjEgLTAuMDYxLDAuMDYxIC0wLjA2MSwwLjA2MSAtMC4xOCwwLjEyIC0wLjM1OSwwLjI0IC0wLjU0LDAuMzYgMCwwIC0wLjA2LDAuMDYgLTAuMTIsMC4xMTkgLTAuMTE5LDAuMTIgLTAuMjQsMC4yNCAtMC4zNTksMC4zNiAtMC4wNjEsMC4wNiAtMC4wNjEsMC4wNiAtMC4xMjEsMC4xMiAtMC4xMTksMC4xMiAtMC4yMzksMC4zIC0wLjI5OSwwLjQyIC0wLjA2MSwwLjA2IC0wLjA2MSwwLjEyIC0wLjEyMSwwLjEyIC0wLjQyLDAuNzIgLTAuNjU5LDEuNTYgLTAuNjU5LDIuMzk5IHYgMzEuNDQgYyAwLDEuNjIgMC44NCwzLjEyIDIuMjgsMy45NiBsIDI3LjE4LDE1LjcyMSBjIDEuNDM5LDAuNzc5IDMuMTE5LDAuNzc5IDQuNTU5LDAgTCA3OS40NjIsNjkuNjg3IGMgMS4zNzksLTAuODQgMi4yNzksLTIuMzQgMi4yNzksLTMuOTYgdiAtMzEuNDQgYyAwLC0wLjYgLTAuMTIxLC0xLjE5OSAtMC4zNTksLTEuNzM5IHYgMCAwIC0wLjA2MSBsIC0wLjA2MSwtMC4wNiBjIC0wLjA2MSwtMC4xOCAtMC4xOCwtMC4zNiAtMC4yNCwtMC41NCAtMC4wNjEsMCAtMC4xMTksLTAuMDYxIC0wLjExOSwtMC4xMiAtMC4xMjEsLTAuMTIgLTAuMTgyLC0wLjMgLTAuMzAxLC0wLjQyIC0wLjA2MSwtMC4wNjEgLTAuMTE5LC0wLjEyIC0wLjExOSwtMC4xMiAtMC4xMjEsLTAuMTIgLTAuMjQsLTAuMjQgLTAuMzYxLC0wLjM2IC0wLjA2MSwtMC4wNiAtMC4xMTksLTAuMTE5IC0wLjE4LC0wLjExOSAtMC4xOCwtMC4xODEgLTAuMzU5LC0wLjMwMSAtMC41MzksLTAuNDIxIHYgMCBMIDUyLjI4LDE0LjYwNyB2IDAgYyAtMC4wNTksMCAtMC4wNTksMCAtMC4wNTksMCAtMC42NiwtMC4zNTkgLTEuMzgyLC0wLjU5OSAtMi4xLC0wLjU5OSB6IG0gLTAuMDYxLDEuNjIgYyAwLjEyLDAgMC4yNCwwIDAuMzU5LDAgdiAwIGMgMC4xMjEsMCAwLjI0LDAuMDYgMC4zNjEsMC4wNiB2IDAgYyAwLjIzOSwwLjEyIDAuNDc5LDAuMTggMC42NTksMC4zIGwgMjcuMjQsMTUuNzIxIHYgMCBjIDAuMzAxLDAuMjM5IDAuNDgsMC42IDAuNzIxLDAuODk5IGwgLTI3Ljc4MSwxNi4wOCBjIC0xLjAxOSwwLjU0IC0yLjIxOSwwLjU0IC0zLjIzOSwwIEwgMjAuNTQsMzIuNjA4IGMgMC4yNCwtMC4zIDAuNDIsLTAuNjYgMC43NzksLTAuODk5IGwgOS45NjEsLTUuNzYxIDE3LjI3OSwtOS45NiBjIDAuMDYxLC0wLjA2IDAuMTgsLTAuMTIgMC4zLC0wLjE4IDAuNDIyLC0wLjEyIDAuNzgxLC0wLjE4IDEuMjAxLC0wLjE4IHogTSA1MCwyNy45MjggYyAtMS41LDAgLTIuOTM5LDAuMzU5IC0zLjk1OSwwLjk2IC0xLjA4LDAuNjYgLTEuOTIsMS42MiAtMS45MiwyLjgyIDAsMS4xOTkgMC44NCwyLjIyIDEuOTIsMi44MTkgMS4wMiwwLjY2IDIuNDU5LDEuMDIxIDMuOTU5LDEuMDIxIDEuNSwwIDIuOTQsLTAuMzYgMy45NjEsLTEuMDIxIDEuMDgsLTAuNiAxLjkyLC0xLjYyIDEuOTIsLTIuODE5IDAsLTEuMiAtMC44NCwtMi4xNiAtMS45MiwtMi44MiBDIDUyLjkzOSwyOC4yODcgNTEuNSwyNy45MjggNTAsMjcuOTI4IFogbSAwLDEuNTU5IGMgMS4yNiwwIDIuNDAxLDAuMzYgMy4xOCwwLjc4IDAuNzIxLDAuNDggMS4wOCwxLjAyIDEuMDgsMS40NCAwLDAuNDc5IC0wLjM1OSwxLjAyIC0xLjA4LDEuNSAtMC43NzksMC40MiAtMS45MiwwLjcyIC0zLjE4LDAuNzIgLTEuMjYsMCAtMi4zOTksLTAuMyAtMy4xOCwtMC43MiAtMC43NzksLTAuNDggLTEuMDgsLTEuMDIxIC0xLjA4LC0xLjUgMCwtMC40MjEgMC4zMDEsLTAuOTYgMS4wOCwtMS40NCAwLjc4LC0wLjQxOSAxLjkyLC0wLjc4IDMuMTgsLTAuNzggeiBtIDMwLjExOSw0LjU2MSBjIDAsMC4wNiAwLDAuMTIgMCwwLjIzOSB2IDMxLjQ0IGMgMCwxLjA4IC0wLjUzOSwyLjA0IC0xLjQzOSwyLjU4IGwgLTI3LjI0LDE1LjcyIGMgLTAuMTgsMC4xMiAtMC40MiwwLjE4MSAtMC42NTksMC4yNCB2IC0zMy42NiBjIDAuNiwtMC4wNiAxLjEzOSwtMC4yNCAxLjYyLC0wLjU0IHogbSAtNjAuMjM5LDAgMjcuNzIsMTYuMDIgYyAwLjQ3OSwwLjMgMS4wMjEsMC40OCAxLjYyLDAuNTQgdiAzMy42NiBjIC0wLjI0LC0wLjA2IC0wLjQ4LC0wLjEyIC0wLjY2LC0wLjI0IEwgMjEuMzIsNjguMzA4IGMgLTAuOSwtMC41NCAtMS40MzksLTEuNSAtMS40MzksLTIuNTggViAzNC4yODggQyAxOS44OCwzNC4xNjggMTkuODgsMzQuMTA3IDE5Ljg4LDM0LjA0OCBaIG0gNS42NCw3Ljk3OSBjIC0wLjQ3OSwwIC0wLjg5OSwwLjEyIC0xLjI2LDAuMzYgLTEuMDIxLDAuNTQgLTEuNSwxLjc0IC0xLjUsMyAtMC4wNiwxLjI2IDAuMzYsMi42NCAxLjE0LDMuOTYgMC43MjEsMS4zMiAxLjc0LDIuMzQgMi44MiwyLjk0IDEuMDgsMC42IDIuMzQsMC44NCAzLjM1OSwwLjIzOSAxLjA4LC0wLjYgMS41LC0xLjggMS41NjEsLTMuMDYgMCwtMS4yNiAtMC40MiwtMi42NDEgLTEuMTQxLC0zLjk2IC0wLjc3OSwtMS4zMiAtMS43OTksLTIuMzQgLTIuODc5LC0yLjk0IC0wLjY2LC0wLjM1OCAtMS40NCwtMC41OTggLTIuMSwtMC41MzkgeiBtIDAuMywxLjU2MSBjIDAuMzAxLDAuMDYgMC42NiwwLjE4IDEuMDIsMC4zNTkgMC43ODEsMC40OCAxLjYyMSwxLjI2MSAyLjI4MSwyLjQgMC42LDEuMDggMC44OTksMi4yMiAwLjg5OSwzLjEyIDAsMC44NCAtMC4zLDEuNDQgLTAuNzIsMS42MiAtMC40MiwwLjI0IC0xLjAyLDAuMjQgLTEuODAxLC0wLjE4IC0wLjc3OSwtMC40MjEgLTEuNjE5LC0xLjI2MSAtMi4yMTksLTIuNCAtMC42NiwtMS4wOCAtMC45NjEsLTIuMjIxIC0wLjk2MSwtMy4xMiAwLjA2MSwtMC44NCAwLjMwMSwtMS4zOCAwLjcyMSwtMS42MiAwLjI0MSwtMC4xMiAwLjQ4LC0wLjE3OSAwLjc4LC0wLjE3OSB6IG0gNDcuMSwxLjE5OSBjIC0wLjcyMSwtMC4wNiAtMS41LDAuMTgxIC0yLjE2LDAuNTQgLTEuMDgsMC42MDEgLTIuMSwxLjYyIC0yLjg3OSwyLjk0IC0wLjcyMSwxLjMyIC0xLjE0MSwyLjc2IC0xLjA4LDMuOTYgMCwxLjI2MSAwLjQyLDIuNDYgMS41LDMuMDYxIDEuMDIsMC42IDIuMjc5LDAuMzU5IDMuMzU5LC0wLjI0IDEuMDgsLTAuNTk5IDIuMSwtMS42MiAyLjg4MSwtMi45NCAwLjcxOSwtMS4zMiAxLjEzOSwtMi43IDEuMDc4LC0zLjk2IDAsLTEuMjYgLTAuNDIsLTIuMzk5IC0xLjUsLTMgQyA3My43Niw0NC45MDcgNzMuMzQsNDQuNzg3IDcyLjkyLDQ0Ljc4NyBaIG0gLTAuMzU5LDEuNTYxIGMgMC4yOTksMCAwLjYsMC4wNiAwLjc3OSwwLjE4IDAuNDIsMC4yNCAwLjY2LDAuNzggMC43MjEsMS42ODEgMCwwLjg0IC0wLjMwMSwxLjk3OSAtMC45NjEsMy4xMiAtMC42LDEuMDggLTEuNDM5LDEuOTIgLTIuMjE5LDIuMzQgLTAuNzgxLDAuNDIgLTEuMzgxLDAuNDc5IC0xLjgwMSwwLjI0IC0wLjQyLC0wLjI0IC0wLjcyMSwtMC43OCAtMC43MjEsLTEuNjgxIDAsLTAuODk5IDAuMzAxLC0yLjA0IDAuOSwtMy4xMiAwLjY2LC0xLjE0IDEuNSwtMS45MiAyLjI4MSwtMi4zOTkgMC4zNiwtMC4xODIgMC43MiwtMC4zMDIgMS4wMjEsLTAuMzYxIHogTSAzMi4zLDUzLjc4OCBjIC0wLjQyLDAuMDYgLTAuODQsMC4xOCAtMS4yLDAuMzU5IC0xLjA4LDAuNjAxIC0xLjUsMS44MDEgLTEuNTYsMy4wNjEgMCwxLjI2IDAuNDIsMi42NCAxLjE0LDMuOTYgMC43OCwxLjMyIDEuOCwyLjM0IDIuODgsMi45MzkgMS4wOCwwLjYwMSAyLjM0LDAuNzggMy4zNTksMC4xODEgMS4wMjEsLTAuNjAxIDEuNSwtMS43NCAxLjUsLTMgMC4wNjEsLTEuMjYxIC0wLjM1OSwtMi42NDEgLTEuMTM5LC0zLjk2IC0wLjcyMSwtMS4zMiAtMS43NCwtMi4zNCAtMi44MiwtMi45NCAtMC42NiwtMC4zNjEgLTEuNDQsLTAuNiAtMi4xNiwtMC42IHogbSAwLjM2LDEuNjIgYyAwLjMwMSwwLjA2IDAuNjAxLDAuMTggMS4wMjEsMC4zNTkgMC43OCwwLjQyIDEuNjIsMS4yNiAyLjIyLDIuMzQgMC42NiwxLjE0MSAwLjk2LDIuMjggMC45NiwzLjE4MSAtMC4wNiwwLjg0IC0wLjMsMS4zOCAtMC43MiwxLjYyIC0wLjQyLDAuMjM5IC0xLjAyLDAuMjM5IC0xLjgwMSwtMC4xODEgLTAuNzc5LC0wLjQ3OSAtMS42MTksLTEuMjYgLTIuMjc5LC0yLjM5OSAtMC42LC0xLjA4IC0wLjksLTIuMjIxIC0wLjksLTMuMTIgMCwtMC45IDAuMzAxLC0xLjQ0IDAuNzIxLC0xLjY4MSAwLjE3OCwtMC4wNTkgMC40NzgsLTAuMTE5IDAuNzc4LC0wLjExOSB6IG0gMjkuODIsNy40NCBjIC0wLjcyMSwwIC0xLjUsMC4xOCAtMi4xNiwwLjYwMSAtMS4wOCwwLjYgLTIuMSwxLjYxOSAtMi44ODEsMi45MzkgLTAuNzE5LDEuMzIgLTEuMTM5LDIuNyAtMS4wOCwzLjk2IDAsMS4yIDAuNDIsMi40IDEuNSwzIDEuMDIxLDAuNjAxIDIuMjgxLDAuNDIgMy4zNjEsLTAuMTggMS4wOCwtMC42NiAyLjEsLTEuNjggMi44NzksLTMgMC43MjEsLTEuMzIgMS4xNDEsLTIuNyAxLjA4LC0zLjkgMCwtMS4yNiAtMC40MiwtMi40NiAtMS41LC0zLjA2IC0wLjM1OSwtMC4yNCAtMC43NzksLTAuMzYgLTEuMTk5LC0wLjM2IHogbSAtMC4zNjEsMS42MiBjIDAuMzAxLC0wLjA2IDAuNjAyLDAgMC43ODEsMC4xMiAwLjQyLDAuMjQgMC42NiwwLjc4IDAuNzE5LDEuNjggMCwwLjkgLTAuMjk5LDIuMDQgLTAuOTU5LDMuMTIgLTAuNiwxLjA4IC0xLjQzOSwxLjkyIC0yLjIyMSwyLjM0IC0wLjc3OSwwLjQ4IC0xLjM3OSwwLjQ4IC0xLjc5OSwwLjI0IC0wLjQyLC0wLjI0IC0wLjcyMSwtMC43OCAtMC43MjEsLTEuNjggMCwtMC45IDAuMzAxLC0yLjA0IDAuOSwtMy4xMiAwLjY2LC0xLjA4IDEuNSwtMS45MiAyLjI3OSwtMi4zNCAwLjM2MywtMC4yNCAwLjcyMiwtMC4zNiAxLjAyMSwtMC4zNiB6IE0gMzkuMTQsNjUuNjA3IGMgLTAuNDIsMC4wNjEgLTAuODQsMC4xMiAtMS4yNiwwLjM2IC0xLjAyMSwwLjYgLTEuNSwxLjggLTEuNSwzLjA2IDAsMS4yIDAuMzU5LDIuNjQxIDEuMTQsMy45NjEgMC43OCwxLjMxOSAxLjc0LDIuMzQgMi44OCwyLjkzOSAxLjA4LDAuNiAyLjM0LDAuNzggMy4zNiwwLjE4IDEuMDIxLC0wLjYgMS41LC0xLjczOSAxLjUsLTMgMCwtMS4yNiAtMC4zNiwtMi42NCAtMS4xNCwtMy45NiAtMC43ODEsLTEuMzE5IC0xLjc0LC0yLjM0IC0yLjgyLC0yLjkzOSAtMC43MiwtMC40MiAtMS40NCwtMC42MDEgLTIuMTYsLTAuNjAxIHogbSAwLjMsMS42MjEgYyAwLjMsMC4wNjEgMC42NiwwLjEyIDEuMDIxLDAuMzYgMC43NzksMC40MiAxLjYxOSwxLjI2IDIuMjc5LDIuMzQgMC42NiwxLjE0IDAuOSwyLjI4IDAuOSwzLjEyIDAsMC45IC0wLjMwMSwxLjQ0IC0wLjcyMSwxLjY4IC0wLjM1OSwwLjI0IC0xLjAyLDAuMjQgLTEuNzM5LC0wLjIzOSAtMC43OCwtMC40MjEgLTEuNjIsLTEuMjYxIC0yLjI4LC0yLjM0MSAtMC42NiwtMS4wOCAtMC45LC0yLjIyIC0wLjksLTMuMTIgMCwtMC44OTkgMC4zMDEsLTEuNDM5IDAuNzIxLC0xLjY4IDAuMTc5LC0wLjEyIDAuNDE5LC0wLjE4IDAuNzE5LC0wLjEyIHoiIGlkPSJwYXRoMTAiLz48L2c+PC9zdmc+;" vertex="1" parent="dNskdut9mb7uznUAlSVk-429">
          <mxGeometry x="7.79" y="14.814814814814817" width="42.43" height="48" as="geometry" />
        </mxCell>
        <mxCell id="dNskdut9mb7uznUAlSVk-432" style="edgeStyle=none;rounded=0;orthogonalLoop=1;jettySize=auto;html=1;endArrow=classic;endFill=1;startSize=3;endSize=3;sourcePerimeterSpacing=5;targetPerimeterSpacing=5;strokeColor=#000000;verticalAlign=bottom;" edge="1" parent="1" source="dNskdut9mb7uznUAlSVk-345" target="dNskdut9mb7uznUAlSVk-430">
          <mxGeometry relative="1" as="geometry" />
        </mxCell>
        <mxCell id="dNskdut9mb7uznUAlSVk-433" value="" style="group" vertex="1" connectable="0" parent="1">
          <mxGeometry x="2250" y="470" width="170" height="180" as="geometry" />
        </mxCell>
        <mxCell id="dNskdut9mb7uznUAlSVk-434" value="" style="rounded=0;whiteSpace=wrap;html=1;verticalAlign=bottom;strokeColor=none;" vertex="1" parent="dNskdut9mb7uznUAlSVk-433">
          <mxGeometry width="170" height="180" as="geometry" />
        </mxCell>
        <mxCell id="dNskdut9mb7uznUAlSVk-435" value="" style="rounded=0;whiteSpace=wrap;html=1;" vertex="1" parent="dNskdut9mb7uznUAlSVk-433">
          <mxGeometry x="60" y="45" width="80" height="120" as="geometry" />
        </mxCell>
        <mxCell id="dNskdut9mb7uznUAlSVk-436" value="" style="rounded=0;whiteSpace=wrap;html=1;" vertex="1" parent="dNskdut9mb7uznUAlSVk-433">
          <mxGeometry x="50" y="35" width="80" height="120" as="geometry" />
        </mxCell>
        <mxCell id="dNskdut9mb7uznUAlSVk-437" value="&lt;font style=&quot;font-size: 12px&quot;&gt;Recovered Neural&lt;br&gt;Activity&lt;br&gt;&lt;/font&gt;&lt;br&gt;&lt;font style=&quot;font-size: 10px&quot;&gt;spikes encoded as binary events&lt;/font&gt;" style="rounded=0;whiteSpace=wrap;html=1;spacingTop=2;spacingLeft=2;spacingBottom=2;spacingRight=2;spacing=8;" vertex="1" parent="dNskdut9mb7uznUAlSVk-433">
          <mxGeometry x="40" y="25" width="80" height="120" as="geometry" />
        </mxCell>
        <mxCell id="dNskdut9mb7uznUAlSVk-438" value="time" style="endArrow=classic;html=1;labelPosition=center;verticalLabelPosition=top;align=center;verticalAlign=bottom;" edge="1" parent="dNskdut9mb7uznUAlSVk-433">
          <mxGeometry width="50" height="50" relative="1" as="geometry">
            <mxPoint x="40" y="15" as="sourcePoint" />
            <mxPoint x="90" y="15" as="targetPoint" />
          </mxGeometry>
        </mxCell>
        <mxCell id="dNskdut9mb7uznUAlSVk-439" value="neurons" style="endArrow=classic;html=1;horizontal=0;labelPosition=center;verticalLabelPosition=top;align=center;verticalAlign=bottom;" edge="1" parent="dNskdut9mb7uznUAlSVk-433">
          <mxGeometry y="-10" width="50" height="50" relative="1" as="geometry">
            <mxPoint x="30" y="25" as="sourcePoint" />
            <mxPoint x="30" y="75" as="targetPoint" />
            <mxPoint as="offset" />
          </mxGeometry>
        </mxCell>
        <mxCell id="dNskdut9mb7uznUAlSVk-440" value="trials" style="endArrow=classic;html=1;horizontal=1;labelPosition=center;verticalLabelPosition=top;align=center;verticalAlign=bottom;" edge="1" parent="dNskdut9mb7uznUAlSVk-433">
          <mxGeometry x="0.25" y="7" width="50" height="50" relative="1" as="geometry">
            <mxPoint x="130" y="15" as="sourcePoint" />
            <mxPoint x="160" y="45" as="targetPoint" />
            <mxPoint as="offset" />
          </mxGeometry>
        </mxCell>
        <mxCell id="dNskdut9mb7uznUAlSVk-441" style="edgeStyle=none;rounded=0;orthogonalLoop=1;jettySize=auto;html=1;endArrow=classic;endFill=1;startSize=3;endSize=3;sourcePerimeterSpacing=5;targetPerimeterSpacing=5;strokeColor=#000000;verticalAlign=bottom;" edge="1" parent="1" source="dNskdut9mb7uznUAlSVk-430" target="dNskdut9mb7uznUAlSVk-434">
          <mxGeometry relative="1" as="geometry" />
        </mxCell>
      </root>
    </mxGraphModel>
  </diagram>
</mxfile>
